<svg version="1.1" id="Layer_1" xmlns="http://www.w3.org/2000/svg" x="0" y="0" viewBox="0 0 38.4 64" xml:space="preserve"><style>.st0{fill:#a4c2f7}.st1{fill:#e3e7f2}.st2{fill:#fff}.st3{fill:#428dff}</style><path vector-effect="non-scaling-stroke" class="st0" d="M32 30v2.5c0 1.8-1.4 3.2-3.2 3.2H9.6c-1.8 0-3.2-1.4-3.2-3.2V30c.3.2.7.3 1.1.4 1.4.1 2.8.1 4.3 0h16c.4 0 .7.1 1.1.1 1 .2 2.1 0 3.1-.5z" transform="translate(0 27.2)"/><path vector-effect="non-scaling-stroke" class="st1" d="M28.8 30v2.5c0 1.8-1.4 3.2-3.2 3.2h-16c-1.8 0-3.2-1.4-3.2-3.2v-2c.4 0 .7-.1 1.1-.1h16c1.4.2 2.8.2 4.3 0 .3-.1.7-.2 1-.4z" transform="translate(0 27.2)"/><path vector-effect="non-scaling-stroke" class="st0" d="M10.7-12.3h1.1-1.1zm14.9-13.8h-3.2c1.2 0 2.1 1 2.1 2.1v11.7h2.1c.4 0 .7 0 1.1.1V-24c0-1.2-.9-2.1-2.1-2.1z" transform="translate(0 27.2)"/><path vector-effect="non-scaling-stroke" class="st0" d="M23.5-12.3c.4 0 .7 0 1.1.1v-.1h-1.1z" transform="translate(0 27.2)"/><path vector-effect="non-scaling-stroke" class="st1" d="M22.4-26.1h-9.6c-1.2 0-2.1 1-2.1 2.1v11.7h13.9V-24c-.1-1.2-1-2.1-2.2-2.1zm1.1 7.4c0 .6-.5 1.1-1.1 1.1H16c-.6 0-1.1-.5-1.1-1.1v-2.1c0-.6.5-1.1 1.1-1.1h6.4c.6 0 1.1.5 1.1 1.1v2.1z" transform="translate(0 27.2)"/><path vector-effect="non-scaling-stroke" class="st0" d="M11.7-13.3h14.9c5.9 0 10.7 4.8 10.7 10.7v23.5c0 5.9-4.8 10.7-10.7 10.7H11.7C5.8 31.6 1 26.8 1 20.9V-2.7c.1-5.9 4.8-10.6 10.7-10.6z" transform="translate(0 27.2)"/><path vector-effect="non-scaling-stroke" class="st1" d="M11.7-13.3h11.7c5.9 0 10.7 4.8 10.7 10.7v23.5c0 5.9-4.8 10.7-10.7 10.7H11.7C5.8 31.6 1 26.8 1 20.9V-2.7c.1-5.9 4.8-10.6 10.7-10.6z" transform="translate(0 27.2)"/><path vector-effect="non-scaling-stroke" class="st0" d="M27.7 15.4c0 6.1-6.4 6.5-8.5 6.5-.5 0-1.1 0-1.6-.1-2.7-.3-6.9-1.5-6.9-6.4 0-.8.2-1.7.5-2.5.4-1.1 1.1-2 1.9-2.8.1 0 .1 0 .1.1-.3.6-.3 1.3 0 2 .2.4.7.8 1.7.8.9 0 1.7-.4 1.7-2s-2.1-3.2-2.1-5.7c0-1 .2-2 .6-2.9.7-1.9 2.1-3.7 4.1-3.9.1 0 .1 0 .1.1v.1C18.5-.8 18 0 17.9.9c0 4.8 9.8 6.4 9.8 14.5z" transform="translate(0 27.2)"/><path vector-effect="non-scaling-stroke" class="st1" d="M24.5 15.4c0 4.9-4.2 6.1-6.9 6.4-2.7-.3-6.9-1.5-6.9-6.4 0-.8.2-1.7.5-2.5h.6c.6 0 1.2-.3 1.5-.8.2.4.7.8 1.7.8.9 0 1.7-.4 1.7-2s-2.1-3.2-2.1-5.7c0-1 .2-2 .6-2.9 1.6 3.8 9.3 5.9 9.3 13.1z" transform="translate(0 27.2)"/><path vector-effect="non-scaling-stroke" class="st2" d="M9.6 32.5V30h.1c-3.3-1.9-5.4-5.4-5.4-9.3V-2.7c0-5.5 4.1-10.1 9.6-10.6V-24c0-1.2 1-2.1 2.1-2.1h-3.2c-1.2 0-2.1 1-2.1 2.1v10.7c-5.5.6-9.6 5.1-9.6 10.6v23.5c0 3.8 2.1 7.4 5.4 9.3h-.1v2.5c0 1.8 1.4 3.2 3.2 3.2h3.2c-1.8-.1-3.2-1.5-3.2-3.3z" transform="translate(0 27.2)"/><path vector-effect="non-scaling-stroke" class="st2" d="M2.1-2.7v23.5H0V-2.7h2.1z" transform="translate(0 27.2)"/><path vector-effect="non-scaling-stroke" class="st3" d="M1.1 2.7c.6 0 1.1-.5 1.1-1.1v-4.3H0v4.3c0 .6.5 1.1 1.1 1.1zM0 20.8h2.1V10.1c0-.6-.4-1.1-1-1.1S0 9.5 0 10.1v10.7zM2.1 5.9c0-.3-.1-.6-.3-.8L1.7 5c-.1 0-.1-.1-.2-.1s-.1-.1-.2-.1h-.2c-.3 0-.6.1-.8.3-.1.1-.2.2-.2.3-.2.4-.1.9.2 1.2.1.1.2.2.4.2.1.1.3.1.4.1.3 0 .6-.1.8-.3.1-.2.2-.5.2-.7z" transform="translate(0 27.2)"/><path vector-effect="non-scaling-stroke" class="st3" d="M26.7 32.5h-15C5.3 32.5 0 27.3 0 20.8c0-.6.5-1.1 1.1-1.1.6 0 1.1.5 1.1 1.1 0 5.3 4.3 9.6 9.6 9.6h14.9c5.3 0 9.6-4.3 9.6-9.6V-2.7c0-5.3-4.3-9.6-9.6-9.6h-15c-5.3 0-9.6 4.3-9.6 9.6 0 .6-.5 1.1-1.1 1.1-.5 0-1-.5-1-1.1 0-6.5 5.3-11.7 11.7-11.7h14.9c6.5 0 11.7 5.3 11.7 11.7v23.5c.1 6.5-5.2 11.7-11.6 11.7z" transform="translate(0 27.2)"/><path vector-effect="non-scaling-stroke" class="st3" d="M28.8 36.8H9.6c-2.4 0-4.3-1.9-4.3-4.3V30c0-.4.2-.7.5-.9.3-.2.7-.2 1.1 0 1.5.8 3.1 1.3 4.8 1.3h14.9c1.7 0 3.3-.4 4.8-1.3.3-.2.7-.2 1.1 0 .3.2.5.5.5.9v2.5c.1 2.4-1.9 4.3-4.2 4.3zM7.5 31.7v.8c0 1.2 1 2.1 2.1 2.1h19.2c1.2 0 2.1-1 2.1-2.1v-.8c-1.4.5-2.8.8-4.3.8H11.7c-1.4 0-2.9-.3-4.2-.8zM22.4-16.5H16c-1.2 0-2.1-1-2.1-2.1v-2.1c0-1.2 1-2.1 2.1-2.1h6.4c1.2 0 2.1 1 2.1 2.1v2.1c0 1.1-.9 2.1-2.1 2.1zM16-20.8v2.1h6.4v-2.1H16z" transform="translate(0 27.2)"/><path vector-effect="non-scaling-stroke" class="st3" d="M27.7-12.2h-17c-.3 0-.6-.1-.8-.3-.2-.2-.4-.5-.4-.8V-24c0-1.8 1.4-3.2 3.2-3.2h12.8c1.8 0 3.2 1.4 3.2 3.2v10.7c.1.6-.4 1.1-1 1.1zm-16-2.2h14.9V-24c0-.6-.5-1.1-1.1-1.1H12.8c-.6 0-1.1.5-1.1 1.1v9.6zM19.2 22.9c-6 0-9.6-2.8-9.6-7.5.1-2.3 1.1-4.5 2.8-6 .4-.4.9-.4 1.4-.2.4.3.6.8.4 1.3-.2.4-.2.8-.1 1.1.1.1.3.2.8.2.3 0 .6 0 .6-1-.1-.6-.4-1.2-.8-1.7-.7-1.1-1.2-2.4-1.3-3.8 0-2.9 1.8-7.5 5.6-7.9.5-.1 1.1.2 1.3.8.2.5 0 1.1-.4 1.4-.5.3-.8.8-.9 1.3 0 1.6 1.7 2.9 3.6 4.5 2.8 2.2 6.2 5 6.2 10.1 0 4.6-3.6 7.4-9.6 7.4zm-6.8-10c-.4.8-.6 1.6-.6 2.5 0 4.7 4.7 5.4 7.5 5.4s7.5-.7 7.5-5.4c0-4.1-2.8-6.3-5.4-8.4-2.2-1.7-4.2-3.4-4.4-5.8-.8 1.2-1.3 2.7-1.3 4.1.1 1 .5 2 1.1 2.9.6.8 1 1.8 1.1 2.8 0 2.3-1.4 3.1-2.8 3.1-1.1 0-2.1-.4-2.7-1.2z" transform="translate(0 27.2)"/></svg>