<svg xmlns="http://www.w3.org/2000/svg" viewBox="0 0 547.23 92.61"><path fill="#0053a0" d="M110.33 46.51v-.16c0-15.72 12.67-28.46 29.56-28.46s29.4 12.59 29.4 28.31v.15c0 15.72-12.67 28.46-29.56 28.46s-29.4-12.59-29.4-28.3zm43.47 0v-.16c0-7.9-5.71-14.78-14.08-14.78-8.29 0-13.84 6.73-13.84 14.63v.15c0 7.9 5.71 14.78 14 14.78 8.37 0 13.92-6.73 13.92-14.62zm17.75 21.89l5.55-8.99c4.85 3.21 10.16 4.85 14.55 4.85 2.57 0 3.75-.78 3.75-2.27v-.16c0-1.64-2.35-2.35-6.81-3.6-8.36-2.19-15.01-5.01-15.01-13.53v-.16c0-8.99 7.19-13.99 16.97-13.99 6.17 0 12.59 1.79 17.44 4.92l-5.08 9.38c-4.38-2.43-9.15-3.91-12.51-3.91-2.26 0-3.43.86-3.43 2.03v.16c0 1.65 2.42 2.42 6.88 3.76 8.37 2.34 15.02 5.23 15.02 13.44v.16c0 9.31-6.96 14.15-17.29 14.15-7.13.01-14.17-2.02-20.03-6.24zm40.27-50.61h15.48v9.79h-15.48v-9.79zm.31 13.63h14.85v42.29h-14.85V31.42zm21.58 0h14.85v5.94c2.73-3.51 6.65-6.88 12.67-6.88 8.99 0 14.39 5.95 14.39 15.56v27.68h-14.85V50.8c0-4.61-2.43-7.12-5.95-7.12-3.59 0-6.26 2.51-6.26 7.12v22.91h-14.85V31.42zm46.28 21.34v-.15c0-12.35 8.84-22.13 21.34-22.13 14.62 0 21.35 10.71 21.35 23.15 0 .94 0 2.03-.08 3.05h-28.3c1.18 4.62 4.54 6.96 9.14 6.96 3.52 0 6.34-1.33 9.39-4.31l8.21 6.81c-4.06 5.16-9.93 8.61-18.38 8.61-13.29-.01-22.67-8.85-22.67-21.99zm28.77-3.67c-.55-4.69-3.28-7.66-7.35-7.66-3.91 0-6.57 3.05-7.35 7.66h14.7zm18.69-17.67h14.86v8.52c2.42-5.79 6.33-9.53 13.37-9.22v15.63h-1.25c-7.74 0-12.12 4.46-12.12 14.23v13.13h-14.86V31.42zm31.51 50.12l4.77-9.85c4.54 2.5 9.07 3.98 14.78 3.98 7.43 0 11.1-3.67 11.1-10.39v-1.64c-2.97 3.44-6.88 6.33-13.06 6.33-10.4 0-18.76-7.51-18.76-19.62v-.16c0-12.2 8.52-19.7 18.29-19.7 6.34 0 10.09 2.58 13.29 5.95v-5h14.86v32.13c0 7.74-1.72 13.14-5.47 16.89-3.83 3.83-9.78 5.94-18.61 5.94-8.21-.02-15.09-1.74-21.19-4.86zm30.65-31.2v-.16c0-4.69-3.59-8.13-8.6-8.13-5.07 0-8.68 3.52-8.68 8.21v.16c0 4.69 3.6 8.13 8.68 8.13 5 0 8.6-3.52 8.6-8.21zm19.47-18.92h14.86v5.79c2.74-3.52 6.65-6.73 12.59-6.73 5.63 0 9.93 2.51 12.2 6.88 3.67-4.22 7.98-6.88 14.16-6.88 8.99 0 14.46 5.63 14.46 15.48v27.75h-14.86V50.73c0-4.61-2.26-7.04-5.78-7.04-3.52 0-6.1 2.43-6.1 7.04v22.98h-14.86V50.73c0-4.61-2.26-7.04-5.78-7.04-3.52 0-6.02 2.43-6.02 7.04v22.98h-14.86V31.42zm74.35-13.63h15.48v9.79h-15.48v-9.79zm.31 13.63h14.86v42.29h-14.86V31.42zm21.58 0h14.86v5.94c2.73-3.51 6.64-6.88 12.66-6.88 9 0 14.39 5.95 14.39 15.56v27.68h-14.86V50.8c0-4.61-2.42-7.12-5.94-7.12-3.59 0-6.25 2.51-6.25 7.12v22.91h-14.86V31.42zM22.07 76.4l-5.94 10.29c3.43 1.98 7.16 3.51 11.09 4.52 3.51.9 7.18 1.4 10.97 1.4 16.33 0 30.59-8.88 38.21-22.08l10.29 5.95c1.99-3.43 3.51-7.15 4.52-11.1.9-3.5 1.4-7.18 1.4-10.97 0-16.33-8.88-30.59-22.08-38.21l5.94-10.29a43.814 43.814 0 00-11.09-4.52C61.88.49 58.21 0 54.42 0 38.08 0 23.83 8.88 16.21 22.07L5.92 16.13A43.45 43.45 0 001.4 27.22C.49 30.73 0 34.4 0 38.19 0 54.52 8.88 68.77 22.07 76.4zM11.86 38.19c0-1.61.13-3.18.36-4.72l10.32 5.96c.59-4.11 1.96-7.96 3.96-11.41 5.58-9.65 15.98-16.15 27.92-16.15 1.62 0 3.19.13 4.73.36l-5.96 10.32c4.11.6 7.97 1.96 11.42 3.96 9.64 5.58 16.15 15.98 16.15 27.92 0 1.61-.14 3.18-.36 4.72l-10.32-5.96a31.93 31.93 0 01-3.96 11.42c-5.58 9.64-15.98 16.15-27.92 16.15-1.61 0-3.18-.13-4.72-.36l5.96-10.31a31.88 31.88 0 01-11.41-3.96c-9.66-5.6-16.17-16-16.17-27.94z"/></svg>