<?xml version="1.0" standalone="no"?>
<!DOCTYPE svg PUBLIC "-//W3C//DTD SVG 1.1//EN" "http://www.w3.org/Graphics/SVG/1.1/DTD/svg11.dtd" >
<svg xmlns="http://www.w3.org/2000/svg" xmlns:xlink="http://www.w3.org/1999/xlink" version="1.1">
<metadata>
Created by FontForge 20230101 at Mon Nov 20 12:33:27 2023
 By edquispes
</metadata>
<defs>
<font id="metro" horiz-adv-x="1024" >
  <font-face 
    font-family="metro"
    font-weight="400"
    font-stretch="normal"
    units-per-em="1024"
    panose-1="0 0 0 0 0 0 0 0 0 0"
    ascent="960"
    descent="-64"
    bbox="-74.3333 -85 1317.08 1028"
    underline-thickness="0"
    underline-position="0"
    unicode-range="U+0001-FFFD"
  />
<missing-glyph 
 />
    <glyph glyph-name=".notdef" unicode="&#xfffd;" 
 />
    <glyph glyph-name="uni0000" horiz-adv-x="0" 
d="M0 0v0v0v0z" />
    <glyph glyph-name="uni0001" horiz-adv-x="0" 
d="M0 0v0v0v0z" />
    <glyph glyph-name="space" unicode=" " horiz-adv-x="512" 
d="M0 0v0v0v0z" />
    <glyph glyph-name="uniE01D" unicode="&#xe01d;" 
d="M682 555h172v-470h-172v470zM170 85v342h172v-342h-172zM426 85v684h172v-684h-172z" />
    <glyph glyph-name="uniE042" unicode="&#xe042;" 
d="M512 725q70 0 133 -27q62 -27 108.5 -73t73.5 -108t27 -132q0 -71 -27 -133t-73.5 -108.5t-108.5 -73.5t-133 -27q-70 0 -133 27q-62 27 -108.5 73.5t-73.5 108.5t-27 133h86q0 -54 20 -100q20 -47 54.5 -81.5t81.5 -54.5t100 -20t100 20t81.5 54.5t54.5 81.5
q20 46 20 100q0 53 -20 100q-20 46 -54.5 81t-81.5 55t-100 20v-172l-214 214l214 214v-172z" />
    <glyph glyph-name="uniE06D" unicode="&#xe06d;" 
d="M512 641v84h-384v-84h384zM512 469v86h-384v-86h384zM896 811q34 0 60 -26t26 -60v-596q0 -35 -25.5 -60.5t-60.5 -25.5h-768q-34 0 -60 25.5t-26 60.5v596q0 34 25.5 60t60.5 26h768z" />
    <glyph glyph-name="uniE06E" unicode="&#xe06e;" 
d="M512 427v298h-384v-298h384zM896 811q34 0 60 -26t26 -60v-596q0 -35 -25.5 -60.5t-60.5 -25.5h-768q-34 0 -60 25.5t-26 60.5v596q0 34 25.5 60t60.5 26h768z" />
    <glyph glyph-name="uniE06F" unicode="&#xe06f;" 
d="M640 705v-236h234zM938 513v-342q0 -35 -24.5 -59.5t-59.5 -24.5l-684 -2q-34 0 -59 25.5t-25 60.5v512q0 34 24.5 60t59.5 26h512z" />
    <glyph glyph-name="uniE0B7" unicode="&#xe0b7;" 
d="M768 597v86h-512v-86h512zM598 341v86h-342v-86h342zM256 555v-86h512v86h-512zM854 853q34 0 59 -25t25 -59v-512q0 -35 -24.5 -60.5t-59.5 -25.5h-598l-170 -170v768q0 34 24.5 59t59.5 25h684z" />
    <glyph glyph-name="uniE0B9" unicode="&#xe0b9;" 
d="M768 597v86h-512v-86h512zM768 469v86h-512v-86h512zM768 341v86h-512v-86h512zM938 769v-768l-170 170h-598q-34 0 -59 25.5t-25 60.5v512q0 34 24.5 59t59.5 25h684q34 0 59 -25t25 -59z" />
    <glyph glyph-name="uniE0C3" unicode="&#xe0c3;" 
d="M682 213h128l-170 -170l-170 170h128v300h84v-300zM384 811l170 -170h-128v-300h-84v300h-128z" />
    <glyph glyph-name="uniE0C7" unicode="&#xe0c7;" 
d="M500 449q44 -44 89 -88q44 -44 88.5 -88t88.5 -88l88 -88l-54 -54l-144 142q-54 -80 -99 -132l-45 -52l-47 55q-46 55 -102 138t-102 180q-47 97 -47 181q0 16 2.5 32.5t5.5 33.5l-136 136l54 54l356 -356zM512 661q-24 0 -43.5 -10t-34.5 -26l-138 136q40 42 96.5 67
t119.5 25q62 0 117 -24q54 -23 94.5 -63t63.5 -95q23 -54 23 -116q0 -54 -20 -114t-52 -120l-154 156q16 15 25 34.5t9 43.5q0 43 -31 74.5t-75 31.5z" />
    <glyph glyph-name="uniE0CA" unicode="&#xe0ca;" 
d="M854 853q34 0 59 -25t25 -59v-512q0 -35 -24.5 -60.5t-59.5 -25.5h-598l-170 -170v768q0 34 24.5 59t59.5 25h684z" />
    <glyph glyph-name="uniE0CB" unicode="&#xe0cb;" 
d="M854 257v512h-684v-598l86 86h598zM854 853q34 0 59 -25t25 -59v-512q0 -35 -24.5 -60.5t-59.5 -25.5h-598l-170 -170v768q0 34 24.5 59t59.5 25h684z" />
    <glyph glyph-name="uniE0DB" unicode="&#xe0db;" 
d="M810 897q34 0 60 -26t26 -60v-768q0 -35 -25.5 -60.5t-60.5 -25.5h-426q-34 0 -60 25.5t-26 60.5v128h86v-86h426v684h-426v-86h-86v128q0 34 25.5 60t60.5 26h426zM554 589l-170 -170l170 -172l-42 -42l-170 170l-172 -170l-42 42l170 172l-170 170l42 42l172 -170
l170 170z" />
    <glyph glyph-name="uniE0DC" unicode="&#xe0dc;" 
d="M406 469v64q0 25 -19 40.5t-45 15.5q-25 0 -44.5 -15.5t-19.5 -40.5v-64h128zM460 469q19 0 35.5 -16t16.5 -38v-150q0 -20 -16.5 -36t-39.5 -16h-234q-19 0 -35.5 16.5t-16.5 39.5v150q0 19 16 34.5t36 15.5v64q0 45 37.5 76.5t82.5 31.5t81.5 -31.5t36.5 -76.5v-64z
M810 897q34 0 60 -26t26 -60v-768q0 -35 -25.5 -60.5t-60.5 -25.5h-426q-34 0 -60 25.5t-26 60.5v128h86v-86h426v684h-426v-86h-86v128q0 34 25.5 60t60.5 26h426z" />
    <glyph glyph-name="uniE0DD" unicode="&#xe0dd;" 
d="M598 85v684h-428v-684h428zM598 897q34 0 59 -26t25 -60v-768q0 -35 -24.5 -60.5t-59.5 -25.5h-428q-34 0 -59 25.5t-25 60.5v768q0 34 24.5 60t59.5 26h428zM768 521q39 -42 39 -93.5t-39 -90.5l-42 44q16 22 16 48.5t-16 49.5zM858 611q40 -39 60 -86q19 -48 19 -97.5
t-19 -96.5q-20 -48 -60 -84l-44 44q57 61 57 140t-57 136z" />
    <glyph glyph-name="uniE0DE" unicode="&#xe0de;" 
d="M810 897q34 0 60 -26t26 -60v-768q0 -35 -25.5 -60.5t-60.5 -25.5h-426q-34 0 -60 25.5t-26 60.5v128h86v-86h426v684h-426v-86h-86v128q0 34 25.5 60t60.5 26h426zM342 341q34 0 59 25.5t25 60.5q0 34 -24.5 60t-59.5 26q-34 0 -60 -26t-26 -60q0 -35 25.5 -60.5
t60.5 -25.5zM504 405l46 -38q3 -3 5 -6t-1 -6l-42 -74q-3 -3 -6 -3.5t-6 -0.5l-56 22q-9 -6 -19 -12.5t-19 -9.5l-10 -54q-3 -3 -6 -6.5t-6 -3.5h-86q-3 0 -7 3.5t-1 6.5l-8 54q-9 3 -19 9.5t-19 12.5l-60 -18q-3 -3 -7 0t-7 6l-42 72q0 3 0.5 6.5t3.5 9.5l48 34v44l-48 34
q-3 3 -5 6t1 6l42 74q3 3 7 3.5t7 0.5l54 -22q9 6 20 12.5t20 9.5l8 54q3 3 6 6.5t6 3.5h86q6 0 9 -3.5t3 -6.5l10 -54q9 -3 19 -9.5t19 -12.5l56 18q3 3 6 0l6 -6l42 -72q0 -3 -0.5 -6t-3.5 -6l-46 -34v-44z" />
    <glyph glyph-name="uniE0DF" unicode="&#xe0df;" 
d="M426 427h-84l170 170l170 -170h-84v-170h-172v170zM896 127v600h-768v-600h768zM896 811q36 0 61 -25t25 -61v-596q0 -36 -25 -61t-61 -25h-768q-36 0 -61 25t-25 61v596q0 36 25 61t61 25h768z" />
    <glyph glyph-name="uniE0E0" unicode="&#xe0e0;" 
d="M896 149v492q-34 10 -72.5 15t-77.5 5q-54 0 -122 -18.5t-112 -45.5v-490q43 27 111.5 45.5t122.5 18.5q39 0 77 -6t73 -16zM746 747q66 0 130.5 -16.5t105.5 -47.5v-622q0 -8 -7 -15t-15 -7h-5t-5 2q-45 24 -98 34t-106 10q-54 0 -122 -18.5t-112 -45.5
q-46 34 -108.5 49t-125.5 15q-46 0 -103 -12.5t-101 -33.5q-3 0 -5 -1t-5 -1q-7 0 -14.5 6t-7.5 14v626q46 34 109.5 49t126.5 15t125 -15t109 -49q46 34 108.5 49t125.5 15z" />
    <glyph glyph-name="uniE145" unicode="&#xe145;" 
d="M810 385h-256v-256h-84v256h-256v84h256v256h84v-256h256v-84z" />
    <glyph glyph-name="uniE14A" unicode="&#xe14a;" 
d="M810 273l-152 154l152 154l-60 60l-152 -154l-154 154l-60 -60l154 -154l-154 -154l60 -60l154 154l152 -154zM938 811q34 0 60 -26t26 -60v-596q0 -35 -25.5 -60.5t-60.5 -25.5h-640q-22 0 -39 10.5t-29 27.5l-230 346l230 346q12 16 28.5 27t39.5 11h640z" />
    <glyph glyph-name="uniE156" unicode="&#xe156;" 
d="M810 299v426h-598v-426h172q0 -53 37.5 -90.5t90.5 -37.5q52 0 90 37.5t38 90.5h170zM810 811q34 0 60 -25t26 -61v-596q0 -35 -25.5 -60.5t-60.5 -25.5h-598q-36 0 -60 25.5t-24 60.5v596q0 36 24 61t60 25h598z" />
    <glyph glyph-name="uniE15E" unicode="&#xe15e;" 
d="M426 555q112 -16 193 -61q82 -46 138 -110t90 -142q33 -77 49 -157q-40 56 -88 97t-106.5 68t-126.5 40q-69 13 -149 13v-174l-298 298l298 298v-170z" />
    <glyph glyph-name="uniE15F" unicode="&#xe15f;" 
d="M554 555q112 -16 193 -61q82 -46 138 -110t90 -142q33 -77 49 -157q-40 56 -88 97t-106.5 68t-126.5 40q-69 13 -149 13v-174l-298 298l298 298v-170zM298 597l-170 -170l170 -170v-128l-298 298l298 298v-128z" />
    <glyph glyph-name="uniE168" unicode="&#xe168;" 
d="M682 513l-170 -172l-170 172h84v128h172v-128h84zM810 299v426h-598v-426h172q0 -53 37.5 -90.5t90.5 -37.5q52 0 90 37.5t38 90.5h170zM810 811q34 0 60 -26t26 -60v-596q0 -35 -25.5 -60.5t-60.5 -25.5h-598q-36 0 -60 25.5t-24 60.5v596q0 34 24 60t60 26h598z" />
    <glyph glyph-name="uniE1B9" unicode="&#xe1b9;" 
d="M938 1h-852l852 852v-852z" />
    <glyph glyph-name="uniE1BA" unicode="&#xe1ba;" 
d="M872 472q1 0 1.5 -0.5l0.5 -0.5l-362 -448l-362 448l0.5 0.5l0.5 0.5l-135 169q7 5 46 32q38 27 102.5 57.5t152.5 55.5t195 25t195 -25t152.5 -55.5t102.5 -57.5t46 -32z" />
    <glyph glyph-name="uniE1C0" unicode="&#xe1c0;" 
d="M716 833v-22h146v22q0 30 -21 51t-51 21t-52 -21t-22 -51zM682 555q-18 0 -30 12t-12 30v172q0 18 12 30t30 12v22q0 43 32 74.5t76 31.5q43 0 74.5 -31.5t31.5 -74.5v-22q18 0 30 -12t12 -30v-172q0 -18 -12 -30t-30 -12h-214zM362 65l56 56l162 -162l-28 -2
q-100 0 -190 36q-89 37 -157.5 100.5t-111.5 149.5q-43 85 -51 184h64q6 -60 27 -115t54.5 -101.5t77.5 -83.5q44 -38 97 -62zM992 395q19 -18 19 -45.5t-19 -46.5l-272 -270q-18 -20 -44 -20t-46 20l-512 512q-19 18 -19 44t19 46l270 272q18 19 45 19t47 -19l104 -104
l-60 -60l-90 88l-242 -240l484 -484l240 242l-94 94l60 60z" />
    <glyph glyph-name="uniE1C1" unicode="&#xe1c1;" 
d="M320 23l58 56l162 -162l-28 -2q-100 0 -190 36q-89 37 -157.5 100.5t-111.5 149.5q-43 85 -51 184h64q6 -60 27 -115q20 -55 53 -101.5t77 -83.5q44 -38 97 -62zM632 35l272 272l-512 512l-272 -272zM436 865l514 -514q19 -18 19 -44.5t-19 -45.5l-272 -272
q-18 -20 -44 -20t-46 20l-514 514q-19 18 -19 44t19 46l272 272q18 19 44 19t46 -19zM704 831l-58 -56l-162 162l28 2q100 0 190 -37q89 -37 157.5 -100.5t111.5 -148.5q43 -86 51 -184h-64q-6 60 -27 114q-20 55 -53 102t-77 84t-97 62z" />
    <glyph glyph-name="uniE1C8" unicode="&#xe1c8;" 
d="M86 1l852 852v-852h-852z" />
    <glyph glyph-name="uniE1CD" unicode="&#xe1cd;" 
d="M86 1l852 852v-256h-170v-596h-682zM854 1v84h84v-84h-84zM854 171v342h84v-342h-84z" />
    <glyph glyph-name="uniE1CF" unicode="&#xe1cf;" 
d="M938 853v-852h-852zM854 647l-562 -562h562v562z" />
    <glyph glyph-name="uniE1D0" unicode="&#xe1d0;" 
d="M204 747l734 -736l-54 -54l-84 86h-758l378 378l-270 272zM896 897v-734l-366 366z" />
    <glyph glyph-name="uniE1D9" unicode="&#xe1d9;" 
d="M662 321v-112l-150 -188l-494 620q7 4 45 31q37 27 101.5 58t152.5 56t195 25t195 -25t152.5 -56t101.5 -58q38 -27 45 -31l-88 -112q-9 3 -19.5 3.5t-24.5 0.5q-45 0 -84 -17q-38 -16 -66.5 -44.5t-45.5 -67.5q-16 -38 -16 -83zM938 257v64q0 25 -19 44.5t-45 19.5
q-25 0 -44.5 -19.5t-19.5 -44.5v-64h128zM982 257q16 0 29 -14t13 -30v-170q0 -17 -12.5 -29.5t-29.5 -12.5h-214q-16 0 -29 12.5t-13 29.5v170q0 16 12.5 30t29.5 14v64q0 45 30.5 75.5t75.5 30.5t76.5 -30.5t31.5 -75.5v-64z" />
    <glyph glyph-name="uniE1DA" unicode="&#xe1da;" 
d="M140 877l184 -184t183.5 -184t183.5 -184t183 -184l-54 -54l-142 142l-166 -206l-496 618q7 6 47 34t109 60l-86 88zM1008 641l-232 -290l-442 440q40 9 85 14.5t93 5.5q107 0 195 -25t152.5 -55.5t102.5 -57.5t46 -32z" />
    <glyph glyph-name="uniE24D" unicode="&#xe24d;" 
d="M554 555h236l-236 234v-234zM256 853h342l256 -256v-512q0 -35 -25.5 -59.5t-60.5 -24.5h-512q-34 0 -60 24.5t-26 59.5l2 684q0 34 24.5 59t59.5 25z" />
    <glyph glyph-name="uniE2C7" unicode="&#xe2c7;" 
d="M426 769l86 -86h342q34 0 59 -26t25 -60v-426q0 -35 -24.5 -60.5t-59.5 -25.5h-684q-34 0 -59 25.5t-25 60.5v512q0 34 24.5 60t59.5 26h256z" />
    <glyph glyph-name="uniE2C8" unicode="&#xe2c8;" 
d="M854 171v426h-684v-426h684zM854 683q34 0 59 -26t25 -60v-426q0 -35 -24.5 -60.5t-59.5 -25.5h-684q-34 0 -59 25.5t-25 60.5v512q0 34 24.5 60t59.5 26h256l86 -86h342z" />
    <glyph glyph-name="uniE2C9" unicode="&#xe2c9;" 
d="M810 213v44q0 42 -64 63t-106 21t-106 -21t-64 -63v-44h340zM640 555q-34 0 -60 -26t-26 -60q0 -35 25.5 -59.5t60.5 -24.5q34 0 60 24.5t26 59.5q0 34 -25.5 60t-60.5 26zM854 683q34 0 59 -26t25 -60v-426q0 -35 -24.5 -60.5t-59.5 -25.5h-684q-34 0 -59 25.5t-25 60.5
v512q0 34 24.5 60t59.5 26h256l86 -86h342z" />
    <glyph glyph-name="uniE2CC" unicode="&#xe2cc;" 
d="M810 341v86h-128v128h-84v-128h-128v-86h128v-128h84v128h128zM854 683q36 0 60 -25t24 -61v-426q0 -36 -24 -61t-60 -25h-684q-36 0 -60 25t-24 61v512q0 36 24 61t60 25h256l86 -86h342z" />
    <glyph glyph-name="uniE307" unicode="&#xe307;" 
d="M42 513q97 0 182 -37q86 -37 150 -101t101 -149q37 -86 37 -183h-86q0 79 -30 149t-82.5 122t-122.5 82q-69 31 -149 31v86zM42 341q62 0 117 -24q55 -23 95.5 -63t63.5 -95q24 -54 24 -116h-86q0 44 -17 83t-46 68t-68 46t-83 17v84zM42 171q52 0 90 -38t38 -90h-128
v128zM896 811q34 0 60 -26t26 -60v-596q0 -35 -25.5 -60.5t-60.5 -25.5h-298v86h298v596h-768v-128h-86v128q0 34 25.5 60t60.5 26h768z" />
    <glyph glyph-name="uniE308" unicode="&#xe308;" 
d="M896 811q34 0 60 -26t26 -60v-596q0 -35 -25.5 -60.5t-60.5 -25.5h-298v86h298v596h-768v-128h-86v128q0 34 25.5 60t60.5 26h768zM42 513q97 0 182 -37q86 -37 150 -101t101 -149q37 -86 37 -183h-86q0 79 -30 149t-82.5 122t-122.5 82q-69 31 -149 31v86zM810 641v-428
h-240q-20 63 -55 119q-34 56 -80 102.5t-102 81.5q-56 34 -119 55v70h596zM42 341q62 0 117 -24q55 -23 95.5 -63t63.5 -95q24 -54 24 -116h-86q0 44 -17 83t-46 68t-68 46t-83 17v84zM42 171q52 0 90 -38t38 -90h-128v128z" />
    <glyph glyph-name="uniE30D" unicode="&#xe30d;" 
d="M512 469h170v-256h-170v256zM256 641h214v-214h-214v214zM512 641h170v-128h-170v128zM256 385h214v-172h-214v172zM768 129v596h-598v-596h598zM938 555h-84v-86h84v-84h-84v-86h84v-86h-84v-84q0 -35 -25.5 -60.5t-60.5 -25.5h-598q-34 0 -59 25.5t-25 60.5v596
q0 34 24.5 60t59.5 26h598q34 0 60 -26t26 -60v-84h84v-86z" />
    <glyph glyph-name="uniE317" unicode="&#xe317;" 
d="M896 469v-84h-604l152 -154l-60 -60l-256 256l256 256l60 -60l-152 -154h604z" />
    <glyph glyph-name="uniE31A" unicode="&#xe31a;" 
d="M512 -43l-170 172h340zM810 597v86h-84v-86h84zM810 469v86h-84v-86h84zM682 597v86h-84v-86h84zM682 469v86h-84v-86h84zM682 299v86h-340v-86h340zM298 597v86h-84v-86h84zM298 469v86h-84v-86h84zM342 555v-86h84v86h-84zM342 683v-86h84v86h-84zM470 555v-86h84v86
h-84zM470 683v-86h84v86h-84zM854 811q34 0 59 -26t25 -60v-426q0 -35 -24.5 -60.5t-59.5 -25.5h-684q-34 0 -59 25.5t-25 60.5v426q0 34 24.5 60t59.5 26h684z" />
    <glyph glyph-name="uniE31C" unicode="&#xe31c;" 
d="M854 683h84v-512h-84v512zM494 623l60 60l256 -256l-256 -256l-60 60l154 154h-606v84h606z" />
    <glyph glyph-name="uniE334" unicode="&#xe334;" 
d="M256 427q0 -54 20 -100q20 -47 54.5 -81.5t81.5 -54.5t100 -20t100 20t81.5 54.5t54.5 81.5q20 46 20 100q0 53 -20 100q-20 46 -54.5 81t-81.5 55t-100 20t-100 -20t-81.5 -55t-54.5 -81q-20 -47 -20 -100zM854 427q0 -81 -35.5 -151.5t-94.5 -116.5l-42 -244h-340
l-42 244q-60 46 -95 116.5t-35 151.5t35 151t95 117l42 244h340l42 -244q58 -47 94 -117t36 -151z" />
    <glyph glyph-name="uniE337" unicode="&#xe337;" 
d="M896 171v342h-170v-342h170zM938 597q16 0 30 -13t14 -29v-426q0 -17 -13.5 -30.5t-30.5 -13.5h-256q-16 0 -29 13.5t-13 30.5v426q0 16 12.5 29t29.5 13h256zM470 193q27 0 45.5 18.5t18.5 45.5t-18.5 45.5t-45.5 18.5t-45.5 -18.5t-18.5 -45.5t18.5 -45.5t45.5 -18.5z
M554 427v-76q19 -18 31.5 -42t12.5 -52q0 -29 -12 -53.5t-32 -42.5v-76h-170v76q-19 18 -30.5 42.5t-11.5 53.5q0 28 11 52t31 42v76h170zM128 683v-512h170v-86h-170q-34 0 -60 25.5t-26 60.5v512q0 34 25.5 60t60.5 26h768v-86h-768z" />
    <glyph glyph-name="uniE3B1" unicode="&#xe3b1;" 
d="M298 853v-448q0 27 23 47q24 20 57 33.5t70 20.5t64 7t64 -7t70 -20.5t57 -33.5q23 -20 23 -47v448h-428zM726 939q34 0 59 -26t25 -60v-596q0 -35 -24.5 -60.5t-59.5 -25.5h-300l128 -128l-128 -128v86h-212v84h212v86h-128q-34 0 -59 25.5t-25 60.5v596q0 34 24.5 60
t59.5 26h428zM512 597q-34 0 -59 25.5t-25 60.5q0 34 24.5 60t59.5 26q34 0 60 -26t26 -60q0 -35 -25.5 -60.5t-60.5 -25.5zM598 85h212v-84h-212v84z" />
    <glyph glyph-name="uniE3B2" unicode="&#xe3b2;" 
d="M512 683q34 0 59 25.5t25 60.5q0 34 -24.5 59t-59.5 25q-34 0 -60 -25t-26 -59q0 -35 25 -60.5t61 -25.5zM726 939q34 0 59 -26t25 -60v-596q0 -35 -24.5 -60.5t-59.5 -25.5h-300l128 -128l-128 -128v86h-212v84h212v86h-128q-34 0 -59 25.5t-25 60.5v596q0 34 24.5 60
t59.5 26h428zM598 85h212v-84h-212v84z" />
    <glyph glyph-name="uniE3E5" unicode="&#xe3e5;" 
d="M718 613h100l-50 156zM810 853l138 -384h-82l-30 86h-136l-30 -86h-82l138 384h84zM128 853h426l-170 -384h170l-298 -512v384h-128v512z" />
    <glyph glyph-name="uniE3E6" unicode="&#xe3e6;" 
d="M726 513l-66 -114l-362 362v92h428l-172 -340h172zM140 811l670 -672l-54 -54l-176 178l-154 -262v384h-128v158l-212 214z" />
    <glyph glyph-name="uniE3E7" unicode="&#xe3e7;" 
d="M298 853h428l-172 -340h172l-300 -512v384h-128v468z" />
    <glyph glyph-name="uniE3ED" unicode="&#xe3ed;" 
d="M106 833q102 -102 203 -204q102 -101 204.5 -202.5t204.5 -203.5l204 -202l-48 -46l-324 324h-144v146l-64 64v-210h-64v106h-86v-106h-64v256h64v-86h86v86h16l-234 234zM554 491h-16l-64 64h80q25 0 44.5 -19.5t19.5 -44.5v-82l-64 64v18zM746 491v-42h86v42h-86z
M746 299h-16l-48 46v210h150q25 0 44.5 -19.5t19.5 -44.5v-42q0 -20 -10.5 -37t-27.5 -23l38 -90h-64l-38 86h-48v-86z" />
    <glyph glyph-name="uniE3EE" unicode="&#xe3ee;" 
d="M554 363v128h-84v-128h84zM554 555q25 0 44.5 -19.5t19.5 -44.5v-128q0 -26 -19 -45t-45 -19h-148v256h148zM278 469v86h64v-256h-64v106h-86v-106h-64v256h64v-86h86zM832 449v42h-86v-42h86zM896 449q0 -20 -10.5 -35.5t-27.5 -24.5l38 -90h-64l-38 86h-48v-86h-64v256
h150q25 0 44.5 -19.5t19.5 -44.5v-42z" />
    <glyph glyph-name="uniE412" unicode="&#xe412;" 
d="M512 213q44 0 83 17q39 16 68 45t46 68t17 84q0 44 -17 83t-46 68t-68 46t-83 17t-83 -17t-68 -46t-46 -68t-17 -83q0 -45 17 -84t46 -68t68 -45q39 -17 83 -17zM384 853h256l78 -84h136q34 0 59 -26t25 -60v-512q0 -35 -24.5 -60.5t-59.5 -25.5h-684q-34 0 -59 25.5
t-25 60.5v512q0 34 24.5 60t59.5 26h136zM376 427q0 57 39.5 96.5t96.5 39.5t96.5 -39.5t39.5 -96.5t-39.5 -96.5t-96.5 -39.5t-96.5 39.5t-39.5 96.5z" />
    <glyph glyph-name="uniE439" unicode="&#xe439;" 
d="M418 341q0 57 39.5 97.5t96.5 40.5t97.5 -40.5t40.5 -97.5t-40.5 -96.5t-97.5 -39.5t-96.5 39.5t-39.5 96.5zM554 129q44 0 83 16q39 17 68 45.5t46 67.5q17 38 17 83q0 44 -17 83t-46 68t-68 46t-83 17t-83 -17t-67.5 -46t-44.5 -68q-17 -39 -17 -83q0 -45 17 -83
q16 -39 44.5 -67.5t67.5 -45.5q39 -16 83 -16zM256 513v128h128v128h298l78 -86h136q34 0 60 -26t26 -60v-512q0 -35 -25.5 -59.5t-60.5 -24.5h-682q-34 0 -60 24.5t-26 59.5v428h128zM128 769v128h86v-128h128v-86h-128v-128h-86v128h-128v86h128z" />
    <glyph glyph-name="uniE52D" unicode="&#xe52d;" 
d="M426 257l384 384l-60 60l-324 -324l-152 152l-60 -60zM810 897q34 0 60 -26t26 -60v-552q0 -23 -10.5 -40.5t-27.5 -29.5l-346 -232l-346 232q-16 12 -27 29.5t-11 40.5v552q0 34 25.5 60t60.5 26h596z" />
    <glyph glyph-name="uniE55D" unicode="&#xe55d;" 
d="M512 853l320 -780l-30 -30l-290 128l-290 -128l-30 30z" />
    <glyph glyph-name="uniE561" unicode="&#xe561;" 
d="M634 447l-62 -62l294 -294l-60 -60l-294 294l-294 -294l-60 60l416 416q-22 49 -6.5 112t66.5 114q61 61 137 70.5t123 -36.5q46 -47 37 -124t-71 -138q-51 -51 -113.5 -66t-112.5 8zM346 369l-180 180q-49 49 -49 119.5t49 120.5l300 -298z" />
    <glyph glyph-name="uniE569" unicode="&#xe569;" 
d="M896 811l-322 -768h-42l-112 292l-292 112v42z" />
    <glyph glyph-name="uniE56D" unicode="&#xe56d;" 
d="M342 171l170 298h-86v214l-170 -320h86v-192zM768 513q18 0 30 12t12 30t-12 30t-30 12t-30 -12t-12 -30t12 -30t30 -12zM844 631q15 -15 22.5 -34.5t7.5 -41.5v-406q0 -44 -31 -75t-75 -31q-43 0 -74.5 31t-31.5 75v214h-64v-320h-428v682q0 34 25.5 60t60.5 26h256
q34 0 60 -26t26 -60v-298h42q34 0 60 -26t26 -60v-192q0 -18 12 -30t30 -12t30 12t12 30v308q-10 -5 -20 -6.5t-22 -1.5q-43 0 -74.5 31t-31.5 75q0 34 19 61t49 39l-90 90l46 44z" />
    <glyph glyph-name="uniE5C5" unicode="&#xe5c5;" 
d="M298 513h428l-214 -214z" />
    <glyph glyph-name="uniE5C7" unicode="&#xe5c7;" 
d="M298 341l214 214l214 -214h-428z" />
    <glyph glyph-name="uniE5D5" unicode="&#xe5d5;" 
d="M754 669l100 100v-300h-300l138 138q-34 34 -80.5 55t-99.5 21t-100 -20t-81.5 -55t-54.5 -81q-20 -47 -20 -100q0 -54 20 -100q20 -47 54.5 -81.5t81.5 -54.5t100 -20q42 0 80 12q39 13 70.5 35.5t55.5 53.5q23 31 36 69h88q-14 -56 -45 -103t-74.5 -81t-96.5 -53
q-54 -19 -114 -19q-70 0 -132 27t-108.5 73.5t-72.5 108.5q-27 62 -27 133q0 70 27 132q26 63 72.5 109.5t108.5 73.5q61 27 132 27q70 0 132.5 -27t109.5 -73z" />
    <glyph glyph-name="uniE600" unicode="&#xe600;" 
d="M321 22q-53 25 -97 62t-77 83.5t-54 101.5t-27 115h-64q8 -99 51 -184q43 -86 111.5 -149.5t157.5 -99.5t190 -36q7 0 14 0.5t14 0.5l-162 163zM359 300q-6 0 -12 1t-11 3t-9 4.5t-8 5.5q-3 3 -6 7t-5 9q-2 4 -3 9t-1 11h-55q0 -12 2 -22t7 -19q4 -9 10 -16t14 -13
q7 -6 16 -10.5t19 -7.5t20 -4.5t21 -1.5q12 0 23 1.5t21 4.5q10 4 19 8.5t17 10.5q7 7 13 14.5t10 16.5t6.5 19.5t2.5 22.5q0 6 -1 12l-2 12q-2 5 -4.5 10.5t-5.5 10.5t-7.5 10t-9.5 9q-6 4 -12.5 7t-13.5 6q6 3 11.5 6.5t10.5 7.5t9 8.5t7 9.5t5.5 9.5t4.5 10.5l2 10t1 10
q0 12 -2 22t-6 19q-3 9 -8.5 16t-12.5 13t-15.5 10.5t-18.5 7.5t-21 4.5t-23 1.5t-22.5 -1.5t-20.5 -4.5q-9 -4 -17.5 -8.5t-15.5 -10.5q-7 -7 -12.5 -14t-9.5 -15q-4 -9 -6 -18t-2 -19h55q0 6 1 10.5t3 9.5q2 4 5 7.5t6 6.5t7 5.5t9 4.5l10 2t10 1q13 0 22.5 -3.5
t15.5 -9.5q7 -7 10 -16t3 -21q0 -6 -1 -11t-3 -10q-1 -5 -4 -9t-6 -7q-4 -3 -8 -5.5t-10 -4.5q-5 -2 -11 -3t-13 -1h-33v-44h33q7 0 13 -0.5t12 -2.5t10.5 -4.5t8.5 -5.5t7 -7.5t6 -9.5q2 -5 3 -11t1 -14q0 -12 -4 -22t-11 -17t-17 -10.5t-23 -3.5v0zM724 553
q-10 11 -22.5 19t-26.5 14t-29.5 8.5t-32.5 2.5h-101v-341h98q18 0 34 3t30 9q15 5 27.5 13.5t22.5 18.5q10 11 18 23.5t13 27.5q6 15 9 32t3 35v17q0 19 -3 35.5t-9 31.5q-5 15 -13 28t-18 23v0zM707 418q0 -13 -1.5 -25.5t-4.5 -22.5q-3 -11 -7.5 -20t-10.5 -16t-14 -13
t-17 -10t-19.5 -6t-22.5 -2h-39v247h42q23 0 40.5 -7.5t29.5 -22.5q12 -14 18 -35.5t6 -49.5v-17v0zM512 939q-7 0 -14 -0.5t-14 -1.5l162 -163l57 57q52 -25 97 -62q44 -37 77 -83.5t54 -101.5t27 -115h64q-8 99 -51 185q-43 85 -111.5 148.5t-157.5 99.5q-89 37 -190 37v0
z" />
    <glyph glyph-name="uniE601" unicode="&#xe601;" 
d="M939 695l-196 164l-55 -65l196 -165zM336 794l-55 65l-196 -164l55 -65zM533 597h-64v-256l203 -121l32 52l-171 101v224v0zM512 768q-80 0 -150 -30t-122 -82.5t-82 -122.5q-30 -69 -30 -149t30 -149q30 -70 82 -122.5t122 -82.5t150 -30q79 0 149 30t122.5 82.5
t82.5 122.5q30 69 30 149t-30 149q-30 70 -82.5 122.5t-122.5 82.5t-149 30zM512 85q-62 0 -116 24q-55 23 -95.5 63.5t-63.5 95.5q-24 54 -24 116t24 116q23 55 63.5 95.5t95.5 63.5q54 24 116 24t116 -24q55 -23 95.5 -63.5t63.5 -95.5q24 -54 24 -116t-24 -116
q-23 -55 -63.5 -95.5t-95.5 -63.5q-54 -24 -116 -24v0z" />
    <glyph glyph-name="uniE602" unicode="&#xe602;" 
d="M939 695l-196 164l-55 -65l196 -165zM336 794l-55 65l-196 -164l55 -65zM512 768q-80 0 -150 -30t-122 -82.5t-82 -122.5q-30 -69 -30 -149t30 -149q30 -70 82 -122.5t122 -82.5t150 -30q79 0 149 30t122.5 82.5t82.5 122.5q30 69 30 149t-30 149q-30 70 -82.5 122.5
t-122.5 82.5t-149 30zM512 85q-62 0 -116 24q-55 23 -95.5 63.5t-63.5 95.5q-24 54 -24 116t24 116q23 55 63.5 95.5t95.5 63.5q54 24 116 24t116 -24q55 -23 95.5 -63.5t63.5 -95.5q24 -54 24 -116t-24 -116q-23 -55 -63.5 -95.5t-95.5 -63.5q-54 -24 -116 -24v0zM449 319
l-90 90l-45 -45l135 -136l257 257l-46 45l-211 -211v0z" />
    <glyph glyph-name="uniE603" unicode="&#xe603;" 
d="M512 28l-62 56q-82 75 -150 138q-67 64 -114.5 122.5t-74.5 114.5q-26 57 -26 117q0 49 18 92q19 43 50.5 74.5t74.5 50.5q43 18 92 18q56 0 106.5 -24t85.5 -65q35 41 85.5 65t106.5 24q49 0 92 -18q43 -19 74.5 -50.5t50.5 -74.5q18 -43 18 -92q0 -60 -26 -117
q-27 -56 -74.5 -114.5t-114.5 -122.5q-68 -63 -150 -138l-62 -56v0z" />
    <glyph glyph-name="uniE604" unicode="&#xe604;" 
d="M853 277q-40 0 -78 6.5t-74 18.5q-11 3 -22.5 0.5t-20.5 -11.5l-94 -94q-46 23 -86 53q-41 30 -77 65.5t-65 76.5q-30 41 -53 86l94 94q8 9 11 21t-1 23q-12 36 -18 74t-6 78q0 18 -12.5 30.5t-30.5 12.5h-149q-18 0 -30.5 -12.5t-12.5 -30.5q0 -150 57 -282
t155.5 -230.5t230.5 -155.5t282 -57q18 0 30.5 12.5t12.5 29.5v150q0 17 -12.5 29.5t-30.5 12.5v0zM512 811v-427l128 128h256v299h-384z" />
    <glyph glyph-name="uniE605" unicode="&#xe605;" 
d="M811 597h-598q-53 0 -90.5 -37.5t-37.5 -90.5v-256h171v-170h512v170h171v256q0 53 -37.5 90.5t-90.5 37.5v0zM683 128h-342v213h342v-213zM811 427q-18 0 -30.5 12.5t-12.5 29.5q0 18 12.5 30.5t30.5 12.5q17 0 29.5 -12.5t12.5 -30.5q0 -17 -12.5 -29.5t-29.5 -12.5z
M768 811h-512v-171h512v171v0z" />
    <glyph glyph-name="uniE606" unicode="&#xe606;" 
d="M469 -85h86v85h-86v-85v0zM299 -85h85v85h-85v-85v0zM640 -85h85v85h-85v-85zM755 695l-243 244h-43v-324l-195 196l-61 -61l239 -238l-239 -238l61 -61l195 196v-324h43l243 244l-183 183l183 183v0zM555 775l80 -80l-80 -80v160zM635 329l-80 -80v160z" />
    <glyph glyph-name="uniE607" unicode="&#xe607;" 
d="M332 650l-66 55l-231 -278l231 -279l66 55l-186 224zM299 384h85v85h-85v-85v0zM725 469h-85v-85h85v85v0zM469 384h86v85h-86v-85v0zM758 705l-66 -55l186 -223l-186 -224l66 -54l231 278l-231 278v0z" />
    <glyph glyph-name="uniE608" unicode="&#xe608;" 
d="M555 555h-86v-86h86v86zM725 555h-85v-86h85v86zM853 277q-40 0 -78 6.5t-74 18.5q-11 3 -22.5 0.5t-20.5 -11.5l-94 -94q-46 23 -86 53q-41 30 -77 65.5t-65 76.5q-30 41 -53 86l94 94q8 9 11 20.5t-1 22.5q-12 36 -18 74.5t-6 78.5q0 18 -12.5 30.5t-30.5 12.5h-149
q-18 0 -30.5 -12.5t-12.5 -30.5q0 -150 57 -282t155.5 -230.5t230.5 -155.5t282 -57q18 0 30.5 12.5t12.5 29.5v150q0 17 -12.5 29.5t-30.5 12.5v0zM811 555v-86h85v86h-85z" />
    <glyph glyph-name="uniE609" unicode="&#xe609;" 
d="M299 -85h85v85h-85v-85v0zM469 -85h86v85h-86v-85v0zM555 853h-86v-426h86v426zM707 749l-62 -61q55 -34 89 -91.5t34 -127.5q0 -53 -20 -99q-20 -47 -55 -81.5t-81 -55.5q-47 -20 -100 -20t-100 20q-46 21 -81 55.5t-55 81.5q-20 46 -20 99q0 70 34 127.5t89 91.5
l-62 61q-33 -23 -60 -53t-46 -66t-30 -77q-10 -40 -10 -84q0 -70 26 -133q27 -62 73.5 -108t108.5 -73t133 -27t133 27t108.5 73t73.5 108q26 63 26 133q0 44 -10 84q-11 41 -30 77t-46 66t-60 53v0zM640 -85h85v85h-85v-85z" />
    <glyph glyph-name="uniE60A" unicode="&#xe60a;" 
d="M299 -85h85v85h-85v-85v0zM512 384q53 0 90.5 37.5t37.5 90.5v256q0 53 -37.5 90.5t-90.5 37.5t-90.5 -37.5t-37.5 -90.5v-256q0 -53 37.5 -90.5t90.5 -37.5zM469 -85h86v85h-86v-85v0zM640 -85h85v85h-85v-85zM811 512h-73q0 -48 -19 -88q-18 -40 -49.5 -69t-72.5 -45
t-85 -16t-85 16t-72.5 45t-49.5 69q-19 40 -19 88h-73q0 -55 21 -103q20 -49 55 -87t81 -64q47 -25 99 -33v-140h86v140q52 8 99 33q46 26 81 64t55 87q21 48 21 103v0z" />
    <glyph glyph-name="uniE60B" unicode="&#xe60b;" 
d="M734 555l-187 279q-6 10 -15.5 14t-19.5 4t-19.5 -4.5t-15.5 -13.5l-187 -279h-205q-17 0 -29.5 -12.5t-12.5 -30.5q0 -3 0.5 -6t0.5 -6l108 -395q8 -27 30.5 -44.5t52.5 -17.5h554q30 0 52.5 17.5t29.5 44.5l109 396q0 2 0.5 5t0.5 6q0 18 -12.5 30.5t-29.5 12.5h-205v0
zM384 555l128 187l128 -187h-256zM512 213q-35 0 -60 25t-25 61q0 35 25 60t60 25t60 -25t25 -60q0 -36 -25 -61t-60 -25z" />
    <glyph glyph-name="uniE60C" unicode="&#xe60c;" 
d="M512 558q-63 0 -118 -23.5t-96 -65.5l60 -60q30 30 69.5 47t84.5 17t84.5 -17t69.5 -47l60 60q-41 42 -96 65.5t-118 23.5v0zM512 381q-26 0 -45 -19t-19 -45q0 -27 19 -45.5t45 -18.5t45 18.5t19 45.5q0 26 -19 45t-45 19z" />
    <glyph glyph-name="uniE60D" unicode="&#xe60d;" 
d="M298 387l60 -60q30 30 69.5 47t84.5 17t84.5 -17t69.5 -47l60 60q-41 42 -96 65.5t-118 23.5t-118 -23.5t-96 -65.5v0zM512 671q-52 0 -100 -10q-49 -10 -93.5 -29t-84.5 -46t-74 -61l61 -60q28 28 61 50t70 38t77 24q40 9 83 9t83 -9q40 -8 77 -24t70 -38t61 -50l61 60
q-34 34 -74 61t-84.5 46t-93.5 29q-48 10 -100 10v0zM512 299q-26 0 -45 -19t-19 -45q0 -27 19 -45.5t45 -18.5t45 18.5t19 45.5q0 26 -19 45t-45 19z" />
    <glyph glyph-name="uniE60E" unicode="&#xe60e;" 
d="M725 811h-42v-214h42v214zM640 725h-85v43h85v43h-128v-128h85v-43h-85v-43h128v128zM768 811v-214h43v86h85v128h-128zM853 725h-42v43h42v-43zM853 277q-40 0 -78 6.5t-74 18.5q-11 3 -22.5 0.5t-20.5 -11.5l-94 -94q-45 23 -86 53t-77 65.5t-65 76.5q-30 41 -53 86
l94 94q8 9 11 20.5t-1 22.5q-12 36 -18 74.5t-6 78.5q0 18 -12.5 30.5t-30.5 12.5h-149q-18 0 -30.5 -12.5t-12.5 -30.5q0 -150 57 -282t155.5 -230.5t230.5 -155.5t282 -57q18 0 30.5 12.5t12.5 29.5v150q0 17 -12.5 29.5t-30.5 12.5v0z" />
    <glyph glyph-name="uniE60F" unicode="&#xe60f;" 
d="M512 128q-35 0 -60 -25t-25 -60q0 -36 25 -61t60 -25t60 25t25 61q0 35 -25 60t-60 25zM256 896q-35 0 -60 -25t-25 -60q0 -36 25 -61t60 -25t60 25t25 61q0 35 -25 60t-60 25v0zM256 640q-35 0 -60 -25t-25 -60q0 -36 25 -61t60 -25t60 25t25 61q0 35 -25 60t-60 25v0z
M256 384q-35 0 -60 -25t-25 -60q0 -36 25 -61t60 -25t60 25t25 61q0 35 -25 60t-60 25v0zM768 725q35 0 60 25t25 61q0 35 -25 60t-60 25t-60 -25t-25 -60q0 -36 25 -61t60 -25zM512 384q-35 0 -60 -25t-25 -60q0 -36 25 -61t60 -25t60 25t25 61q0 35 -25 60t-60 25z
M768 384q-35 0 -60 -25t-25 -60q0 -36 25 -61t60 -25t60 25t25 61q0 35 -25 60t-60 25zM768 640q-35 0 -60 -25t-25 -60q0 -36 25 -61t60 -25t60 25t25 61q0 35 -25 60t-60 25v0zM512 640q-35 0 -60 -25t-25 -60q0 -36 25 -61t60 -25t60 25t25 61q0 35 -25 60t-60 25v0z
M512 896q-35 0 -60 -25t-25 -60q0 -36 25 -61t60 -25t60 25t25 61q0 35 -25 60t-60 25z" />
    <glyph glyph-name="uniE610" unicode="&#xe610;" 
d="M939 811h-854q-35 0 -60 -25t-25 -61v-597q0 -35 25 -60t60 -25h854q35 0 60 25t25 60v597q0 36 -25 61t-60 25v0zM341 683q53 0 90.5 -37.5t37.5 -90.5t-37.5 -90.5t-90.5 -37.5t-90.5 37.5t-37.5 90.5t37.5 90.5t90.5 37.5zM597 171h-512v42q0 32 28 57t68 41.5
t84 25.5t76 9t76 -9t84 -25.5t68 -41.5t28 -57v-42v0zM762 341h70l64 -85l-85 -85q-42 31 -72 74.5t-45 95.5q-5 21 -8 42t-3 44q0 22 3 43.5t9 41.5q14 52 44 95.5t72 74.5l85 -85l-64 -85h-70q-7 -20 -11 -41.5t-4 -43.5q0 -23 3.5 -44.5t11.5 -41.5v0z" />
    <glyph glyph-name="uniE611" unicode="&#xe611;" 
d="M896 597v43l-128 -85l-128 85v-43l128 -85zM939 811h-854q-35 0 -60 -25t-25 -61v-597q0 -35 25 -60t60 -25h854q35 0 60 25t25 60v597q0 36 -25 61t-60 25v0zM341 683q53 0 90.5 -37.5t37.5 -90.5t-37.5 -90.5t-90.5 -37.5t-90.5 37.5t-37.5 90.5t37.5 90.5t90.5 37.5z
M597 171h-512v42q0 32 28 57t68 41.5t84 25.5t76 9t76 -9t84 -25.5t68 -41.5t28 -57v-42v0zM939 427h-342v256h342v-256v0z" />
    <glyph glyph-name="uniE612" unicode="&#xe612;" 
d="M1011 227q-48 47 -105 84t-120.5 62.5t-132.5 39.5q-68 14 -141 14t-141 -14q-69 -14 -132.5 -39.5t-120.5 -62.5t-105 -84q-6 -5 -9.5 -13t-3.5 -17t3.5 -16.5t9.5 -13.5l105 -106q6 -5 13.5 -8.5t16.5 -3.5t16.5 3t13.5 9q26 24 54.5 43.5t59.5 35.5q10 5 17 15.5
t7 22.5v133q46 15 95.5 22.5t100.5 7.5t100.5 -7.5t95.5 -22.5v-133q0 -13 7 -23t17 -15q31 -16 60 -36t54 -43q6 -6 13.5 -9t16.5 -3t16.5 3t13.5 9l106 106q5 6 8.5 13.5t3.5 16.5t-3.5 17t-9.5 13v0zM903 672l-61 60l-151 -152l60 -60l23 23q23 24 51 52.5t52 51.5
q24 24 26 25zM555 853h-86v-213h86v213zM273 520l60 60l-151 152l-61 -60q2 -1 26 -25q24 -23 52 -51.5t51 -52.5z" />
    <glyph glyph-name="uniE613" unicode="&#xe613;" 
d="M789 683q-48 0 -91 -19q-43 -18 -74.5 -50t-50.5 -75q-18 -42 -18 -91q0 -43 14 -81t39 -68h-192q25 30 39 68t14 81q0 49 -18 91q-19 43 -50.5 75t-74.5 50q-43 19 -92 19q-48 0 -91 -19q-43 -18 -74.5 -50t-50.5 -75q-18 -42 -18 -91t18 -91q19 -43 51 -75t74 -50
q43 -19 92 -19h554q49 0 92 19q42 18 74 50t51 75q18 42 18 91t-18 91q-19 43 -51 75t-74 50q-43 19 -92 19v0zM235 299q-62 0 -106 43.5t-44 105.5t44 105.5t106 43.5t105.5 -43.5t43.5 -105.5t-43.5 -105.5t-105.5 -43.5zM789 299q-62 0 -105.5 43.5t-43.5 105.5
t43.5 105.5t105.5 43.5t106 -43.5t44 -105.5t-44 -105.5t-106 -43.5z" />
    <glyph glyph-name="uniE614" unicode="&#xe614;" 
d="M938 597q0 23 -11 42.5t-29 30.5l-386 226l-386 -226q-18 -11 -29.5 -30.5t-11.5 -42.5v-426q0 -36 25 -61t61 -25h682q36 0 61 25t25 61zM512 384l-352 220l352 207l352 -207z" />
    <glyph glyph-name="uniE615" unicode="&#xe615;" 
d="M853 768h-682q-36 0 -60.5 -25t-24.5 -60l-1 -512q0 -36 25 -61t61 -25h682q36 0 61 25t25 61v512q0 35 -25 60t-61 25v0zM853 597l-341 -213l-341 213v86l341 -214l341 214v-86z" />
    <glyph glyph-name="uniE616" unicode="&#xe616;" 
d="M299 171h85v512h-85v-512v0zM469 0h86v853h-86v-853v0zM128 341h85v171h-85v-171zM640 171h85v512h-85v-512zM811 512v-171h85v171h-85v0z" />
    <glyph glyph-name="uniE617" unicode="&#xe617;" 
d="M555 384v-341h341v341h-341v0zM128 43h341v341h-341v-341zM128 811v-342h341v342h-341zM711 867l-242 -242l242 -241l241 241z" />
    <glyph glyph-name="uniE618" unicode="&#xe618;" 
d="M512 896l-384 -171v-256q0 -89 29 -172q29 -84 80.5 -152.5t121.5 -117.5t153 -70q83 21 153 70t121.5 117.5t80.5 152.5q29 83 29 172v256l-384 171v0zM512 427h299q-9 -66 -34 -127q-26 -61 -65 -111.5t-89 -87.5q-51 -37 -111 -55v381h-299v243l299 133v-376v0z" />
    <glyph glyph-name="uniE619" unicode="&#xe619;" 
d="M512 811q-80 0 -149 -31q-70 -30 -122.5 -82t-82.5 -122t-30 -149q0 -80 30 -150t82.5 -122t122.5 -82q69 -30 149 -30q27 0 45.5 18.5t18.5 45.5q0 12 -4.5 23t-12.5 20q-7 8 -11.5 19t-4.5 23q0 27 19 45.5t45 18.5h76q44 0 83 17t67.5 45.5t45.5 67.5t17 83
q0 71 -30 133t-82.5 108.5t-122.5 73.5q-69 27 -149 27v0zM277 427q-26 0 -45 18.5t-19 45.5q0 26 19 45t45 19q27 0 45.5 -19t18.5 -45q0 -27 -18.5 -45.5t-45.5 -18.5zM405 597q-26 0 -45 19t-19 45q0 27 19 45.5t45 18.5q27 0 45.5 -18.5t18.5 -45.5q0 -26 -18.5 -45
t-45.5 -19zM619 597q-27 0 -45.5 19t-18.5 45q0 27 18.5 45.5t45.5 18.5q26 0 45 -18.5t19 -45.5q0 -26 -19 -45t-45 -19zM747 427q-27 0 -45.5 18.5t-18.5 45.5q0 26 18.5 45t45.5 19q26 0 45 -19t19 -45q0 -27 -19 -45.5t-45 -18.5z" />
    <glyph glyph-name="uniE61A" unicode="&#xe61a;" 
d="M845 299l51 40l-61 60l-51 -39zM826 500l70 55l-384 298l-124 -96l336 -336zM140 896l-55 -54l180 -180l-137 -107l70 -54l314 -245l89 70l61 -61l-150 -117l-315 244l-69 -53l384 -299l211 164l161 -161l55 54l-799 799v0z" />
    <glyph glyph-name="uniE61B" unicode="&#xe61b;" 
d="M512 0q80 0 149 30q70 30 122.5 82.5t82.5 122.5q30 69 30 149q-80 0 -149 -30q-70 -30 -122.5 -82.5t-82.5 -122.5q-30 -69 -30 -149zM239 501q0 -44 31.5 -75t75.5 -31q17 0 32 5t28 13l-1 -8q0 -44 31.5 -75t75.5 -31t75.5 31t31.5 75l-1 8q13 -9 28 -13.5t32 -4.5
q44 0 75.5 31t31.5 75q0 32 -17 58t-44 38q27 13 44 38.5t17 57.5q0 44 -31.5 75.5t-75.5 31.5q-17 0 -32 -5t-28 -14l1 8q0 44 -31.5 75.5t-75.5 31.5t-75.5 -31.5t-31.5 -75.5l1 -8q-13 9 -28 14t-32 5q-44 0 -75.5 -31.5t-31.5 -75.5q0 -32 17 -57.5t44 -38.5
q-27 -12 -44 -38t-17 -58v0zM512 704q44 0 75.5 -31.5t31.5 -75.5t-31.5 -75t-75.5 -31t-75.5 31t-31.5 75t31.5 75.5t75.5 31.5v0zM128 384q0 -80 30 -149q30 -70 82.5 -122.5t122.5 -82.5q69 -30 149 -30q0 80 -30 149q-30 70 -82.5 122.5t-122.5 82.5q-69 30 -149 30z
" />
    <glyph glyph-name="uniE61C" unicode="&#xe61c;" 
d="M844 630v1l-159 158l-45 -45l90 -90q-30 -11 -49.5 -38t-19.5 -61q0 -44 31.5 -75.5t75.5 -31.5q11 0 22 2.5t21 6.5v-308q0 -17 -12.5 -29.5t-30.5 -12.5t-30.5 12.5t-12.5 29.5v192q0 36 -25 61t-60 25h-43v298q0 36 -25 61t-60 25h-256q-35 0 -60 -25t-25 -61v-682
h426v320h64v-214q0 -44 31.5 -75t75.5 -31t75.5 31t31.5 75v406q0 22 -8.5 41.5t-22.5 33.5v0zM512 512h-256v213h256v-213zM768 512q-18 0 -30.5 12.5t-12.5 30.5q0 17 12.5 29.5t30.5 12.5t30.5 -12.5t12.5 -29.5q0 -18 -12.5 -30.5t-30.5 -12.5v0z" />
    <glyph glyph-name="uniE61D" unicode="&#xe61d;" 
d="M391 221q50 -50 121 -50t121 50q49 50 49 120.5t-49 120.5l-242 -241v0zM768 853h-512q-35 0 -60 -25t-25 -60v-683q0 -35 25 -60t60 -25h512q35 0 60 25t25 60v683q0 35 -25 60t-60 25v0zM427 768q17 0 29.5 -12.5t12.5 -30.5q0 -17 -12.5 -29.5t-29.5 -12.5
q-18 0 -30.5 12.5t-12.5 29.5q0 18 12.5 30.5t30.5 12.5v0zM299 768q17 0 29.5 -12.5t12.5 -30.5q0 -17 -12.5 -29.5t-29.5 -12.5q-18 0 -30.5 12.5t-12.5 29.5q0 18 12.5 30.5t30.5 12.5v0zM512 85q-53 0 -100 20q-46 21 -81 55.5t-55 81.5q-20 46 -20 99t20 100t55 81.5
t81 54.5q47 20 100 20t100 -20q46 -20 81 -54.5t55 -81.5t20 -100t-20 -99q-20 -47 -55 -81.5t-81 -55.5q-47 -20 -100 -20z" />
    <glyph glyph-name="uniE61E" unicode="&#xe61e;" 
d="M512 597q-71 0 -121 -50t-50 -120q0 -71 50 -121t121 -50t121 50t50 121q0 70 -50 120t-121 50zM893 469q-7 67 -36 126q-29 58 -74 103t-103 74q-59 29 -125 36v88h-86v-88q-66 -7 -125 -36q-58 -29 -103 -74t-74 -103q-29 -59 -36 -126h-88v-85h88q7 -67 36 -125
q29 -59 74 -104t103 -74q59 -28 125 -36v-88h86v88q66 8 125 36q58 29 103 74t74 104q29 58 36 125h88v85h-88v0zM512 128q-62 0 -116 23q-55 24 -95.5 64.5t-63.5 94.5q-24 55 -24 117t24 116q23 54 63.5 94.5t95.5 64.5q54 23 116 23t116 -23q55 -24 95.5 -64.5
t63.5 -94.5q24 -54 24 -116t-24 -117q-23 -54 -63.5 -94.5t-95.5 -64.5q-54 -23 -116 -23v0z" />
    <glyph glyph-name="uniE61F" unicode="&#xe61f;" 
d="M213 376v-170l299 -163l299 163v170l-299 -163l-299 163v0zM512 811l-469 -256l469 -256l384 209v-295h85v342l-469 256v0z" />
    <glyph glyph-name="uniE620" unicode="&#xe620;" 
d="M875 811q-2 0 -3.5 -0.5t-3.5 -0.5l-228 -89l-256 90l-240 -81q-7 -3 -11.5 -8.5t-4.5 -12.5v-645q0 -9 6.5 -15t14.5 -6h3.5t3.5 1l228 88l256 -89l241 81q6 2 10.5 7.5t4.5 12.5v645q0 9 -6.5 15.5t-14.5 6.5v0zM640 128l-256 90v507l256 -89v-508z" />
    <glyph glyph-name="uniE621" unicode="&#xe621;" 
d="M853 512h-128v49q56 14 92 59.5t36 104.5h-128v43q0 18 -12.5 30.5t-29.5 12.5h-342q-17 0 -29.5 -12.5t-12.5 -30.5v-43h-128q0 -59 36.5 -104.5t91.5 -59.5v-49h-128q0 -60 36.5 -105t91.5 -60v-48h-128q0 -60 36.5 -105.5t91.5 -59.5v-49q0 -17 12.5 -29.5t29.5 -12.5
h342q17 0 29.5 12.5t12.5 29.5v49q56 14 92 59.5t36 105.5h-128v48q56 15 92 60t36 105v0zM512 128q-35 0 -60 25t-25 60q0 36 25 61t60 25t60 -25t25 -61q0 -35 -25 -60t-60 -25zM512 341q-35 0 -60 25t-25 61q0 35 25 60t60 25t60 -25t25 -60q0 -36 -25 -61t-60 -25z
M512 555q-35 0 -60 25t-25 60t25 60t60 25t60 -25t25 -60t-25 -60t-60 -25z" />
    <glyph glyph-name="uniE622" unicode="&#xe622;" 
d="M427 668v89q-26 -7 -50 -17t-45 -24l62 -63l16 8t17 7v0zM122 708l101 -101q-25 -39 -38.5 -84.5t-13.5 -95.5q0 -71 27 -133t73 -108l-100 -101h256v256l-96 -95q-35 35 -55 81.5t-20 99.5q0 32 7.5 61.5t21.5 56.5l345 -345l-16 -8t-16 -7v-89q25 7 49 17.5t46 23.5
l100 -100l55 54l-672 671l-54 -54v0zM853 768h-256v-256l96 95q35 -34 55 -80.5t20 -99.5q0 -32 -7.5 -62t-21.5 -57l62 -62q25 39 38.5 85t13.5 96q0 70 -27 132t-73 109l100 100v0z" />
    <glyph glyph-name="uniE623" unicode="&#xe623;" 
d="M128 427q0 -71 27 -133t73 -108l-100 -101h256v256l-95 -95q-35 35 -55.5 81.5t-20.5 99.5q0 41 13 79t35.5 69.5t53.5 55.5q32 24 69 37v89q-55 -14 -102 -45t-81 -74.5t-54 -97.5q-19 -54 -19 -113v0zM469 213h86v86h-86v-86v0zM896 768h-256v-256l95 95
q35 -34 55.5 -80.5t20.5 -99.5q0 -42 -13 -80t-35.5 -69.5t-53.5 -55.5q-32 -23 -69 -36v-89q55 14 102 45t81 74.5t54 96.5q19 54 19 114q0 70 -27 132t-73 109l100 100v0zM469 384h86v256h-86v-256v0z" />
    <glyph glyph-name="uniE624" unicode="&#xe624;" 
d="M939 768v21q0 44 -31.5 75.5t-75.5 31.5t-75.5 -31.5t-31.5 -75.5v-21q-17 0 -29.5 -12.5t-12.5 -30.5v-170q0 -18 12.5 -30.5t29.5 -12.5h214q17 0 29.5 12.5t12.5 30.5v170q0 18 -12.5 30.5t-29.5 12.5v0zM905 768h-146v21q0 30 21.5 51.5t51.5 21.5t51.5 -21.5
t21.5 -51.5v-21v0zM807 427q2 -11 3 -21.5t1 -21.5q0 -67 -24 -126t-66 -104q-8 26 -30.5 42.5t-50.5 16.5h-43v128q0 18 -12.5 30.5t-29.5 12.5h-256v85h85q18 0 30.5 12.5t12.5 30.5v85h85q35 0 60 25t25 61v108q-30 10 -62 15t-66 5q-88 0 -166 -34q-78 -33 -135.5 -91
t-91.5 -136q-33 -78 -33 -166t33 -166q34 -78 91.5 -136t135.5 -91q78 -34 166 -34q89 0 166 34q78 33 136 91t91 136q34 78 34 166q0 11 -0.5 21.5t-1.5 21.5h-87v0zM427 46q-63 7 -118 37q-55 29 -95 74.5t-63 103.5t-23 123q0 20 2.5 39t6.5 37l204 -204v-43
q0 -35 25 -60t61 -25v-82v0z" />
    <glyph glyph-name="uniE625" unicode="&#xe625;" 
d="M512 853q-88 0 -166 -33q-78 -34 -136 -91.5t-91 -135.5q-34 -78 -34 -166q0 -89 34 -166q33 -78 91 -136t136 -91q78 -34 166 -34t166 34q78 33 136 91t91 136q34 77 34 166q0 88 -34 166q-33 78 -91 135.5t-136 91.5q-78 33 -166 33v0zM469 88q-63 8 -117 38
q-55 29 -95 74t-63 103t-23 124q0 19 2 38.5t7 37.5l204 -204v-43q0 -35 25 -60t60 -25v-83v0zM764 196q-9 26 -31 43t-50 17h-43v128q0 18 -12.5 30.5t-30.5 12.5h-256v85h86q17 0 29.5 12.5t12.5 30.5v85h86q35 0 60 25t25 60v18q47 -19 86 -51q39 -31 67.5 -72t44.5 -91
q15 -49 15 -102q0 -67 -24 -126t-65 -105v0z" />
    <glyph glyph-name="uniE626" unicode="&#xe626;" 
d="M755 610l-243 243h-43v-323l-195 195l-61 -60l239 -238l-239 -239l61 -60l195 196v-324h43l243 243l-183 184zM555 690l80 -80l-80 -80v160zM635 243l-80 -80v161z" />
    <glyph glyph-name="uniE627" unicode="&#xe627;" 
d="M299 427l-86 85l-85 -85l85 -86zM755 610l-243 243h-43v-323l-195 195l-61 -60l239 -238l-239 -239l61 -60l195 196v-324h43l243 243l-183 184zM555 690l80 -80l-80 -80v160zM635 243l-80 -80v161zM811 512l-86 -85l86 -86l85 86l-85 85v0z" />
    <glyph glyph-name="uniE628" unicode="&#xe628;" 
d="M555 686l80 -80l-68 -68l60 -61l129 129l-244 244h-43v-215l86 -85v136v0zM231 764l-60 -60l281 -281l-239 -238l61 -61l195 196v-324h43l183 184l98 -98l60 60l-622 622v0zM555 160v160l80 -80z" />
    <glyph glyph-name="uniE629" unicode="&#xe629;" 
d="M608 426l99 -99q9 23 13.5 48t4.5 52q0 26 -4.5 50.5t-13.5 47.5l-99 -99v0zM833 652l-54 -54q20 -38 31 -81.5t11 -90.5q0 -46 -11 -89.5t-31 -81.5l52 -51q30 49 47.5 106.5t17.5 119.5q0 61 -16.5 117.5t-46.5 104.5v0zM670 610l-243 243h-43v-323l-196 195l-60 -60
l238 -238l-238 -239l60 -60l196 196v-324h43l243 243l-183 184zM469 690l81 -80l-81 -80v160v0zM550 243l-81 -80v161z" />
    <glyph glyph-name="uniE62A" unicode="&#xe62a;" 
d="M463 399h98l-49 156l-49 -156v0zM853 568v200h-200l-141 141l-141 -141h-200v-200l-142 -141l142 -142v-200h200l141 -141l141 141h200v200l142 142l-142 141v0zM610 256l-30 85h-136l-30 -85h-81l136 384h86l136 -384h-81v0z" />
    <glyph glyph-name="uniE62B" unicode="&#xe62b;" 
d="M160 0v768l133 128h406l133 -128v-768h-672zM800 256v480h-608v-704h608v224zM768 512h-544v192h544v-192zM576 640h-160v-32h160v32zM768 288h-544v192h544v-192zM576 416h-160v-32h160v32zM768 64h-544v192h544v-192zM576 192h-160v-32h160v32z" />
    <glyph glyph-name="uniE62C" unicode="&#xe62c;" 
d="M864 32h-736q-27 0 -45.5 19t-18.5 45v384l28 -14q29 -14 74.5 -33.5t102.5 -39.5q58 -21 115 -34v-39q0 -13 9.5 -22.5t22.5 -9.5h160q13 0 22.5 9.5t9.5 22.5v39q57 13 115 34q57 20 102.5 39.5t74.5 33.5l28 14v-384q0 -26 -19 -45t-45 -19zM544 416q13 0 22.5 -9.5
t9.5 -22.5v-32q0 -13 -9.5 -22.5t-22.5 -9.5h-96q-13 0 -22.5 9.5t-9.5 22.5v32q0 13 9.5 22.5t22.5 9.5h96zM608 416q0 13 -9.5 22.5t-22.5 9.5h-160q-13 0 -22.5 -9.5t-9.5 -22.5v-29q-57 14 -115 35q-57 21 -102.5 41t-74.5 35l-28 14v128q0 26 18.5 45t45.5 19h192v64
q0 26 19 45t45 19h224q26 0 45 -19t19 -45v-64h192q26 0 45 -19t19 -45v-128l-28 -14q-29 -15 -74.5 -35t-102.5 -41q-58 -21 -115 -35v29zM608 736q0 13 -9.5 22.5t-22.5 9.5h-160q-13 0 -22.5 -9.5t-9.5 -22.5v-22.5v-9.5h224v9.5v22.5z" />
    <glyph glyph-name="uniE62D" unicode="&#xe62d;" 
d="M896 512h-22.5h-9.5v32q0 26 -19 45t-45 19h-640q-26 0 -45 -19t-19 -45v-224q0 -26 19 -45t45 -19h640q26 0 45 19t19 45v32h9.5h22.5t22.5 9.5t9.5 22.5v96q0 13 -9.5 22.5t-22.5 9.5zM832 320q0 -13 -9.5 -22.5t-22.5 -9.5h-640q-13 0 -22.5 9.5t-9.5 22.5v224
q0 13 9.5 22.5t22.5 9.5h640q13 0 22.5 -9.5t9.5 -22.5v-224zM160 320h192v224h-192v-224zM384 320h192v224h-192v-224zM608 320h192v224h-192v-224z" />
    <glyph glyph-name="uniE62E" unicode="&#xe62e;" 
d="M896 512h-22.5h-9.5v32q0 26 -19 45t-45 19h-640q-27 0 -45.5 -19t-18.5 -45v-224q0 -26 18.5 -45t45.5 -19h640q26 0 45 19t19 45v32h9.5h22.5t22.5 9.5t9.5 22.5v96q0 13 -9.5 22.5t-22.5 9.5zM832 320q0 -13 -9.5 -22.5t-22.5 -9.5h-640q-13 0 -22.5 9.5t-9.5 22.5
v224q0 13 9.5 22.5t22.5 9.5h640q13 0 22.5 -9.5t9.5 -22.5v-224zM160 320h192v224h-192v-224zM384 320h192v224h-192v-224z" />
    <glyph glyph-name="uniE62F" unicode="&#xe62f;" 
d="M896 512h-22.5h-9.5v32q0 26 -19 45t-45 19h-640q-27 0 -45.5 -19t-18.5 -45v-224q0 -26 18.5 -45t45.5 -19h640q26 0 45 19t19 45v32h9.5h22.5t22.5 9.5t9.5 22.5v96q0 13 -9.5 22.5t-22.5 9.5zM832 320q0 -13 -9.5 -22.5t-22.5 -9.5h-640q-13 0 -22.5 9.5t-9.5 22.5
v224q0 13 9.5 22.5t22.5 9.5h640q13 0 22.5 -9.5t9.5 -22.5v-224zM160 320h192v224h-192v-224z" />
    <glyph glyph-name="uniE630" unicode="&#xe630;" 
d="M896 352h-22.5h-9.5v-32q0 -26 -18.5 -45t-45.5 -19h-640q-27 0 -45.5 19t-18.5 45v224q0 26 18.5 45t45.5 19h640q27 0 45.5 -19t18.5 -45v-32h9.5h22.5t22.5 -9.5t9.5 -22.5v-96q0 -13 -9.5 -22.5t-22.5 -9.5zM832 544q0 13 -9.5 22.5t-22.5 9.5h-640q-13 0 -22.5 -9.5
t-9.5 -22.5v-224q0 -13 9.5 -22.5t22.5 -9.5h640q13 0 22.5 9.5t9.5 22.5v224z" />
    <glyph glyph-name="uniE631" unicode="&#xe631;" 
d="M608 32h-224q-27 0 -45.5 19t-18.5 45v608q0 27 18.5 45.5t45.5 18.5h34v1.5v14.5t8 30.5t21 17.5h96q13 0 22.5 -17.5t9.5 -30.5v-14.5v-1.5h33q27 0 45.5 -18.5t18.5 -45.5v-608q0 -26 -18.5 -45t-45.5 -19v0zM543 671h-32v31h-30v-31h-32v-32h32v-32h30v32h32v32z
M640 545h-288v-449q0 -13 9 -22.5t23 -9.5h224q13 0 22.5 9.5t9.5 22.5v449v0zM447 162h98v-34h-98v34z" />
    <glyph glyph-name="uniE632" unicode="&#xe632;" 
d="M889 706q23 -55 12 -116t-56 -107q-50 -49 -118 -57t-126 25l-57 -62l41 -40l24 24q9 9 22 9t22 -9l195 -197q9 -9 9 -22t-9 -22l-89 -89q-9 -9 -22.5 -9t-22.5 9l-194 197q-10 9 -10 22t10 22l22 22l-39 38l-269 -294q-18 -18 -44 -18t-45 18l-22 23q-18 18 -18 44
t18 44l307 257l-204 204h-64l-75 120l60 60l123 -75v-63l206 -207l60 51q-44 60 -39 135t59 129q45 45 105.5 56t116.5 -11l-132 -130l111 -111l132 130v0zM197 130q-9 9 -22 9t-23 -9q-9 -9 -9 -22t9 -22q10 -10 23 -10t22 10q9 9 9 22t-9 22z" />
    <glyph glyph-name="uniE633" unicode="&#xe633;" 
d="M512 853q-88 0 -166 -33q-77 -34 -135 -92t-92 -136q-34 -77 -34 -165t34 -166t92 -136t135 -91q78 -34 166 -34t166 34q77 33 135 91t92 136t34 166t-34 165q-34 78 -92 136t-135 92q-78 33 -166 33v0zM171 427q0 70 27 132t73 108.5t108 73.5q63 27 133 27
q59 0 112.5 -19.5t96.5 -53.5l-478 -477q-33 43 -52.5 96t-19.5 113v0zM512 85q-59 0 -112.5 19.5t-96.5 53.5l478 478q33 -43 52.5 -96.5t19.5 -112.5q0 -71 -27 -133t-73 -108.5t-108 -73.5q-63 -27 -133 -27v0z" />
    <glyph glyph-name="uniE634" unicode="&#xe634;" 
d="M298 259l60 -60q30 30 69.5 47t84.5 17t84.5 -17t69.5 -47l60 60q-41 42 -96 65.5t-118 23.5t-118 -23.5t-96 -65.5v0zM160 397l61 -60q28 28 61 50t70 38t77 24q40 9 83 9t83 -9q40 -8 77 -24t70 -38t61 -50l61 60q-34 34 -74 61t-84.5 46t-93.5 29q-48 10 -100 10
t-100 -10q-49 -10 -93.5 -29t-84.5 -46t-74 -61v0zM512 737q-72 0 -139 -14q-68 -14 -130 -40t-118 -64q-55 -37 -102 -84l60 -61q41 41 90 74t103.5 56t113.5 36q59 12 122 12t122 -12q59 -13 113.5 -36t103.5 -56t90 -74l60 61q-47 47 -102 84q-56 38 -118 64t-130 40
q-67 14 -139 14v0zM512 171q-26 0 -45 -19t-19 -45q0 -27 19 -45.5t45 -18.5t45 18.5t19 45.5q0 26 -19 45t-45 19z" />
    <glyph glyph-name="uniE635" unicode="&#xe635;" 
d="M981 128v597q0 36 -25 61t-60 25h-768q-35 0 -60 -25t-25 -61v-597q0 -35 25 -60t60 -25h768q35 0 60 25t25 60zM85 384v85h86v-85h-86zM213 128v597h683v-597h-683v0z" />
    <glyph glyph-name="uniE636" unicode="&#xe636;" 
d="M171 256h128v128h-128v-128v0zM213 341h43v-42h-43v42zM341 256h128v128h-128v-128zM384 341h43v-42h-43v42zM341 85h128v128h-128v-128zM384 171h43v-43h-43v43zM171 85h128v128h-128v-128v0zM213 171h43v-43h-43v43zM512 256h128v128h-128v-128zM555 341h42v-42h-42v42
zM427 512h42v43h-42v-43v0zM341 512h43v43h-43v-43v0zM171 427h682v384h-682v-384v0zM213 768h598v-299h-598v299v0zM853 939h-682q-53 0 -90.5 -37.5t-37.5 -90.5v-768q0 -53 37.5 -90.5t90.5 -37.5h682q53 0 90.5 37.5t37.5 90.5v768q0 53 -37.5 90.5t-90.5 37.5zM896 43
q0 -18 -12.5 -30.5t-30.5 -12.5h-682q-18 0 -30.5 12.5t-12.5 30.5v768q0 17 12.5 29.5t30.5 12.5h682q18 0 30.5 -12.5t12.5 -29.5v-768zM512 85h128v128h-128v-128zM555 171h42v-43h-42v43zM683 85h170v299h-170v-299v0zM725 341h86v-213h-86v213zM256 512h43v43h-43v-43
v0z" />
    <glyph glyph-name="uniE637" unicode="&#xe637;" 
d="M929 555q-18 0 -25.5 -25t-7.5 -61v-85q0 -35 7.5 -60t25.5 -25q17 0 24.5 25t7.5 60h63v85h-63q0 36 -7.5 61t-24.5 25v0zM768 683q-32 0 -37.5 -25t-5.5 -61v-128h-426v128q0 36 -5.5 61t-37.5 25q-35 0 -60 -25t-25 -61v-341q0 -35 25 -60t60 -25q32 0 37.5 25t5.5 60
v128h426v-128q0 -35 5.5 -60t37.5 -25q35 0 60 25t25 60v341q0 36 -25 61t-60 25zM95 555q18 0 25.5 -25t7.5 -61v-85q0 -35 -7.5 -60t-25.5 -25q-17 0 -24.5 25t-7.5 60h-63v85h63q0 36 7.5 61t24.5 25v0z" />
    <glyph glyph-name="uniE638" unicode="&#xe638;" 
d="M640 640v-171h43v-85h-128v341h85l-128 171l-128 -171h85v-341h-128v88q23 12 37.5 33.5t14.5 49.5q0 39 -27.5 66.5t-66.5 27.5t-66.5 -27.5t-27.5 -66.5q0 -28 14 -49.5t37 -33.5v-88q0 -35 25 -60t60 -25h128v-130q-22 -12 -36.5 -34t-14.5 -50q0 -39 27.5 -66.5
t66.5 -27.5t66.5 27.5t27.5 66.5q0 28 -14.5 50t-36.5 34v130h128q35 0 60 25t25 60v85h43v171h-171v0z" />
    <glyph glyph-name="uniE639" unicode="&#xe639;" 
d="M503 474q-72 18 -100 39.5t-28 51.5q0 35 30.5 57t85.5 22q57 0 80.5 -24.5t25.5 -64.5h95q-2 55 -36 100.5t-101 61.5v94h-128v-92q-62 -14 -106 -53.5t-44 -101.5q0 -73 56 -113.5t145 -62.5q80 -19 104 -46t24 -57q0 -22 -22 -49t-93 -27q-66 0 -95 26t-32 64h-95
q4 -70 50 -110t108 -54v-92h128v91q62 12 105.5 49t43.5 103q0 91 -64 130t-137 58v0z" />
    <glyph glyph-name="uniE63A" unicode="&#xe63a;" 
d="M683 384h-128v427h-86v-427h-128l171 -171l171 171v0zM171 128v-85h682v85h-682v0z" />
    <glyph glyph-name="uniE63B" unicode="&#xe63b;" 
d="M341 128h128v-171h86v171h128l-171 171l-171 -171v0zM683 725h-128v171h-86v-171h-128l171 -170l171 170v0zM171 469v-85h682v85h-682v0z" />
    <glyph glyph-name="uniE63C" unicode="&#xe63c;" 
d="M341 469h128v-426h86v426h128l-171 171l-171 -171v0zM171 811v-86h682v86h-682v0z" />
    <glyph glyph-name="uniE63D" unicode="&#xe63d;" 
d="M811 555h-171v256h-256v-256h-171l299 -299l299 299v0zM213 171v-86h598v86h-598v0z" />
    <glyph glyph-name="uniE63E" unicode="&#xe63e;" 
d="M384 256h256v256h171l-299 299l-299 -299h171v-256zM213 171h598v-86h-598v86z" />
    <glyph glyph-name="uniE63F" unicode="&#xe63f;" 
d="M811 640v-171h-562l153 153l-61 61l-256 -256l256 -256l61 60l-153 153h647v256h-85z" />
    <glyph glyph-name="uniE640" unicode="&#xe640;" 
d="M512 299q53 0 90.5 37.5t37.5 90.5v256q0 53 -37.5 90.5t-90.5 37.5t-90.5 -37.5t-37.5 -90.5v-256q0 -53 37.5 -90.5t90.5 -37.5zM738 427q0 -48 -19 -88q-18 -40 -49.5 -69t-72.5 -45t-85 -16t-85 16t-72.5 45t-49.5 69q-19 40 -19 88h-73q0 -55 21 -104
q20 -48 55 -86.5t81 -63.5q47 -25 99 -33v-140h86v140q52 8 99 33q46 25 81 63.5t55 86.5q21 49 21 104h-73v0z" />
    <glyph glyph-name="uniE641" unicode="&#xe641;" 
d="M171 683h768v85h-768q-36 0 -61 -25t-25 -60v-470h-85v-128h597v128h-426v470v0zM981 597h-256q-17 0 -29.5 -12.5t-12.5 -29.5v-427q0 -18 12.5 -30.5t29.5 -12.5h256q18 0 30.5 12.5t12.5 30.5v427q0 17 -12.5 29.5t-30.5 12.5zM939 213h-171v299h171v-299z" />
    <glyph glyph-name="uniE642" unicode="&#xe642;" 
d="M939 683v85h-648l85 -85h563zM82 868l-54 -54l77 -77q-9 -11 -14.5 -25t-5.5 -29v-470h-85v-128h756l101 -100l54 54l-829 829v0zM171 671l457 -458h-457v458v0zM981 597h-256q-17 0 -29.5 -12.5t-12.5 -29.5v-179l85 -85v221h171v-299h-93l128 -128h7q18 0 30.5 12.5
t12.5 30.5v427q0 17 -12.5 29.5t-30.5 12.5v0z" />
    <glyph glyph-name="uniE643" unicode="&#xe643;" 
d="M512 512q-62 0 -116 -24q-55 -23 -95.5 -63.5t-63.5 -95.5q-24 -54 -24 -116h86q0 44 16 83q17 39 46 68t68 46t83 17t83 -17t68 -46t46 -68q16 -39 16 -83h86q0 62 -24 116q-23 55 -63.5 95.5t-95.5 63.5q-54 24 -116 24v0zM512 683q-97 0 -183 -37q-85 -37 -148.5 -101
t-100.5 -149q-37 -86 -37 -183h85q0 80 30 150t82.5 122t122.5 82t149 30t149 -30t122.5 -82t82.5 -122t30 -150h85q0 97 -37 183q-37 85 -100.5 149t-148.5 101q-86 37 -183 37v0z" />
    <glyph glyph-name="uniE644" unicode="&#xe644;" 
d="M512 148l-315 244l-69 -53l384 -299l384 299l-70 54l-314 -245v0zM512 256l384 299l-384 298l-384 -298l70 -54l314 -245v0z" />
    <glyph glyph-name="uniE645" unicode="&#xe645;" 
d="M896 256v85l-341 214v234q0 27 -19 45.5t-45 18.5q-27 0 -45.5 -18.5t-18.5 -45.5v-234l-342 -214v-85l342 107v-235l-86 -64v-64l150 43l149 -43v64l-85 64v235z" />
    <glyph glyph-name="uniE646" unicode="&#xe646;" 
d="M299 384q53 0 90.5 37.5t37.5 90.5t-37.5 90.5t-90.5 37.5t-90.5 -37.5t-37.5 -90.5t37.5 -90.5t90.5 -37.5zM811 640h-342v-299h-341v384h-85v-640h85v128h768v-128h85v384q0 71 -50 121t-120 50v0z" />
    <glyph glyph-name="uniE647" unicode="&#xe647;" 
d="M171 597h170v171h-170v-171zM427 85h170v171h-170v-171v0zM171 85h170v171h-170v-171zM171 341h170v171h-170v-171zM427 341h170v171h-170v-171v0zM683 768v-171h170v171h-170zM427 597h170v171h-170v-171v0zM683 341h170v171h-170v-171zM683 85h170v171h-170v-171z" />
    <glyph glyph-name="uniE648" unicode="&#xe648;" 
d="M658 622l-61 61l-256 -256l256 -256l61 60l-196 196z" />
    <glyph glyph-name="uniE649" unicode="&#xe649;" 
d="M427 683l-61 -61l196 -195l-196 -196l61 -60l256 256z" />
    <glyph glyph-name="uniE64A" unicode="&#xe64a;" 
d="M512 597l-256 -256l60 -60l196 196l196 -196l60 60z" />
    <glyph glyph-name="uniE64B" unicode="&#xe64b;" 
d="M708 572l-196 -195l-196 195l-60 -60l256 -256l256 256z" />
    <glyph glyph-name="uniE64C" unicode="&#xe64c;" 
d="M128 171h768v85h-768v-85zM128 384h768v85h-768v-85zM128 683v-86h768v86h-768z" />
    <glyph glyph-name="uniE64D" unicode="&#xe64d;" 
d="M256 512q-35 0 -60 -25t-25 -60q0 -36 25 -61t60 -25t60 25t25 61q0 35 -25 60t-60 25v0zM768 512q-35 0 -60 -25t-25 -60q0 -36 25 -61t60 -25t60 25t25 61q0 35 -25 60t-60 25v0zM512 512q-35 0 -60 -25t-25 -60q0 -36 25 -61t60 -25t60 25t25 61q0 35 -25 60t-60 25v0
z" />
    <glyph glyph-name="uniE64E" unicode="&#xe64e;" 
d="M512 597q35 0 60 25t25 61q0 35 -25 60t-60 25t-60 -25t-25 -60q0 -36 25 -61t60 -25zM512 512q-35 0 -60 -25t-25 -60q0 -36 25 -61t60 -25t60 25t25 61q0 35 -25 60t-60 25v0zM512 256q-35 0 -60 -25t-25 -60q0 -36 25 -61t60 -25t60 25t25 61q0 35 -25 60t-60 25z" />
    <glyph glyph-name="uniE64F" unicode="&#xe64f;" 
d="M316 146l61 -61l135 136l135 -136l61 61l-196 195l-196 -195v0zM708 708l-61 60l-135 -135l-135 135l-61 -60l196 -196l196 196v0z" />
    <glyph glyph-name="uniE650" unicode="&#xe650;" 
d="M512 690l135 -135l61 60l-196 196l-196 -196l61 -60l135 135v0zM512 163l-135 136l-61 -61l196 -195l196 195l-61 61l-135 -136v0z" />
    <glyph glyph-name="uniE651" unicode="&#xe651;" 
d="M608 426l99 -99q9 23 13.5 48t4.5 52q0 26 -4.5 50.5t-13.5 47.5l-99 -99v0zM833 652l-54 -54q20 -38 31 -81.5t11 -90.5q0 -46 -11 -89.5t-31 -81.5l52 -51q30 49 47.5 106.5t17.5 119.5q0 61 -16.5 117.5t-46.5 104.5v0zM670 610l-243 243h-43v-323l-196 195l-60 -60
l238 -238l-238 -239l60 -60l196 196v-324h43l243 243l-183 184zM469 690l81 -80l-81 -80v160v0zM550 243l-81 -80v161z" />
    <glyph glyph-name="uniE652" unicode="&#xe652;" 
d="M807 725q-6 19 -22.5 31t-37.5 12h-470q-21 0 -37.5 -12t-22.5 -31l-89 -256v-341q0 -18 12.5 -30.5t30.5 -12.5h42q18 0 30.5 12.5t12.5 30.5v43h512v-43q0 -18 12.5 -30.5t30.5 -12.5h42q18 0 30.5 12.5t12.5 30.5v341l-89 256v0zM277 299q-26 0 -45 18.5t-19 45.5
q0 26 19 45t45 19q27 0 45.5 -19t18.5 -45q0 -27 -18.5 -45.5t-45.5 -18.5zM747 299q-27 0 -45.5 18.5t-18.5 45.5q0 26 18.5 45t45.5 19q26 0 45 -19t19 -45q0 -27 -19 -45.5t-45 -18.5zM213 512l64 192h470l64 -192h-598v0z" />
    <glyph glyph-name="uniE653" unicode="&#xe653;" 
d="M705 467l-45 45l-208 -208l-91 90l-45 -45l136 -136l253 254v0zM811 811h-43v85h-85v-85h-342v85h-85v-85h-43q-35 0 -60 -25t-25 -61v-597q0 -35 25 -60t60 -25h598q35 0 60 25t25 60v597q0 36 -25 61t-60 25v0zM811 128h-598v469h598v-469z" />
    <glyph glyph-name="uniE654" unicode="&#xe654;" 
d="M397 213l104 104l104 -104l46 46l-104 104l104 104l-46 45l-104 -104l-104 104l-45 -45l104 -104l-104 -104zM811 811h-43v85h-85v-85h-342v85h-85v-85h-43q-35 0 -60 -25t-25 -61v-597q0 -35 25 -60t60 -25h598q35 0 60 25t25 60v597q0 36 -25 61t-60 25v0zM811 128
h-598v469h598v-469z" />
    <glyph glyph-name="uniE655" unicode="&#xe655;" 
d="M853 683h-341l-85 85h-256q-36 0 -61 -25t-25 -60v-512q0 -36 25 -61t61 -25h682q36 0 61 25t25 61v426q0 36 -25 61t-61 25v0zM579 171l-152 89l-153 -89l40 173l-135 117l178 15l70 164l69 -164l178 -15l-135 -117l40 -173v0z" />
    <glyph glyph-name="uniE656" unicode="&#xe656;" 
d="M981 0h-85v43h-43v-43h-85v43h-43v-43h-85v43h-43v-43h-85v43h-43v-43h-85v43h-43v-43h-187l224 135l112 325l165 -290l320 533l-73 44l-245 -408l-187 328l-162 -475l-223 -134v881h-85v-1024h1024v128h-43v-43zM981 939h43v-43h-43v43zM853 939h43v-43h-43v43zM725 939
h43v-43h-43v43zM597 939h43v-43h-43v43zM469 939h43v-43h-43v43zM341 939h43v-43h-43v43zM213 939h43v-43h-43v43zM85 939h43v-43h-43v43zM981 811h43v-43h-43v43zM853 811h43v-43h-43v43zM725 811h43v-43h-43v43zM597 811h43v-43h-43v43zM469 811h43v-43h-43v43zM341 811
h43v-43h-43v43zM213 811h43v-43h-43v43zM85 811h43v-43h-43v43zM981 683h43v-43h-43v43zM725 683h43v-43h-43v43zM597 683h43v-43h-43v43zM341 683h43v-43h-43v43zM213 683h43v-43h-43v43zM85 683h43v-43h-43v43zM981 555h43v-43h-43v43zM597 555h43v-43h-43v43zM341 555h43
v-43h-43v43zM213 555h43v-43h-43v43zM85 555h43v-43h-43v43zM981 427h43v-43h-43v43zM853 427h43v-43h-43v43zM213 427h43v-43h-43v43zM85 427h43v-43h-43v43zM981 299h43v-43h-43v43zM853 299h43v-43h-43v43zM469 299h43v-43h-43v43zM213 299h43v-43h-43v43zM85 299h43v-43
h-43v43zM981 171h43v-43h-43v43zM853 171h43v-43h-43v43zM725 171h43v-43h-43v43zM469 171h43v-43h-43v43zM85 171h43v-43h-43v43z" />
    <glyph glyph-name="uniE657" unicode="&#xe657;" 
d="M627 533l98 98v-162h22l121 122l-91 92l91 91l-121 122h-22v-162l-98 98l-30 -30l120 -119l-120 -120l30 -30v0zM768 814l40 -40l-40 -40v80v0zM768 631l40 -40l-40 -40v80v0zM853 277q-40 0 -78 6.5t-74 18.5q-11 3 -22.5 0.5t-20.5 -11.5l-94 -94q-46 23 -86 53
q-41 30 -77 65.5t-65 76.5q-30 41 -53 86l94 94q8 9 11 20.5t-1 22.5q-12 36 -18 74.5t-6 78.5q0 18 -12.5 30.5t-30.5 12.5h-149q-18 0 -30.5 -12.5t-12.5 -30.5q0 -150 57 -282t155.5 -230.5t230.5 -155.5t282 -57q18 0 30.5 12.5t12.5 29.5v150q0 17 -12.5 29.5
t-30.5 12.5v0z" />
    <glyph glyph-name="uniE658" unicode="&#xe658;" 
d="M768 469l213 214l-213 213v-128h-171v-171h171v-128v0zM853 277q-40 0 -78 6.5t-74 18.5q-11 3 -22.5 0.5t-20.5 -11.5l-94 -94q-46 23 -86 53q-41 30 -77 65.5t-65 76.5q-30 41 -53 86l94 94q8 9 11 20.5t-1 22.5q-12 37 -18 75t-6 78q0 18 -12.5 30.5t-30.5 12.5h-149
q-18 0 -30.5 -12.5t-12.5 -30.5q0 -150 57 -282t155.5 -230.5t230.5 -155.5t282 -57q18 0 30.5 12.5t12.5 29.5v150q0 17 -12.5 29.5t-30.5 12.5v0z" />
    <glyph glyph-name="uniE659" unicode="&#xe659;" 
d="M853 277q-40 0 -78 6.5t-74 18.5q-11 3 -22.5 0.5t-20.5 -11.5l-94 -94q-46 23 -86 53q-41 30 -77 65.5t-65 76.5q-30 41 -53 86l94 94q8 9 11 20.5t-1 22.5q-12 36 -18 74.5t-6 78.5q0 18 -12.5 30.5t-30.5 12.5h-149q-18 0 -30.5 -12.5t-12.5 -30.5q0 -150 57 -282
t155.5 -230.5t230.5 -155.5t282 -57q18 0 30.5 12.5t12.5 29.5v150q0 17 -12.5 29.5t-30.5 12.5v0zM811 427h85q0 79 -30 149t-82.5 122t-122.5 82q-69 31 -149 31v-86q62 0 116 -23q55 -24 95.5 -64.5t63.5 -94.5q24 -54 24 -116v0zM640 427h85q0 44 -16 83
q-17 39 -46 67.5t-68 45.5t-83 17v-85q53 0 90.5 -37.5t37.5 -90.5z" />
    <glyph glyph-name="uniE65A" unicode="&#xe65a;" 
d="M853 277q-40 0 -78 6.5t-74 18.5q-11 3 -22.5 0.5t-20.5 -11.5l-94 -94q-46 23 -86 53q-41 30 -77 65.5t-65 76.5q-30 41 -53 86l94 94q8 9 11 20.5t-1 22.5q-12 36 -18 74.5t-6 78.5q0 18 -12.5 30.5t-30.5 12.5h-149q-18 0 -30.5 -12.5t-12.5 -30.5q0 -150 57 -282
t155.5 -230.5t230.5 -155.5t282 -57q18 0 30.5 12.5t12.5 29.5v150q0 17 -12.5 29.5t-30.5 12.5v0zM853 768v21q0 44 -31 75.5t-75 31.5t-75.5 -31.5t-31.5 -75.5v-21q-18 0 -30.5 -12.5t-12.5 -30.5v-170q0 -18 12.5 -30.5t30.5 -12.5h213q18 0 30.5 12.5t12.5 30.5v170
q0 18 -12.5 30.5t-30.5 12.5v0zM819 768h-145v21q0 30 21.5 51.5t51.5 21.5t51 -21.5t21 -51.5v-21v0z" />
    <glyph glyph-name="uniE65B" unicode="&#xe65b;" 
d="M277 704l235 -235l299 299l-43 43l-256 -256l-192 192h149v64h-256v-256h64v149v0zM1011 227q-48 47 -105 84t-120.5 62.5t-132.5 39.5q-68 14 -141 14t-141 -14q-69 -14 -132.5 -39.5t-120.5 -62.5t-105 -84q-6 -6 -9.5 -13.5t-3.5 -16.5t3.5 -16.5t9.5 -13.5l105 -106
q6 -6 14 -9t16 -3q9 0 17 3t13 9q26 23 54.5 43t59.5 36q11 5 17.5 15.5t6.5 22.5v133q46 15 95.5 22.5t100.5 7.5t100.5 -7.5t95.5 -22.5v-133q0 -13 7 -23t17 -15q31 -16 60 -36t54 -43q6 -6 13.5 -9.5t16.5 -3.5t16.5 3.5t13.5 9.5l106 106q5 6 8.5 13.5t3.5 16.5
t-3.5 16.5t-9.5 13.5v0z" />
    <glyph glyph-name="uniE65C" unicode="&#xe65c;" 
d="M725 811h-85v-299h85v299zM853 277q-40 0 -78 6.5t-74 18.5q-11 3 -22.5 0.5t-20.5 -11.5l-94 -94q-46 23 -86 53q-41 30 -77 65.5t-65 76.5q-30 41 -53 86l94 94q8 9 11 20.5t-1 22.5q-12 36 -18 74.5t-6 78.5q0 18 -12.5 30.5t-30.5 12.5h-149q-18 0 -30.5 -12.5
t-12.5 -30.5q0 -150 57 -282t155.5 -230.5t230.5 -155.5t282 -57q18 0 30.5 12.5t12.5 29.5v150q0 17 -12.5 29.5t-30.5 12.5v0zM811 811v-299h85v299h-85z" />
    <glyph glyph-name="uniE65D" unicode="&#xe65d;" 
d="M768 853h-341l-255 -256l-1 -512q0 -35 25 -60t60 -25h512q35 0 60 25t25 60v683q0 35 -25 60t-60 25v0zM512 597h-85v171h85v-171zM640 597h-85v171h85v-171zM768 597h-85v171h85v-171z" />
    <glyph glyph-name="uniE65E" unicode="&#xe65e;" horiz-adv-x="1054" 
d="M736 817q-34 0 -93 -32t-115 -32t-117 32t-91 32q-103 0 -180 -115q-77 -116 -113 -254t-23 -254q13 -115 90 -115q65 0 107 33q43 34 86 74.5t97 74.5q55 34 144 34q72 0 130 -34q59 -33 110 -73t98 -73q46 -34 94 -34q77 0 91 115q13 115 -22.5 253t-112.5 253
t-180 115zM304 401q-59 0 -101.5 42.5t-42.5 101.5q0 60 42.5 102t101.5 42q60 0 102 -42t42 -102q0 -59 -42 -101.5t-102 -42.5zM686 481q-13 0 -22.5 9.5t-9.5 22.5q0 14 9.5 23t22.5 9q14 0 23 -9t9 -23q0 -13 -9 -22.5t-23 -9.5zM784 385q-13 0 -22.5 9.5t-9.5 22.5
q0 14 9.5 23t22.5 9q14 0 23 -9t9 -23q0 -13 -9 -22.5t-23 -9.5zM784 577q-13 0 -22.5 9.5t-9.5 22.5q0 14 9.5 23t22.5 9q14 0 23 -9t9 -23q0 -13 -9 -22.5t-23 -9.5zM880 481q-13 0 -22.5 9.5t-9.5 22.5q0 14 9.5 23t22.5 9q14 0 23 -9t9 -23q0 -13 -9 -22.5t-23 -9.5z
M304 625q-33 0 -56.5 -23.5t-23.5 -56.5t23.5 -56.5t56.5 -23.5q34 0 57 23.5t23 56.5t-23 56.5t-57 23.5z" />
    <glyph glyph-name="uniE65F" unicode="&#xe65f;" horiz-adv-x="1064" 
d="M0 292l356 -356l12 33q11 34 16 83t-6 105t-56 101q-45 44 -101 55q-55 11 -104.5 6.5t-82.5 -15.5zM956 264l-181 -181l23 -23l181 181zM1046 219l-203 203q-19 19 -45.5 19t-45.5 -19l-17 -17l-50 50l89 89q19 19 17.5 47t-20.5 46l-110 111q-19 18 -45.5 18t-45.5 -18
l-81 -79l-43 43l3 3q19 19 19 45.5t-19 44.5l-203 204q-19 19 -45.5 19t-45.5 -19l-136 -136q-19 -18 -19 -44.5t19 -45.5l204 -204q19 -19 45.5 -19t44.5 19l45 45l44 -45l-82 -82q-19 -18 -17 -91l2 -73l55 -55l72.5 -1.5t91.5 17.5l71 70l50 -49l-28 -28
q-19 -19 -19 -45.5t19 -45.5l203 -204q19 -18 45.5 -18t45.5 18l135 136q19 19 19 45.5t-19 45.5v0zM42 851l136 136q9 9 22 9t23 -9l-181 -181q-10 9 -10 22t10 23v0zM64 783l182 181l22 -23l-181 -181l-23 23v0zM110 738l181 181l22 -23l-181 -181l-22 23v0zM155 692
l181 181l23 -22l-181 -181zM200 647l181 181l23 -22l-181 -182zM291 602q-10 -10 -23 -10t-22 10l181 181q9 -10 9 -23t-9 -22zM381 432l-17 17l234 234l17 -17l-234 -234v0zM639 264l136 136q9 9 22.5 9t22.5 -9l-181 -181q-9 9 -9 22.5t9 22.5zM1024 151l-136 -136
q-9 -9 -22.5 -9t-22.5 9l-136 136l181 181l-23 23l-181 -181l-22 22l181 181l181 -181q9 -9 9 -22.5t-9 -22.5v0zM1001 219l-181 -181l23 -23l181 181zM911 309l-181 -181l22 -22l181 181z" />
    <glyph glyph-name="uniE660" unicode="&#xe660;" 
d="M128 -32v512h96v160q0 53 20 100q20 46 55 81t81 55q47 20 100 20h32q53 0 100 -20q46 -20 81 -55t55 -81q20 -47 20 -100v-160h96v-512h-736zM472 231l-24 -167h96l-24 167q18 7 29 23t11 36q0 27 -19 45.5t-45 18.5q-27 0 -45.5 -18.5t-18.5 -45.5q0 -20 11 -36t29 -23
zM672 624q0 73 -51.5 124.5t-124.5 51.5t-124.5 -51.5t-51.5 -124.5v-144h352v144z" />
    <glyph glyph-name="uniE661" unicode="&#xe661;" 
d="M928 480v144q0 73 -51.5 124.5t-124.5 51.5t-124.5 -51.5t-51.5 -124.5v-146h160v-510h-736v512h480v160q0 53 20 100q20 46 55 81t81 55q47 20 100 20h32q53 0 100 -20q46 -20 81 -55t55 -81q20 -47 20 -100v-160h-96zM368 354q-27 0 -45.5 -19t-18.5 -45q0 -20 11 -36
t29 -23l-24 -167h96l-24 167q18 7 29 23t11 36q0 27 -19 45.5t-45 18.5z" />
    <glyph glyph-name="uniE662" unicode="&#xe662;" 
d="M607 390l-249 144q-23 14 -48.5 7t-39.5 -30q-13 -23 -6 -48.5t30 -38.5l249 -144q23 -14 48.5 -7t39.5 30q13 23 6 48.5t-30 38.5v0zM401 546l194 -112l66 184l-134 77zM258 74l186 226l-83 48zM742 719l-167 96q-17 10 -36 5t-29 -22q-10 -18 -5 -37t22 -29l167 -96
q17 -10 36 -5t29 23q10 17 5 36t-22 29v0z" />
    <glyph glyph-name="uniE663" unicode="&#xe663;" 
d="M994 448q0 -51 -27 -91t-71 -58v-74q0 -13 -9 -22.5t-22 -9.5h-738q-13 0 -22 9.5t-9 22.5v74q-44 18 -71 58t-27 91t27 91t71 58v74q0 13 9 22.5t23 9.5h737q13 0 22 -9.5t9 -22.5v-74q44 -18 71 -58t27 -91v0zM382 448h-127v-32h127v32v0zM534 557q-7 7 -16 10.5
t-21 3.5t-21 -3.5t-16 -10.5q-7 -8 -10.5 -19t-3.5 -27q0 -15 3.5 -26.5t10.5 -18.5q7 -8 13 -11.5t18 -3.5t24 3.5t19 11.5q7 7 10 18.5t3 26.5q0 16 -3 27t-10 19zM642 576l-163 -256h32l163 256h-32v0zM693 429q-7 8 -16 11.5t-21 3.5t-21 -3.5t-16 -11.5
q-6 -7 -9.5 -18.5t-3.5 -26.5q0 -16 3.5 -27.5t9.5 -18.5q7 -7 16.5 -11t21.5 -4q11 0 20 4t16 11t10.5 18.5t3.5 27.5q0 15 -3.5 26.5t-10.5 18.5v0zM656 348q-4 0 -6.5 1.5t-4.5 4.5q-3 3 -4 10.5t-1 19.5q0 11 1 18.5t4 11.5q2 3 4.5 4t6.5 1q3 0 6 -1t5 -4
q2 -4 3.5 -11.5t1.5 -18.5q0 -12 -1.5 -19.5t-3.5 -10.5t-5 -4.5t-6 -1.5v0zM497 475q-4 0 -6.5 1.5t-4.5 4.5q-3 4 -4 11.5t-1 18.5t1 18.5t4 11.5q2 3 4.5 4.5t6.5 1.5q3 0 5.5 -1.5t4.5 -4.5q3 -4 4 -11.5t1 -18.5t-1 -18.5t-4 -11.5q-2 -3 -4.5 -4.5t-5.5 -1.5z" />
    <glyph glyph-name="uniE664" unicode="&#xe664;" 
d="M896 672h-63v94l-129 2l1 -96h-389l3 96l-127 -2v-96l-64 2q-26 0 -45 -19t-19 -45v-448q0 -26 19 -45t45 -19h768q26 0 45 19t19 45v448q0 26 -19 45t-45 19zM736 736h64v-128h-64v128zM320 518q29 0 49.5 -27t20.5 -65t-20.5 -65t-49.5 -27t-49.5 27t-20.5 65t20.5 65
t49.5 27zM224 736h64v-128h-64v128zM181 226l6 31.5t19 40.5t40 14l27 5l18 -17t28 -17t28 17l18 17l27 -5t40 -14q15 -10 20 -41l5 -31h-276zM832 256h-288v32h288v-32zM832 320h-288v32h288v-32zM832 384h-288v32h288v-32zM832 448h-288v32h288v-32z" />
    <glyph glyph-name="uniE665" unicode="&#xe665;" 
d="M0 160v576h1024v-576h-1024zM64 674v-450h896v450h-896zM672 448q0 80 -47 136t-113 56h416v-384h-416q66 0 113 56t47 136zM800 384q20 0 34 19t14 45t-14 45t-34 19t-34 -19t-14 -45t14 -45t34 -19zM580 529l-1.5 -3l-0.5 -1q-1 -1 -2 -1h-2t-2.5 0.5l-4.5 1.5
q-2 2 -5 3.5t-6 3.5q-4 1 -8 2.5t-9 2.5q-4 2 -9 2.5t-11 0.5q-4 0 -8 -0.5t-7 -1.5t-5.5 -2.5t-5.5 -3.5q-2 -2 -3.5 -4t-2.5 -5q-1 -2 -1.5 -5t-0.5 -5q0 -5 1 -8.5t4 -6.5q2 -4 5 -6.5t7 -5.5q4 -2 8.5 -4.5t9.5 -4.5t10 -4.5t11 -4.5q5 -2 10 -5l10 -6t9.5 -6.5
t8.5 -7.5q4 -5 7 -10t5 -10q3 -6 4 -13t1 -14q0 -11 -2 -20t-5 -16q-4 -8 -9.5 -14.5t-11.5 -11.5q-7 -5 -14.5 -9t-15.5 -6q-2 -1 -3 -1h-2v-35h-31v30h-1h-1q-6 0 -12.5 0.5t-11.5 2.5q-6 1 -11 2t-10 3q-4 1 -8 3l-6 3q-3 2 -5.5 3.5t-3.5 2.5q-1 2 -2 3.5t-2 4.5
q0 2 -0.5 5.5t-0.5 8.5v5.5t1 4.5q0 2 0.5 4t0.5 3t1 2t1 2q1 0 2 0.5t2 0.5t3 -1t5 -2q2 -2 5.5 -4t7.5 -4t8.5 -3.5l10.5 -3.5q5 -2 11.5 -2.5t14.5 -0.5q4 0 8.5 0.5t8.5 1.5t7 2.5t6 3.5q2 3 4 5.5t4 5.5q1 3 2 6.5t1 7.5t-1.5 8t-3.5 7q-3 3 -6 5.5t-7 5.5q-4 2 -8 4.5
t-9 4.5t-10 4.5t-10 4.5l-11 5.5t-10 5.5q-4 3 -8.5 6.5t-8.5 8.5q-4 4 -7 9t-5 11q-3 6 -4 12.5t-1 15.5t1.5 17t5.5 15q3 7 7.5 13t10.5 11q6 4 13 7.5t15 6.5q4 1 8 1.5t9 1.5v33h31v-33h2h2q4 -1 8.5 -2t8.5 -2t7.5 -2.5t6.5 -2.5q3 -2 5 -3t3 -2l2 -2t1 -2l0.5 -1
t0.5 -2q1 -2 1 -3v-3v-4v-5v-5.5v-4.5t-0.5 -3.5t-0.5 -2.5v0zM352 448q0 -80 47 -136t113 -56h-416v384h416q-66 0 -113 -56t-47 -136zM224 512q-20 0 -34 -19t-14 -45t14 -45t34 -19t34 19t14 45t-14 45t-34 19z" />
    <glyph glyph-name="uniE666" unicode="&#xe666;" horiz-adv-x="1216" 
d="M1152 224l2 547l-994 -1v63h1056v-609h-64zM1120 127l-64 1l2 546h-994v62h1056v-609v0zM1026 63h-1026v577h1026v-577zM962 578h-898v-451h898v451v0zM865 176q0 -5 1 -9t3 -7h-356q66 0 113 56t47 136t-47 136t-113 56h356q-2 -4 -3 -8t-1 -8q0 -20 14.5 -34t33.5 -14
q5 0 9 1l8 2v-263q-4 2 -8 3t-9 1q-19 0 -33.5 -14.5t-14.5 -33.5v0zM801 419q-20 0 -34 -19t-14 -46q0 -26 14 -45t34 -19t34 19t14 45q0 27 -14 46t-34 19zM580 467l0.5 -1t0.5 -2t0.5 -2.5t0.5 -3.5v-4v-5v-5.5v-4.5t-0.5 -3.5t-0.5 -2.5l-1.5 -3l-0.5 -1q-1 -1 -2 -1h-2
t-2.5 0.5l-4.5 1.5q-2 2 -5 3.5t-7 2.5q-3 2 -7 3.5t-9 2.5q-4 2 -9.5 2.5t-10.5 0.5q-4 0 -8 -0.5t-7 -1.5t-6 -2.5t-5 -3.5t-3.5 -4t-2.5 -5q-1 -2 -1.5 -5t-0.5 -6q0 -4 1 -7.5t3 -7.5q3 -3 6 -5.5t7 -5.5q4 -2 8.5 -4.5t9.5 -4.5t10 -4.5t10 -4.5q6 -2 11 -5l10 -6
t9.5 -6.5t8.5 -8.5q4 -4 7 -9t5 -11q3 -5 4 -12t1 -15q0 -10 -2 -19t-5 -17q-4 -7 -9.5 -13.5t-11.5 -11.5q-7 -5 -14.5 -9t-16.5 -7h-2t-2 -1v-35h-32v31h-0.5h-0.5q-7 0 -13 0.5t-12 1.5t-11 2.5t-9 2.5q-5 2 -8.5 3.5t-6.5 3.5t-5 3.5t-3 2.5q-2 1 -2.5 3t-1.5 4
q-1 3 -1 6.5v7.5v6.5v4.5t0.5 3.5t1.5 3.5q0 1 0.5 2t1.5 1l1.5 1.5t1.5 0.5q2 0 4 -1t4 -3q3 -1 6.5 -3t7.5 -4t8.5 -4t10.5 -3q5 -2 11.5 -3t13.5 -1q5 0 9.5 0.5t8.5 2.5q3 1 6.5 2.5t6.5 3.5q2 2 4 4.5t4 6.5q1 3 1.5 6.5t0.5 6.5q0 5 -1 8.5t-3 7.5q-3 3 -6 5.5t-7 5.5
q-4 2 -8 4.5t-9 4.5t-10 4.5t-11 4.5q-5 2 -10 5l-10 6t-9 6.5t-8 8.5q-4 4 -7 9t-6 11q-2 5 -3.5 12t-1.5 16t2 17t5 15q4 7 8.5 13t10.5 11q6 4 13 7.5t15 6.5q4 1 8 1.5t8 1.5v33h32v-33h2h2q4 -1 8.5 -2t8.5 -2t7.5 -2.5t6.5 -2.5q3 -2 5 -3t3 -2l2 -2t1 -2v0zM353 352
q0 -80 46.5 -136t113.5 -56h-356q1 3 2 7t1 9q0 19 -14 33.5t-34 14.5q-4 0 -8 -1t-8 -3v263l8 -2t8 -1q20 0 34 14t14 34q0 4 -1 8l-2 8h356q-67 0 -113.5 -56.5t-46.5 -135.5v0zM224 419q-20 0 -34 -19t-14 -46q0 -26 14 -45t34 -19t34 19t14 45q0 27 -14 46t-34 19z" />
    <glyph glyph-name="uniE667" unicode="&#xe667;" 
d="M541 768h292l-1 -295l-100 100l-94 -95q16 -28 24.5 -59.5t8.5 -66.5q0 -53 -20 -99q-20 -47 -55 -82t-81 -55q-47 -20 -100 -20t-100 20q-46 20 -81 55t-55 82q-20 46 -20 99t20 100q20 46 55 81t81 55q47 20 100 20q37 0 70.5 -10t62.5 -27l94 94zM287 352
q0 -53 37.5 -90.5t90.5 -37.5t90.5 37.5t37.5 90.5t-37.5 90.5t-90.5 37.5t-90.5 -37.5t-37.5 -90.5v0z" />
    <glyph glyph-name="uniE668" unicode="&#xe668;" 
d="M577 361v-105h128v-128h-128v-128h-130v128h-127v128h127v105q-41 11 -76 34q-35 24 -60.5 56.5t-39.5 72.5q-15 40 -15 84q0 53 20 100t55 81.5t81 54.5q47 20 100 20t100 -20q46 -20 81 -54.5t55 -81.5t20 -100q0 -44 -15 -85q-14 -40 -39 -72.5t-60 -55.5t-77 -34z
M512 736q-53 0 -90.5 -37.5t-37.5 -90.5q0 -52 37.5 -89.5t90.5 -37.5t90.5 37.5t37.5 89.5q0 53 -37.5 90.5t-90.5 37.5v0z" />
    <glyph glyph-name="uniE669" unicode="&#xe669;" 
d="M0 64v736h992v-736h-992zM192 384h-32v384h-128v-672h160v288zM384 384h-32v384h-96v-384h-32v-288h160v288zM576 384h-32v384h-96v-384h-32v-288h160v288zM640 768v-384h-32v-288h160v288h-32v384h-96zM960 768h-128v-384h-32v-288h160v672z" />
    <glyph glyph-name="uniE66A" unicode="&#xe66a;" 
d="M928 349l-36 -247l-74 71q-22 -18 -53 -39q-31 -20 -71.5 -37.5t-90.5 -28.5q-49 -11 -108 -11t-110 11q-50 11 -90.5 27.5t-71.5 36.5q-32 19 -54 37l-67 -65l-38 245l253 -37l-70 -68q37 -27 90.5 -53.5t111.5 -26.5l-1 404q-41 14 -68 50t-27 81q0 58 42 99t102 41
t102 -41t42 -99q0 -46 -27.5 -82t-70.5 -50v-96q1 -67 1 -135.5v-120.5l-1 -52q55 0 107.5 28.5t89.5 57.5l-65 63l253 37v0zM571 701q0 30 -21.5 51.5t-52.5 21.5t-52.5 -21.5t-21.5 -51.5t21.5 -51t52.5 -21t52.5 21t21.5 51v0z" />
    <glyph glyph-name="uniE66B" unicode="&#xe66b;" 
d="M892 660q10 10 25 10t25 -10t10 -24.5t-10 -25.5l-405 -400q-10 -11 -25 -11t-25 11l-405 400q-10 11 -10 25.5t10 24.5t25 10t25 -10l380 -366z" />
    <glyph glyph-name="uniE66C" unicode="&#xe66c;" 
d="M355 384q11 55 55 91.5t102 36.5t102 -36.5t55 -91.5h64q-6 41 -25 76q-20 35 -49.5 60.5t-66.5 40.5q-38 15 -80 15t-80 -15q-37 -15 -66.5 -40.5t-48.5 -60.5q-20 -35 -26 -76h64v0zM512 640q13 0 22.5 9.5t9.5 22.5v64q0 13 -9.5 22.5t-22.5 9.5t-22.5 -9.5
t-9.5 -22.5v-64q0 -13 9.5 -22.5t22.5 -9.5zM806 646q-9 10 -22.5 10t-22.5 -10l-45 -45q-10 -9 -10 -22.5t10 -22.5q9 -10 22.5 -10t22.5 10l45 45q10 9 10 22.5t-10 22.5zM308 601l-45 45q-9 10 -22.5 10t-22.5 -10q-10 -9 -10 -22.5t10 -22.5l45 -45q9 -10 22.5 -10
t22.5 10q10 9 10 22.5t-10 22.5zM704 320h-384q-13 0 -22.5 -9.5t-9.5 -22.5t9.5 -22.5t22.5 -9.5h384q13 0 22.5 9.5t9.5 22.5t-9.5 22.5t-22.5 9.5zM640 192h-256q-13 0 -22.5 -9.5t-9.5 -22.5t9.5 -22.5t22.5 -9.5h256q13 0 22.5 9.5t9.5 22.5t-9.5 22.5t-22.5 9.5z" />
    <glyph glyph-name="uniE66D" unicode="&#xe66d;" 
d="M512 672q-46 0 -87 -18q-41 -17 -71.5 -47.5t-47.5 -71.5q-18 -41 -18 -87t18 -87q17 -41 47.5 -71.5t71.5 -47.5q41 -18 87 -18t87 18q41 17 71.5 47.5t47.5 71.5q18 41 18 87t-18 87q-17 41 -47.5 71.5t-71.5 47.5q-41 18 -87 18zM512 288q-66 0 -113 47t-47 113
t47 113t113 47t113 -47t47 -113t-47 -113t-113 -47zM512 736q13 0 22.5 9.5t9.5 22.5v64q0 13 -9.5 22.5t-22.5 9.5t-22.5 -9.5t-9.5 -22.5v-64q0 -13 9.5 -22.5t22.5 -9.5zM512 160q-13 0 -22.5 -9.5t-9.5 -22.5v-64q0 -13 9.5 -22.5t22.5 -9.5t22.5 9.5t9.5 22.5v64
q0 13 -9.5 22.5t-22.5 9.5zM761 652l45 45q10 9 10 22.5t-10 22.5q-9 10 -22.5 10t-22.5 -10l-45 -45q-10 -9 -10 -22.5t10 -22.5q9 -10 22.5 -10t22.5 10zM263 244l-45 -45q-10 -9 -10 -22.5t10 -22.5q9 -10 22.5 -10t22.5 10l45 45q10 9 10 22.5t-10 22.5q-9 10 -22.5 10
t-22.5 -10zM224 448q0 13 -9.5 22.5t-22.5 9.5h-64q-13 0 -22.5 -9.5t-9.5 -22.5t9.5 -22.5t22.5 -9.5h64q13 0 22.5 9.5t9.5 22.5zM896 480h-64q-13 0 -22.5 -9.5t-9.5 -22.5t9.5 -22.5t22.5 -9.5h64q13 0 22.5 9.5t9.5 22.5t-9.5 22.5t-22.5 9.5zM263 652q9 -10 22.5 -10
t22.5 10q10 9 10 22.5t-10 22.5l-45 45q-9 10 -22.5 10t-22.5 -10q-10 -9 -10 -22.5t10 -22.5zM761 244q-9 10 -22.5 10t-22.5 -10q-10 -9 -10 -22t10 -23l45 -45q9 -9 22.5 -9t22.5 9q10 9 10 22.5t-10 22.5z" />
    <glyph glyph-name="uniE66E" unicode="&#xe66e;" 
d="M700 274q-38 -38 -85 -56q-47 -19 -96 -19t-97 19q-47 18 -84 56q-38 37 -56 84q-19 48 -19 97t19 96q18 47 56 85q20 20 44 35t51 24q9 3 18 1t16 -8q6 -7 8 -16t-1 -17q-19 -54 -7 -107.5t52 -92.5q39 -40 92.5 -52t107.5 7q8 3 17 1t16 -8q6 -7 8 -16t-1 -18
q-9 -27 -24 -51t-35 -44v0zM383 590q-56 -56 -56 -135.5t56 -135.5q30 -30 69 -44q38 -14 77.5 -11.5t76.5 20.5t63 51q-54 -3 -105 16t-91 58q-39 40 -58 91t-16 105q-4 -3 -8 -7l-8 -8v0z" />
    <glyph glyph-name="uniE66F" unicode="&#xe66f;" 
d="M542 706q13 0 22.5 9.5t9.5 22.5v64q0 13 -9.5 22.5t-22.5 9.5t-22.5 -9.5t-9.5 -22.5v-64q0 -13 9.5 -22.5t22.5 -9.5zM542 130q-13 0 -22.5 -9.5t-9.5 -22.5v-64q0 -13 9.5 -22.5t22.5 -9.5t22.5 9.5t9.5 22.5v64q0 13 -9.5 22.5t-22.5 9.5zM293 214l-45 -45
q-10 -9 -10 -22.5t10 -22.5q9 -10 22.5 -10t22.5 10l45 45q10 9 10 22.5t-10 22.5q-9 10 -22.5 10t-22.5 -10zM254 418q0 13 -9.5 22.5t-22.5 9.5h-64q-13 0 -22.5 -9.5t-9.5 -22.5t9.5 -22.5t22.5 -9.5h64q13 0 22.5 9.5t9.5 22.5zM293 622q9 -10 22.5 -10t22.5 10
q10 9 10 22.5t-10 22.5l-45 45q-9 10 -22.5 10t-22.5 -10q-10 -9 -10 -22.5t10 -22.5zM670 642q-17 0 -33 -3t-31 -7q-15 4 -31 7t-33 3q-46 0 -87 -18q-41 -17 -71.5 -47.5t-47.5 -71.5q-18 -41 -18 -87t18 -87q17 -41 47.5 -71.5t71.5 -47.5q41 -18 87 -18q17 0 33 3t31 7
q15 -4 31 -7t33 -3q46 0 87 18q41 17 71.5 47.5t47.5 71.5q18 41 18 87t-18 87q-17 41 -47.5 71.5t-71.5 47.5q-41 18 -87 18zM510 261q-55 11 -91.5 55t-36.5 102t36.5 102t91.5 55q-29 -31 -46.5 -71t-17.5 -86t17.5 -86t46.5 -71v0z" />
    <glyph glyph-name="uniE670" unicode="&#xe670;" 
d="M990 514h-163q-6 54 -31 101q-24 46 -62 80.5t-87 54.5q-50 20 -105 20q-75 0 -137.5 -35t-101.5 -93h-209q-13 0 -22.5 -9.5t-9.5 -22.5t9.5 -22.5t22.5 -9.5h178q-6 -15 -9.5 -31t-5.5 -33h-99q-13 0 -22.5 -9.5t-9.5 -22.5t9.5 -22.5t22.5 -9.5h99q2 -17 5.5 -33
t9.5 -31h-172q-16 0 -27 -9.5t-11 -22.5t11 -22.5t27 -9.5h203q39 -58 101.5 -93t137.5 -35t137.5 35t101.5 93h75q16 0 27 9.5t11 22.5t-11 22.5t-27 9.5h-44q6 15 9.5 31t5.5 33h163q13 0 22.5 9.5t9.5 22.5t-9.5 22.5t-22.5 9.5v0zM340 578h202q13 0 22.5 9.5t9.5 22.5
t-9.5 22.5t-22.5 9.5h-156q30 30 70 47t86 17q42 0 80 -15q37 -15 66.5 -40.5t48.5 -60.5q20 -35 26 -76h-442q3 17 7.5 33t11.5 31v0zM542 258q-46 0 -86 17t-70 47h312q-30 -30 -70 -47t-86 -17zM743 386h-403q-7 15 -11.5 31t-7.5 33h442q-3 -17 -7.5 -33t-12.5 -31z" />
    <glyph glyph-name="uniE671" unicode="&#xe671;" 
d="M862 576q-40 0 -68 -28t-28 -68q0 -8 1.5 -16t4.5 -16h-614q-13 0 -22.5 -9.5t-9.5 -22.5t9.5 -22.5t22.5 -9.5h704q40 0 68 28t28 68t-28 68t-68 28zM158 512h384q40 0 68 28t28 68t-28 68t-68 28t-68 -28t-28 -68q0 -8 1.5 -16t4.5 -16h-294q-13 0 -22.5 -9.5
t-9.5 -22.5t9.5 -22.5t22.5 -9.5zM670 320h-2.5t-3.5 -1q-1 0 -1.5 0.5t-1.5 0.5h-494q-17 0 -29 -9.5t-12 -22.5t12 -22.5t29 -9.5h413q-3 -8 -4.5 -16t-1.5 -16q0 -40 28 -68t68 -28t68 28t28 68t-28 68t-68 28z" />
    <glyph glyph-name="uniE672" unicode="&#xe672;" 
d="M766 375l-66 38q2 9 3 17.5t1 17.5t-1 17.5t-3 17.5l66 38q23 13 29.5 38.5t-6.5 48.5t-38.5 30t-48.5 -6l-66 -39q-13 12 -28 20.5t-32 14.5v76q0 27 -18.5 45.5t-45.5 18.5t-45.5 -18.5t-18.5 -45.5v-76q-17 -6 -32 -14.5t-28 -19.5l-66 37q-23 14 -48.5 7t-38.5 -30
t-6.5 -48.5t29.5 -38.5l65 -38q-1 -8 -2 -17t-1 -18t1 -17.5t2 -17.5l-65 -38q-23 -13 -29.5 -38.5t6.5 -48.5t38.5 -30t48.5 7l66 38q13 -12 28 -20.5t32 -14.5v-76q0 -27 18.5 -45.5t45.5 -18.5t45.5 18.5t18.5 45.5v76q17 6 32 14.5t28 20.5l66 -38q23 -14 48.5 -7
t38.5 30t6.5 48.5t-29.5 38.5v0zM448 448q0 27 18.5 45.5t45.5 18.5q26 0 45 -18.5t19 -45.5q0 -26 -19 -45t-45 -19q-27 0 -45.5 19t-18.5 45z" />
    <glyph glyph-name="uniE673" unicode="&#xe673;" 
d="M416 832q13 0 22.5 9.5t9.5 22.5v64q0 13 -9.5 22.5t-22.5 9.5t-22.5 -9.5t-9.5 -22.5v-64q0 -13 9.5 -22.5t22.5 -9.5zM665 748l45 45q9 9 9 22.5t-9 22.5q-9 10 -22.5 10t-22.5 -10l-45 -45q-10 -9 -10 -22.5t10 -22.5q9 -10 22.5 -10t22.5 10zM32 512h64
q13 0 22.5 9.5t9.5 22.5t-9.5 22.5t-22.5 9.5h-64q-13 0 -22.5 -9.5t-9.5 -22.5t9.5 -22.5t22.5 -9.5zM704 544q0 -13 9.5 -22.5t22.5 -9.5h64q13 0 22.5 9.5t9.5 22.5t-9.5 22.5t-22.5 9.5h-64q-13 0 -22.5 -9.5t-9.5 -22.5zM167 748q9 -10 22.5 -10t22.5 10q10 9 10 22.5
t-10 22.5l-45 45q-9 10 -22.5 10t-22.5 -10q-10 -9 -10 -22.5t10 -22.5zM800 448q-8 0 -16 -0.5t-16 -1.5q-25 34 -57.5 60t-70.5 43q-1 45 -19 85t-48.5 70t-70.5 47t-86 17t-87 -18q-41 -17 -71.5 -47.5t-47.5 -71.5q-18 -41 -18 -87q0 -26 6 -50.5t17 -46.5
q-45 -2 -84 -20t-68 -48t-46 -70t-17 -85q0 -46 18 -87q17 -41 47.5 -71.5t71.5 -47.5q41 -18 87 -18q21 0 40.5 3.5t38.5 11.5q44 -38 97.5 -58.5t111.5 -20.5t111.5 20.5t97.5 58.5q19 -8 38.5 -11.5t40.5 -3.5q46 0 87 18q41 17 71.5 47.5t47.5 71.5q18 41 18 87t-18 87
q-17 41 -47.5 71.5t-71.5 47.5q-41 18 -87 18v0zM416 704q60 0 104 -38.5t53 -95.5l-30 4t-31 2q-69 0 -130.5 -28t-106.5 -78q-9 16 -14 35t-5 39q0 66 47 113t113 47v0zM800 64q-26 0 -49 8t-43 21q-35 -42 -86 -67.5t-110 -25.5t-110 25.5t-86 67.5q-20 -13 -43 -21
t-49 -8q-66 0 -113 47t-47 113t47 113t113 47q12 0 23 -2t21 -5q4 -1 8.5 -2t8.5 -3q6 13 14.5 24.5t17.5 22.5q35 43 85.5 68t109.5 25q15 0 29.5 -2t28.5 -5q16 -4 31 -9.5t29 -13.5q35 -19 63 -47t46 -63q14 6 29.5 9t31.5 3q66 0 113 -47t47 -113t-47 -113t-113 -47v0z
" />
    <glyph glyph-name="uniE674" unicode="&#xe674;" 
d="M870 436q7 5 14.5 10.5t14.5 12.5q19 20 34 44t25 52q3 8 1 17t-8 16q-7 6 -16 8.5t-18 -1.5q-53 -18 -106.5 -6t-92.5 51q-40 39 -52 93t7 107q3 8 1 17t-8 16q-7 7 -16 9t-18 -1q-28 -10 -52 -25t-43 -35q-51 -50 -67 -116.5t2 -131.5q-65 -8 -121.5 -41t-94.5 -86
q-8 1 -16 1.5t-16 0.5q-46 0 -87 -18q-41 -17 -71.5 -47.5t-47.5 -71.5q-18 -41 -18 -87t18 -87q17 -41 47.5 -71.5t71.5 -47.5q41 -18 87 -18q21 0 40.5 3.5t38.5 11.5q44 -38 97.5 -58.5t111.5 -20.5t111.5 20.5t97.5 58.5q19 -8 38.5 -11.5t40.5 -3.5q46 0 87 18
q41 17 71.5 47.5t47.5 71.5q18 41 18 87q0 74 -43.5 131.5t-110.5 80.5zM582 776q4 4 8 7.5t8 6.5q-3 -54 16 -105t58 -90q40 -40 91 -59t105 -16q-21 -26 -48.5 -42.5t-57.5 -23.5q-41 52 -99.5 83.5t-124.5 36.5q-19 51 -8 106t52 96v0zM800 64q-26 0 -49 8t-43 21
q-35 -42 -86 -67.5t-110 -25.5t-110 25.5t-86 67.5q-20 -13 -43 -21t-49 -8q-66 0 -113 47t-47 113t47 113t113 47q16 0 31.5 -3t29.5 -9q30 59 86.5 97t125.5 42q4 0 7.5 0.5t7.5 0.5q19 0 37.5 -3t36.5 -8q24 -7 45.5 -19t39.5 -27q18 -14 33 -32t27 -38q2 -3 4 -6.5
t4 -6.5q14 6 29.5 9t31.5 3q66 0 113 -47t47 -113t-47 -113t-113 -47z" />
    <glyph glyph-name="uniE675" unicode="&#xe675;" 
d="M512 770q13 0 22.5 9.5t9.5 22.5v64q0 13 -9.5 22.5t-22.5 9.5t-22.5 -9.5t-9.5 -22.5v-64q0 -13 9.5 -22.5t22.5 -9.5zM761 686l45 45q9 9 9 22.5t-9 22.5q-9 10 -22.5 10t-22.5 -10l-45 -45q-10 -9 -10 -22.5t10 -22.5q9 -10 22.5 -10t22.5 10zM128 450h64
q13 0 22.5 9.5t9.5 22.5t-9.5 22.5t-22.5 9.5h-64q-13 0 -22.5 -9.5t-9.5 -22.5t9.5 -22.5t22.5 -9.5zM800 482q0 -13 9.5 -22.5t22.5 -9.5h64q13 0 22.5 9.5t9.5 22.5t-9.5 22.5t-22.5 9.5h-64q-13 0 -22.5 -9.5t-9.5 -22.5zM263 686q9 -10 22.5 -10t22.5 10q10 9 10 22.5
t-10 22.5l-45 45q-9 10 -22.5 10t-22.5 -10q-10 -9 -10 -22.5t10 -22.5zM291 450h64l-2 16t-1 16q0 66 47 113t113 47t113 -47t47 -113q0 -8 -1 -16l-2 -16h64l2 16t1 16q0 46 -18 87q-17 41 -47.5 71.5t-71.5 47.5q-41 18 -87 18t-87 -18q-41 -17 -71.5 -47.5t-47.5 -71.5
q-18 -41 -18 -87q0 -8 1 -16zM896 386h-768q-13 0 -22.5 -9.5t-9.5 -22.5t9.5 -22.5t22.5 -9.5h768q13 0 22.5 9.5t9.5 22.5t-9.5 22.5t-22.5 9.5zM896 258h-768q-13 0 -22.5 -9.5t-9.5 -22.5t9.5 -22.5t22.5 -9.5h768q13 0 22.5 9.5t9.5 22.5t-9.5 22.5t-22.5 9.5zM896 130
h-768q-13 0 -22.5 -9.5t-9.5 -22.5t9.5 -22.5t22.5 -9.5h768q13 0 22.5 9.5t9.5 22.5t-9.5 22.5t-22.5 9.5z" />
    <glyph glyph-name="uniE676" unicode="&#xe676;" 
d="M128 322h768q13 0 22.5 9.5t9.5 22.5t-9.5 22.5t-22.5 9.5h-768q-13 0 -22.5 -9.5t-9.5 -22.5t9.5 -22.5t22.5 -9.5zM896 258h-768q-13 0 -22.5 -9.5t-9.5 -22.5t9.5 -22.5t22.5 -9.5h768q13 0 22.5 9.5t9.5 22.5t-9.5 22.5t-22.5 9.5zM896 130h-768q-13 0 -22.5 -9.5
t-9.5 -22.5t9.5 -22.5t22.5 -9.5h768q13 0 22.5 9.5t9.5 22.5t-9.5 22.5t-22.5 9.5zM410 450l-1 0.5t-1 1.5q-56 56 -56 135.5t56 135.5q4 4 8 7.5t8 7.5q-3 -54 16 -105t58 -91q40 -39 91 -58t105 -16q-4 -5 -8.5 -9.5t-9.5 -8.5h83q8 12 14 25t11 27q3 9 1 18t-8 15
q-7 7 -16 9t-18 -1q-53 -19 -106.5 -7t-92.5 52q-40 39 -52 92.5t7 106.5q3 9 1 18t-8 16q-7 6 -16 8t-18 -1q-27 -10 -51.5 -25t-43.5 -34q-33 -33 -51 -73t-22.5 -82t5.5 -85q9 -42 33 -79h82v0z" />
    <glyph glyph-name="uniE677" unicode="&#xe677;" 
d="M67 448l-2 16t-1 16q0 66 47 113t113 47q16 0 31.5 -3t29.5 -9q32 62 92 101t135 39t135 -39t92 -101q14 6 29.5 9t31.5 3q66 0 113 -47t47 -113q0 -8 -1 -16l-2 -16h64l2 16t1 16q0 46 -18 87q-17 41 -47.5 71.5t-71.5 47.5q-41 18 -87 18q-8 0 -16 -0.5t-16 -1.5
q-44 61 -111.5 95.5t-144.5 34.5t-144.5 -34.5t-111.5 -95.5q-8 1 -16 1.5t-16 0.5q-46 0 -87 -18q-41 -17 -71.5 -47.5t-47.5 -71.5q-18 -41 -18 -87q0 -8 1 -16l2 -16h64zM992 384h-960q-13 0 -22.5 -9.5t-9.5 -22.5t9.5 -22.5t22.5 -9.5h960q13 0 22.5 9.5t9.5 22.5
t-9.5 22.5t-22.5 9.5zM992 256h-960q-13 0 -22.5 -9.5t-9.5 -22.5t9.5 -22.5t22.5 -9.5h960q13 0 22.5 9.5t9.5 22.5t-9.5 22.5t-22.5 9.5zM992 128h-960q-13 0 -22.5 -9.5t-9.5 -22.5t9.5 -22.5t22.5 -9.5h960q13 0 22.5 9.5t9.5 22.5t-9.5 22.5t-22.5 9.5z" />
    <glyph glyph-name="uniE678" unicode="&#xe678;" 
d="M224 640h576q13 0 22.5 9.5t9.5 22.5t-9.5 22.5t-22.5 9.5h-576q-13 0 -22.5 -9.5t-9.5 -22.5t9.5 -22.5t22.5 -9.5zM800 576h-576q-13 0 -22.5 -9.5t-9.5 -22.5t9.5 -22.5t22.5 -9.5h576q13 0 22.5 9.5t9.5 22.5t-9.5 22.5t-22.5 9.5zM800 448h-576q-13 0 -22.5 -9.5
t-9.5 -22.5t9.5 -22.5t22.5 -9.5h576q13 0 22.5 9.5t9.5 22.5t-9.5 22.5t-22.5 9.5zM800 320h-576q-13 0 -22.5 -9.5t-9.5 -22.5t9.5 -22.5t22.5 -9.5h576q13 0 22.5 9.5t9.5 22.5t-9.5 22.5t-22.5 9.5z" />
    <glyph glyph-name="uniE679" unicode="&#xe679;" 
d="M800 640q-8 0 -16 -0.5t-16 -1.5q-44 61 -111.5 95.5t-144.5 34.5t-144.5 -34.5t-111.5 -95.5q-8 1 -16 1.5t-16 0.5q-46 0 -87 -18q-41 -17 -71.5 -47.5t-47.5 -71.5q-18 -41 -18 -87t18 -87q17 -41 47.5 -71.5t71.5 -47.5q41 -18 87 -18q21 0 40.5 3.5t38.5 11.5
q44 -38 97.5 -58.5t111.5 -20.5t111.5 20.5t97.5 58.5q19 -8 38.5 -11.5t40.5 -3.5q46 0 87 18q41 17 71.5 47.5t47.5 71.5q18 41 18 87t-18 87q-17 41 -47.5 71.5t-71.5 47.5q-41 18 -87 18v0zM800 256q-26 0 -49 8t-43 21q-35 -42 -86 -67.5t-110 -25.5t-110 25.5
t-86 67.5q-20 -13 -43 -21t-49 -8q-66 0 -113 47t-47 113t47 113t113 47q16 0 31.5 -3t29.5 -9q32 62 92 101t135 39t135 -39t92 -101q14 6 29.5 9t31.5 3q66 0 113 -47t47 -113t-47 -113t-113 -47v0z" />
    <glyph glyph-name="uniE67A" unicode="&#xe67a;" 
d="M800 832q-8 0 -16 -0.5t-16 -1.5q-44 61 -111.5 95.5t-144.5 34.5t-144.5 -34.5t-111.5 -95.5q-8 1 -16 1.5t-16 0.5q-46 0 -87 -18q-41 -17 -71.5 -47.5t-47.5 -71.5q-18 -41 -18 -87t18 -87q17 -41 47.5 -71.5t71.5 -47.5q41 -18 87 -18q21 0 40.5 3.5t38.5 11.5
q33 -28 71 -47t80 -26l-70 -70l64 -64l-64 -192l192 192l-64 64l22 66q52 4 99.5 23t87.5 54q19 -8 38.5 -11.5t40.5 -3.5q46 0 87 18q41 17 71.5 47.5t47.5 71.5q18 41 18 87t-18 87q-17 41 -47.5 71.5t-71.5 47.5q-41 18 -87 18zM800 448q-26 0 -49 8t-43 21
q-28 -34 -67 -57t-85 -31l-44 -5q-59 0 -110 25.5t-86 67.5q-20 -13 -43 -21t-49 -8q-66 0 -113 47t-47 113t47 113t113 47q16 0 31.5 -3t29.5 -9q32 62 92 101t135 39t135 -39t92 -101q14 6 29.5 9t31.5 3q66 0 113 -47t47 -113t-47 -113t-113 -47z" />
    <glyph glyph-name="uniE67B" unicode="&#xe67b;" 
d="M800 832q-8 0 -16 -0.5t-16 -1.5q-44 61 -111.5 95.5t-144.5 34.5t-144.5 -34.5t-111.5 -95.5q-8 1 -16 1.5t-16 0.5q-46 0 -87 -18q-41 -17 -71.5 -47.5t-47.5 -71.5q-18 -41 -18 -87t18 -87q17 -41 47.5 -71.5t71.5 -47.5q41 -18 87 -18q21 0 40.5 3.5t38.5 11.5
q19 -16 39.5 -28.5t42.5 -22.5l50 50q-35 11 -65.5 31t-53.5 48q-20 -13 -43 -21t-49 -8q-66 0 -113 47t-47 113t47 113t113 47q16 0 31.5 -3t29.5 -9q32 62 92 101t135 39t135 -39t92 -101q14 6 29.5 9t31.5 3q66 0 113 -47t47 -113t-47 -113t-113 -47q-26 0 -49 8t-43 21
q-15 -18 -34.5 -33.5t-40.5 -27.5l-27 -80q31 9 60 25t55 38q19 -8 38.5 -11.5t40.5 -3.5q46 0 87 18q41 17 71.5 47.5t47.5 71.5q18 41 18 87t-18 87q-17 41 -47.5 71.5t-71.5 47.5q-41 18 -87 18v0zM384 256l64 -64l-64 -192l192 192l-64 64l64 192z" />
    <glyph glyph-name="uniE67C" unicode="&#xe67c;" 
d="M800 768q-8 0 -16 -0.5t-16 -1.5q-44 61 -111.5 95.5t-144.5 34.5t-144.5 -34.5t-111.5 -95.5q-8 1 -16 1.5t-16 0.5q-46 0 -87 -18q-41 -17 -71.5 -47.5t-47.5 -71.5q-18 -41 -18 -87t18 -87q17 -41 47.5 -71.5t71.5 -47.5q41 -18 87 -18q21 0 40.5 3.5t38.5 11.5
q44 -38 97.5 -58.5t111.5 -20.5t111.5 20.5t97.5 58.5q19 -8 38.5 -11.5t40.5 -3.5q46 0 87 18q41 17 71.5 47.5t47.5 71.5q18 41 18 87t-18 87q-17 41 -47.5 71.5t-71.5 47.5q-41 18 -87 18v0zM800 384q-26 0 -49 8t-43 21q-35 -42 -86 -67.5t-110 -25.5t-110 25.5
t-86 67.5q-20 -13 -43 -21t-49 -8q-66 0 -113 47t-47 113t47 113t113 47q16 0 31.5 -3t29.5 -9q32 62 92 101t135 39t135 -39t92 -101q14 6 29.5 9t31.5 3q66 0 113 -47t47 -113t-47 -113t-113 -47v0zM448 64q0 -27 18.5 -45.5t45.5 -18.5t45.5 18.5t18.5 45.5t-32 77.5
l-32 50.5l-32 -50.5t-32 -77.5z" />
    <glyph glyph-name="uniE67D" unicode="&#xe67d;" 
d="M800 832q-8 0 -16 -0.5t-16 -1.5q-44 61 -111.5 95.5t-144.5 34.5t-144.5 -34.5t-111.5 -95.5q-8 1 -16 1.5t-16 0.5q-46 0 -87 -18q-41 -17 -71.5 -47.5t-47.5 -71.5q-18 -41 -18 -87t18 -87q17 -41 47.5 -71.5t71.5 -47.5q41 -18 87 -18q21 0 40.5 3.5t38.5 11.5
q44 -38 97.5 -58.5t111.5 -20.5t111.5 20.5t97.5 58.5q19 -8 38.5 -11.5t40.5 -3.5q46 0 87 18q41 17 71.5 47.5t47.5 71.5q18 41 18 87t-18 87q-17 41 -47.5 71.5t-71.5 47.5q-41 18 -87 18v0zM800 448q-26 0 -49 8t-43 21q-35 -42 -86 -67.5t-110 -25.5t-110 25.5
t-86 67.5q-20 -13 -43 -21t-49 -8q-66 0 -113 47t-47 113t47 113t113 47q16 0 31.5 -3t29.5 -9q32 62 92 101t135 39t135 -39t92 -101q14 6 29.5 9t31.5 3q66 0 113 -47t47 -113t-47 -113t-113 -47zM450 0q0 -27 18.5 -45.5t45.5 -18.5t45.5 18.5t18.5 45.5t-32 77.5
l-32 50.5l-32 -50.5t-32 -77.5zM704 64q0 -27 18.5 -45.5t45.5 -18.5t45.5 18.5t18.5 45.5t-32 77.5l-32 50.5l-32 -50.5t-32 -77.5zM192 192q0 -27 18.5 -45.5t45.5 -18.5t45.5 18.5t18.5 45.5t-32 77.5l-32 50.5l-32 -50.5t-32 -77.5z" />
    <glyph glyph-name="uniE67E" unicode="&#xe67e;" 
d="M834 628q-36 37 -83.5 57t-99.5 20t-100 -20t-84 -57q-79 -4 -134.5 -61.5t-55.5 -137.5q0 -42 16 -78t43 -63t63 -43t78 -16q8 0 17 1t17 2q31 -20 66.5 -30.5t73.5 -10.5q37 0 72.5 10.5t66.5 30.5q9 -1 17.5 -2t17.5 -1q41 0 77 16q37 16 64 43t42 63q16 36 16 78
q0 80 -55.5 137.5t-134.5 61.5v0zM825 293q-13 0 -25 2.5t-23 6.5q-26 -23 -58.5 -35t-67.5 -12t-67.5 12t-58.5 35q-12 -4 -24 -6.5t-24 -2.5q-56 0 -96 40t-40 96t40 95.5t96 39.5q4 0 9 -0.5t10 -0.5q27 37 67.5 57.5t87.5 20.5q46 0 87 -20.5t68 -57.5q4 0 9 0.5t10 0.5
q56 0 95.5 -39.5t39.5 -95.5t-39.5 -96t-95.5 -40zM288 256h-256q-13 0 -22.5 -9.5t-9.5 -22.5t9.5 -22.5t22.5 -9.5h256q13 0 22.5 9.5t9.5 22.5t-9.5 22.5t-22.5 9.5zM32 320h128q13 0 22.5 9.5t9.5 22.5t-9.5 22.5t-22.5 9.5h-128q-13 0 -22.5 -9.5t-9.5 -22.5t9.5 -22.5
t22.5 -9.5zM96 448h128q13 0 22.5 9.5t9.5 22.5t-9.5 22.5t-22.5 9.5h-128q-13 0 -22.5 -9.5t-9.5 -22.5t9.5 -22.5t22.5 -9.5z" />
    <glyph glyph-name="uniE67F" unicode="&#xe67f;" 
d="M834 818q-36 37 -83.5 57.5t-99.5 20.5t-100 -20.5t-84 -57.5q-79 -3 -134.5 -61t-55.5 -138q0 -41 16 -77q16 -37 43 -64t63 -42q36 -16 78 -16q8 0 17 0.5t17 2.5q31 -20 66.5 -31t73.5 -11q37 0 72.5 11t66.5 31q9 -2 17.5 -2.5t17.5 -0.5q41 0 77 16q37 15 64 42
t42 64q16 36 16 77q0 80 -55.5 138t-134.5 61zM825 484q-13 0 -25 2t-23 7q-26 -23 -58.5 -35.5t-67.5 -12.5t-67.5 12.5t-58.5 35.5q-12 -5 -24 -7t-24 -2q-56 0 -96 39.5t-40 95.5t40 96t96 40q4 0 9 -0.5t10 -1.5q27 37 67.5 58t87.5 21q46 0 87 -21t68 -58q4 1 9 1.5
t10 0.5q56 0 95.5 -40t39.5 -96t-39.5 -95.5t-95.5 -39.5v0zM288 447h-256q-13 0 -22.5 -9.5t-9.5 -22.5q0 -14 9.5 -23t22.5 -9h256q13 0 22.5 9t9.5 23q0 13 -9.5 22.5t-22.5 9.5zM32 511h128q13 0 22.5 9t9.5 23q0 13 -9.5 22.5t-22.5 9.5h-128q-13 0 -22.5 -9.5
t-9.5 -22.5q0 -14 9.5 -23t22.5 -9zM96 639h128q13 0 22.5 9t9.5 23q0 13 -9.5 22.5t-22.5 9.5h-128q-13 0 -22.5 -9.5t-9.5 -22.5q0 -14 9.5 -23t22.5 -9zM448 192q0 -27 18.5 -45.5t45.5 -18.5t45.5 18.5t18.5 45.5t-32 77.5l-32 50.5l-32 -50.5t-32 -77.5zM704 64
q0 -27 18.5 -45.5t45.5 -18.5t45.5 18.5t18.5 45.5t-32 77.5l-32 50.5l-32 -50.5t-32 -77.5z" />
    <glyph glyph-name="uniE680" unicode="&#xe680;" 
d="M652 73l-36 20q1 5 1.5 10t0.5 10t-0.5 9.5t-1.5 9.5l36 21q13 7 16.5 21t-3.5 27t-21.5 16.5t-26.5 -3.5l-37 -21q-7 6 -15 11t-18 8v42q0 15 -10 25t-25 10t-25 -10t-10 -25v-42q-10 -3 -18 -8t-15 -11l-37 21q-12 7 -26.5 3.5t-21.5 -16.5t-3.5 -27t16.5 -21l36 -21
q-1 -5 -1.5 -9.5t-0.5 -9.5t0.5 -10t1.5 -10l-36 -20q-13 -8 -16.5 -22t3.5 -27q7 -12 21.5 -16t26.5 3l37 21q7 -6 15 -11t18 -8v-42q0 -14 10 -24.5t25 -10.5t25 10.5t10 24.5v42q10 3 18 8t15 11l37 -21q12 -7 26.5 -3t21.5 16q7 13 3.5 27t-16.5 22v0zM512 77
q-15 0 -25 10.5t-10 25.5q0 14 10 24.5t25 10.5t25 -10.5t10 -24.5q0 -15 -10 -25.5t-25 -10.5zM800 832q-8 0 -16 -0.5t-16 -1.5q-44 61 -111.5 95.5t-144.5 34.5t-144.5 -34.5t-111.5 -95.5q-8 1 -16 1.5t-16 0.5q-46 0 -87 -18q-41 -17 -71.5 -47.5t-47.5 -71.5
q-18 -41 -18 -87t18 -87q17 -41 47.5 -71.5t71.5 -47.5q41 -18 87 -18q21 0 40.5 3.5t38.5 11.5q44 -38 97.5 -58.5t111.5 -20.5t111.5 20.5t97.5 58.5q19 -8 38.5 -11.5t40.5 -3.5q46 0 87 18q41 17 71.5 47.5t47.5 71.5q18 41 18 87t-18 87q-17 41 -47.5 71.5t-71.5 47.5
q-41 18 -87 18v0zM800 448q-26 0 -49 8t-43 21q-35 -42 -86 -67.5t-110 -25.5t-110 25.5t-86 67.5q-20 -13 -43 -21t-49 -8q-66 0 -113 47t-47 113t47 113t113 47q16 0 31.5 -3t29.5 -9q32 62 92 101t135 39t135 -39t92 -101q14 6 29.5 9t31.5 3q66 0 113 -47t47 -113
t-47 -113t-113 -47z" />
    <glyph glyph-name="uniE681" unicode="&#xe681;" 
d="M652 265l-36 20q1 5 1.5 10t0.5 10t-0.5 9.5t-1.5 9.5l36 21q13 7 16.5 21t-3.5 27t-21.5 16.5t-26.5 -3.5l-37 -21q-7 6 -15 11t-18 8v42q0 15 -10 25t-25 10t-25 -10t-10 -25v-42q-10 -3 -18 -8t-15 -11l-37 21q-12 7 -26.5 3.5t-21.5 -16.5t-3.5 -27t16.5 -21l36 -21
q-1 -5 -1.5 -9.5t-0.5 -9.5t0.5 -10t1.5 -10l-36 -20q-13 -8 -16.5 -22t3.5 -27q7 -12 21.5 -16t26.5 3l37 21q7 -6 15 -11t18 -8v-42q0 -14 10 -24.5t25 -10.5t25 10.5t10 24.5v42q10 3 18 8t15 11l37 -21q12 -7 26.5 -3t21.5 16q7 13 3.5 27t-16.5 22v0zM512 269
q-15 0 -25 10.5t-10 25.5q0 14 10 24.5t25 10.5t25 -10.5t10 -24.5q0 -15 -10 -25.5t-25 -10.5zM800 832q-8 0 -16 -0.5t-16 -1.5q-44 61 -111.5 95.5t-144.5 34.5t-144.5 -34.5t-111.5 -95.5q-8 1 -16 1.5t-16 0.5q-46 0 -87 -18q-41 -17 -71.5 -47.5t-47.5 -71.5
q-18 -41 -18 -87t18 -87q17 -41 47.5 -71.5t71.5 -47.5q41 -18 87 -18q18 0 35 3t34 9q1 7 4 14.5t7 14.5q6 10 14 18.5t18 14.5q-5 5 -10.5 9.5t-9.5 9.5q-20 -13 -43 -21t-49 -8q-66 0 -113 47t-47 113t47 113t113 47q16 0 31.5 -3t29.5 -9q32 62 92 101t135 39t135 -39
t92 -101q14 6 29.5 9t31.5 3q66 0 113 -47t47 -113t-47 -113t-113 -47q-26 0 -49 8t-43 21q-4 -5 -9.5 -9.5t-10.5 -9.5q10 -6 18.5 -14.5t13.5 -18.5q4 -7 7 -14.5t4 -14.5q17 -6 34 -9t35 -3q46 0 87 18q41 17 71.5 47.5t47.5 71.5q18 41 18 87t-18 87q-17 41 -47.5 71.5
t-71.5 47.5q-41 18 -87 18v0z" />
    <glyph glyph-name="uniE682" unicode="&#xe682;" 
d="M652 73l-36 20q1 5 1.5 10t0.5 10t-0.5 9.5t-1.5 9.5l36 21q13 7 16.5 21t-3.5 27t-21.5 16.5t-26.5 -3.5l-37 -21q-7 6 -15 11t-18 8v42q0 15 -10 25t-25 10t-25 -10t-10 -25v-42q-10 -3 -18 -8t-15 -11l-37 21q-12 7 -26.5 3.5t-21.5 -16.5t-3.5 -27t16.5 -21l36 -21
q-1 -5 -1.5 -9.5t-0.5 -9.5t0.5 -10t1.5 -10l-36 -20q-13 -8 -16.5 -22t3.5 -27q7 -12 21.5 -16t26.5 3l37 21q7 -6 15 -11t18 -8v-42q0 -14 10 -24.5t25 -10.5t25 10.5t10 24.5v42q10 3 18 8t15 11l37 -21q12 -7 26.5 -3t21.5 16q7 13 3.5 27t-16.5 22v0zM512 77
q-15 0 -25 10.5t-10 25.5q0 14 10 24.5t25 10.5t25 -10.5t10 -24.5q0 -15 -10 -25.5t-25 -10.5zM948 167l-24 7q0 6 -1.5 11.5t-4.5 10.5l18 17q6 7 6 15.5t-6 14.5t-15 6t-15 -6l-17 -17q-6 2 -11.5 3.5t-10.5 1.5l-7 24q-2 9 -9.5 13.5t-15.5 1.5q-9 -2 -13 -9.5t-2 -15.5
l6 -24q-2 -2 -4.5 -3.5t-4.5 -4.5q-2 -2 -3.5 -4t-3.5 -4l-24 6q-8 2 -15.5 -2.5t-10.5 -12.5q-2 -8 2.5 -15.5t12.5 -10.5l24 -6q1 -6 2.5 -11.5t3.5 -10.5l-18 -18q-6 -6 -6 -14.5t7 -14.5q6 -6 14.5 -6t14.5 6l18 17q5 -2 10.5 -3.5t11.5 -2.5l6 -24q2 -8 9.5 -12.5
t16.5 -2.5q8 3 12.5 10.5t2.5 15.5l-7 24q3 2 5 3.5t4 3.5t4 4.5t4 4.5l23 -6q9 -2 16.5 2t9.5 13q2 8 -2 15.5t-13 9.5v0zM877 154q-7 -6 -15.5 -6t-14.5 6t-6 15t6 15t14.5 6t15.5 -6q6 -6 6 -15t-6 -15zM238 275l-24 -6q-2 2 -3.5 4t-3.5 4q-2 3 -4.5 4.5t-4.5 3.5l6 24
q3 8 -1.5 15.5t-12.5 9.5q-9 3 -16.5 -1.5t-9.5 -12.5l-7 -25q-5 0 -10.5 -1.5t-11.5 -3.5l-17 17q-6 6 -15 6t-15 -6t-6 -14.5t6 -15.5l18 -17q-3 -5 -4.5 -10.5t-1.5 -11.5l-24 -6q-9 -3 -13 -10.5t-2 -15.5q2 -9 9.5 -13t16.5 -2l23 6q2 -2 4 -4.5t4 -4.5t4 -3.5t5 -3.5
l-7 -24q-2 -8 2.5 -15.5t12.5 -9.5q9 -3 16.5 1.5t9.5 12.5l6 24q6 1 11.5 2.5t10.5 3.5l18 -17q6 -7 14.5 -6.5t15.5 6.5q6 6 6 14.5t-6 14.5l-18 18q2 5 3.5 10.5t2.5 11.5l24 6q8 3 12.5 10.5t2.5 15.5q-3 8 -10.5 12.5t-15.5 2.5zM177 218q-6 -6 -14.5 -6t-15.5 6
q-6 6 -6 15t6 15q7 6 15.5 6t14.5 -6t6 -15t-6 -15zM1024 608q0 46 -18 87q-17 41 -47.5 71.5t-71.5 47.5q-41 18 -87 18q-8 0 -16 -0.5t-16 -1.5q-44 61 -111.5 95.5t-144.5 34.5t-144.5 -34.5t-111.5 -95.5q-8 1 -16 1.5t-16 0.5q-46 0 -87 -18q-41 -17 -71.5 -47.5
t-47.5 -71.5q-18 -41 -18 -87t18 -87q17 -41 47.5 -71.5t71.5 -47.5q41 -18 87 -18q21 0 40.5 3.5t38.5 11.5q44 -38 97.5 -58.5t111.5 -20.5t111.5 20.5t97.5 58.5q19 -8 38.5 -11.5t40.5 -3.5q46 0 87 18q41 17 71.5 47.5t47.5 71.5q18 41 18 87v0zM708 477
q-35 -42 -86 -67.5t-110 -25.5t-110 25.5t-86 67.5q-20 -13 -43 -21t-49 -8q-66 0 -113 47t-47 113t47 113t113 47q16 0 31.5 -3t29.5 -9q32 62 92 101t135 39t135 -39t92 -101q14 6 29.5 9t31.5 3q66 0 113 -47t47 -113t-47 -113t-113 -47q-26 0 -49 8t-43 21z" />
    <glyph glyph-name="uniE683" unicode="&#xe683;" 
d="M800 832q-8 0 -16 -0.5t-16 -1.5q-44 61 -111.5 95.5t-144.5 34.5t-144.5 -34.5t-111.5 -95.5q-8 1 -16 1.5t-16 0.5q-46 0 -87 -18q-41 -17 -71.5 -47.5t-47.5 -71.5q-18 -41 -18 -87t18 -87q17 -41 47.5 -71.5t71.5 -47.5q41 -18 87 -18q21 0 40.5 3.5t38.5 11.5
q44 -38 97.5 -58.5t111.5 -20.5t111.5 20.5t97.5 58.5q19 -8 38.5 -11.5t40.5 -3.5q46 0 87 18q41 17 71.5 47.5t47.5 71.5q18 41 18 87t-18 87q-17 41 -47.5 71.5t-71.5 47.5q-41 18 -87 18v0zM800 448q-15 0 -29 2.5t-27 7.5l-36 14l-29 -25q-35 -31 -78 -47t-89 -16
t-89 16t-77 47l-29 25l-36 -14q-14 -5 -28 -7.5t-29 -2.5q-66 0 -113 47t-47 113t47 113t113 47q6 0 11.5 -0.5t10.5 -1.5l38 -5l23 31q37 49 90.5 76.5t114.5 27.5t114.5 -27t90.5 -77l23 -31l38 5q5 1 10.5 1.5t11.5 0.5q66 0 113 -47t47 -113t-47 -113t-113 -47v0z
M192 320q-27 0 -45.5 -18.5t-18.5 -45.5t18.5 -45.5t45.5 -18.5t45.5 18.5t18.5 45.5t-18.5 45.5t-45.5 18.5zM512 256q-27 0 -45.5 -18.5t-18.5 -45.5t18.5 -45.5t45.5 -18.5t45.5 18.5t18.5 45.5t-18.5 45.5t-45.5 18.5zM832 320q-27 0 -45.5 -18.5t-18.5 -45.5
t18.5 -45.5t45.5 -18.5t45.5 18.5t18.5 45.5t-18.5 45.5t-45.5 18.5zM704 64q-27 0 -45.5 -18.5t-18.5 -45.5t18.5 -45.5t45.5 -18.5t45.5 18.5t18.5 45.5t-18.5 45.5t-45.5 18.5zM320 64q-27 0 -45.5 -18.5t-18.5 -45.5t18.5 -45.5t45.5 -18.5t45.5 18.5t18.5 45.5
t-18.5 45.5t-45.5 18.5z" />
    <glyph glyph-name="uniE684" unicode="&#xe684;" 
d="M1024 480q0 74 -52.5 126t-125.5 52h-7.5h-7.5q-34 43 -84 67.5t-107 24.5t-107 -24.5t-84 -67.5h-7.5h-7.5q-73 0 -125.5 -52t-52.5 -126q0 -8 1 -15.5t2 -14.5l-2 -2t-1 -2q-8 1 -16 1.5t-16 0.5q-46 0 -87 -18q-41 -17 -71.5 -47.5t-47.5 -71.5q-18 -41 -18 -87
t18 -87q17 -41 47.5 -71.5t71.5 -47.5q41 -18 87 -18q21 0 40.5 3.5t38.5 11.5q44 -38 97.5 -58.5t111.5 -20.5t111.5 20.5t97.5 58.5q19 -8 38.5 -11.5t40.5 -3.5q46 0 87 18q41 17 71.5 47.5t47.5 71.5q18 41 18 87q0 39 -12.5 73.5t-34.5 62.5q22 24 34.5 54.5t12.5 65.5
v0zM800 64q-26 0 -49 8t-43 21q-35 -42 -86 -67.5t-110 -25.5t-110 25.5t-86 67.5q-20 -13 -43 -21t-49 -8q-66 0 -113 47t-47 113t47 113t113 47q16 0 31.5 -3t29.5 -9q1 1 2 2.5t1 3.5q9 15 19.5 29t22.5 27q34 36 81 57t101 21q75 0 135 -39t92 -101q9 3 18 5.5t18 3.5
l25 3q19 0 36 -4.5t33 -11.5q17 -8 31 -20t26 -26q16 -21 25 -45.5t9 -52.5q0 -66 -47 -113t-113 -47zM931 405q-28 20 -61 31.5t-70 11.5q-8 0 -16 -0.5t-16 -1.5q-44 61 -111.5 95.5t-144.5 34.5q-51 0 -98.5 -16t-87.5 -45q11 35 40.5 57t67.5 22q12 0 23 -2t21 -6
q23 44 66 72t96 28t96 -28t66 -72q10 4 21 6t23 2q47 0 80.5 -33.5t33.5 -80.5q0 -22 -8 -41t-21 -34z" />
    <glyph glyph-name="uniE685" unicode="&#xe685;" 
d="M1024 690q0 74 -52.5 126.5t-125.5 52.5q-4 0 -7.5 -0.5t-7.5 -0.5q-34 43 -84 67.5t-107 24.5t-107 -24.5t-84 -67.5q-4 0 -7.5 0.5t-7.5 0.5q-73 0 -125.5 -52.5t-52.5 -126.5q0 -7 1 -14.5t2 -15.5l-2 -2t-1 -2q-8 1 -16 1.5t-16 0.5q-46 0 -87 -17
q-41 -18 -71.5 -48.5t-47.5 -71.5q-18 -40 -18 -87q0 -46 18 -87q17 -41 47.5 -71t71.5 -48t87 -18q21 0 40.5 4t38.5 11q28 -24 60 -40.5t67 -25.5l-46 -31l64 -64l-64 -128l192 128l-64 64l10 19q55 2 106 22t93 56q19 -7 38.5 -11t40.5 -4q46 0 87 18t71.5 48t47.5 71
q18 41 18 87q0 39 -12.5 73.5t-34.5 62.5q22 24 34.5 55t12.5 65v0zM800 274q-26 0 -49 8t-43 22q-28 -35 -67.5 -58t-84.5 -31l-48 -4q-58 1 -108 26t-84 67q-20 -14 -43 -22t-49 -8q-66 0 -113 47t-47 113q0 67 47 113.5t113 46.5q16 0 31.5 -3t29.5 -9q1 2 2 3.5t2 2.5
q8 16 18.5 30t22.5 26q34 36 81 57t101 21q75 0 135 -39t92 -101q9 4 18 6l18 4l25 2q19 0 36 -4t33 -12q17 -8 31 -19.5t26 -26.5q16 -20 25 -45t9 -53q0 -66 -47 -113t-113 -47v0zM931 615q-28 20 -61 31.5t-70 11.5q-8 0 -16 -0.5t-16 -1.5q-44 61 -111.5 95.5
t-144.5 34.5q-51 0 -98.5 -15.5t-87.5 -44.5q11 34 40.5 56.5t67.5 22.5q12 0 23 -2.5t21 -6.5q23 44 66 72t96 28t96 -28t66 -72q10 4 21 6.5t23 2.5q47 0 80.5 -33.5t33.5 -81.5q0 -21 -8 -40.5t-21 -34.5z" />
    <glyph glyph-name="uniE686" unicode="&#xe686;" 
d="M384 192l64 -64l-64 -192l192 192l-64 64l64 128zM1024 690q0 74 -52.5 126.5t-125.5 52.5q-4 0 -7.5 -0.5t-7.5 -0.5q-34 43 -84 67.5t-107 24.5t-107 -24.5t-84 -67.5q-4 0 -7.5 0.5t-7.5 0.5q-73 0 -125.5 -52.5t-52.5 -126.5q0 -7 1 -14.5t2 -15.5l-2 -2t-1 -2
q-8 1 -16 1.5t-16 0.5q-46 0 -87 -17q-41 -18 -71.5 -48.5t-47.5 -71.5q-18 -40 -18 -87q0 -46 18 -87q17 -41 47.5 -71t71.5 -48t87 -18q21 0 40.5 4t38.5 11q2 -1 4 -2.5t3 -2.5l57 38q-14 10 -27 21t-24 25q-20 -14 -43 -22t-49 -8q-66 0 -113 47t-47 113q0 67 47 113.5
t113 46.5q16 0 31.5 -3t29.5 -9q1 2 2 3.5t1 2.5q9 16 19.5 30t22.5 26q34 36 81 57t101 21q75 0 135 -39t92 -101q9 4 18 6l18 4l25 2q18 0 35.5 -4t33.5 -12q17 -8 31 -19.5t26 -26.5q16 -20 25 -45t9 -53q0 -66 -47 -113t-113 -47q-26 0 -49 8t-43 22q-21 -26 -48 -44.5
t-58 -30.5l-12 -24l36 -37q26 10 49.5 24.5t45.5 32.5q19 -7 38.5 -11t40.5 -4q46 0 87 18t71.5 48t47.5 71q18 41 18 87q0 39 -12.5 73.5t-34.5 62.5q22 24 34.5 55t12.5 65v0zM931 615q-28 20 -61 31.5t-70 11.5q-8 0 -16 -0.5t-16 -1.5q-44 61 -111.5 95.5t-144.5 34.5
q-51 0 -98.5 -15.5t-87.5 -44.5q11 34 40.5 56.5t67.5 22.5q12 0 23 -2.5t21 -6.5q23 44 66 72t96 28t96 -28t66 -72q10 4 21 6.5t23 2.5q47 0 80.5 -33.5t33.5 -81.5q0 -21 -8 -40.5t-21 -34.5z" />
    <glyph glyph-name="uniE687" unicode="&#xe687;" 
d="M512 672q-46 0 -87 -18q-41 -17 -71.5 -47.5t-47.5 -71.5q-18 -41 -18 -87t18 -87q17 -41 47.5 -71.5t71.5 -47.5q41 -18 87 -18t87 18q41 17 71.5 47.5t47.5 71.5q18 41 18 87t-18 87q-17 41 -47.5 71.5t-71.5 47.5q-41 18 -87 18zM512 736q13 0 22.5 9.5t9.5 22.5v64
q0 13 -9.5 22.5t-22.5 9.5t-22.5 -9.5t-9.5 -22.5v-64q0 -13 9.5 -22.5t22.5 -9.5zM512 160q-13 0 -22.5 -9.5t-9.5 -22.5v-64q0 -13 9.5 -22.5t22.5 -9.5t22.5 9.5t9.5 22.5v64q0 13 -9.5 22.5t-22.5 9.5zM761 652l45 45q9 9 9 22.5t-9 22.5q-9 10 -22.5 10t-22.5 -10
l-45 -45q-10 -9 -10 -22.5t10 -22.5q9 -10 22 -10t23 10zM263 244l-45 -45q-10 -9 -10 -22.5t10 -22.5q9 -10 22.5 -10t22.5 10l45 45q10 9 10 22.5t-10 22.5q-9 10 -22.5 10t-22.5 -10zM224 448q0 13 -9.5 22.5t-22.5 9.5h-64q-13 0 -22.5 -9.5t-9.5 -22.5t9.5 -22.5
t22.5 -9.5h64q13 0 22.5 9.5t9.5 22.5zM896 480h-64q-13 0 -22.5 -9.5t-9.5 -22.5t9.5 -22.5t22.5 -9.5h64q13 0 22.5 9.5t9.5 22.5t-9.5 22.5t-22.5 9.5zM263 652q9 -10 22.5 -10t22.5 10q10 9 10 22.5t-10 22.5l-45 45q-9 10 -22.5 10t-22.5 -10q-10 -9 -10 -22.5
t10 -22.5zM761 244q-10 10 -23 10t-22 -10q-10 -9 -10 -22t10 -23l45 -45q9 -9 22.5 -9t22.5 9q10 9 10 22.5t-10 22.5z" />
    <glyph glyph-name="uniE688" unicode="&#xe688;" 
d="M496 432q-47 47 -60 110.5t8 122.5q-23 -8 -44 -21t-40 -31q-32 -33 -49 -74q-16 -41 -16 -84t16 -85q17 -41 49 -74q33 -32 74 -49q42 -16 85 -16t84 16q41 17 74 49q19 19 31.5 40t20.5 44q-59 -21 -122.5 -8t-110.5 60v0z" />
    <glyph glyph-name="uniE689" unicode="&#xe689;" 
d="M416 832q13 0 22.5 9.5t9.5 22.5v64q0 13 -9.5 22.5t-22.5 9.5t-22.5 -9.5t-9.5 -22.5v-64q0 -13 9.5 -22.5t22.5 -9.5zM665 748l45 45q9 9 9 22.5t-9 22.5q-9 10 -22.5 10t-22.5 -10l-45 -45q-10 -9 -10 -22.5t10 -22.5q9 -10 22.5 -10t22.5 10zM32 512h64
q13 0 22.5 9.5t9.5 22.5t-9.5 22.5t-22.5 9.5h-64q-13 0 -22.5 -9.5t-9.5 -22.5t9.5 -22.5t22.5 -9.5zM704 544q0 -13 9.5 -22.5t22.5 -9.5h64q13 0 22.5 9.5t9.5 22.5t-9.5 22.5t-22.5 9.5h-64q-13 0 -22.5 -9.5t-9.5 -22.5zM167 748q9 -10 22.5 -10t22.5 10q10 9 10 22.5
t-10 22.5l-45 45q-9 10 -22.5 10t-22.5 -10q-10 -9 -10 -22.5t10 -22.5zM800 448q-8 0 -16 -0.5t-16 -1.5q-25 34 -57.5 60t-70.5 43q-1 45 -19 85t-48.5 70t-70.5 47t-86 17t-87 -18q-41 -17 -71.5 -47.5t-47.5 -71.5q-18 -41 -18 -87q0 -26 6 -50.5t17 -46.5
q-45 -2 -84 -20t-68 -48t-46 -70t-17 -85q0 -46 18 -87q17 -41 47.5 -71.5t71.5 -47.5q41 -18 87 -18q21 0 40.5 3.5t38.5 11.5q44 -38 97.5 -58.5t111.5 -20.5t111.5 20.5t97.5 58.5q19 -8 38.5 -11.5t40.5 -3.5q46 0 87 18q41 17 71.5 47.5t47.5 71.5q18 41 18 87t-18 87
q-17 41 -47.5 71.5t-71.5 47.5q-41 18 -87 18v0zM512 576q-69 0 -130.5 -28t-106.5 -78q-9 16 -14 35t-5 39q0 66 47 113t113 47q60 0 104 -38.5t53 -95.5l-30 4t-31 2v0z" />
    <glyph glyph-name="uniE68A" unicode="&#xe68a;" 
d="M870 436q7 5 14.5 10.5t14.5 12.5q19 20 34 44t25 52q3 8 1 17t-8 16q-7 6 -16 8.5t-18 -1.5q-53 -18 -106.5 -6t-92.5 51q-40 39 -52 93t7 107q3 8 1 17t-8 16q-7 7 -16 9t-18 -1q-28 -10 -52 -25t-43 -35q-51 -50 -67 -116.5t2 -131.5q-65 -8 -121.5 -41t-94.5 -86
q-8 1 -16 1.5t-16 0.5q-46 0 -87 -18q-41 -17 -71.5 -47.5t-47.5 -71.5q-18 -41 -18 -87t18 -87q17 -41 47.5 -71.5t71.5 -47.5q41 -18 87 -18q21 0 40.5 3.5t38.5 11.5q44 -38 97.5 -58.5t111.5 -20.5t111.5 20.5t97.5 58.5q19 -8 38.5 -11.5t40.5 -3.5q46 0 87 18
q41 17 71.5 47.5t47.5 71.5q18 41 18 87q0 74 -43.5 131.5t-110.5 80.5zM582 776q4 4 8 7.5t8 6.5q-3 -54 16 -105t58 -90q40 -40 91 -59t105 -16q-21 -26 -48.5 -42.5t-57.5 -23.5q-41 52 -99.5 83.5t-124.5 36.5q-19 51 -8 106t52 96v0z" />
    </font>
</defs>
</svg>
