<?xml version="1.0" ?><svg viewBox="0 0 64 64" xmlns="http://www.w3.org/2000/svg"><g id="a"/><g id="b"/><g id="c"/><g id="d"/><g id="e"/><g id="f"/><g id="g"/><g id="h"/><g id="i"/><g id="j"/><g id="k"/><g id="l"/><g id="m"/><g id="n"/><g id="o"/><g id="p"/><g id="q"/><g id="r"/><g id="s"/><g id="t"/><g id="u"/><g id="v"/><g id="w"/><g id="x"/><g id="y"/><g id="a`"/><g id="aa"/><g id="ab"/><g id="ac"/><g id="ad"/><g id="ae"/><g id="af"/><g id="ag"/><g id="ah"/><g id="ai"/><g id="aj"/><g id="ak"/><g id="al"/><g id="am"/><g id="an"/><g id="ao"/><g id="ap"/><g id="aq"/><g id="ar"/><g id="as"/><g id="at"><path d="M57.04,43.16h-3.24c-1.32-6.88-1.72-14.23-1.82-16.62,1.02-.41,1.75-1.4,1.75-2.57,0-1.53-1.25-2.78-2.78-2.78h-1.48v-1.07h2.3c1.74,0,3.15-1.41,3.15-3.15s-1.41-3.15-3.15-3.15h-2.87c-.63,0-1.15-.52-1.15-1.15s.5-1.14,1.15-1.14h7.37c1.74,0,3.15-1.41,3.15-3.15s-1.41-3.15-3.15-3.15h-12.37c-2.39,0-4.33,1.94-4.33,4.33,0,1.56-1.27,2.83-2.83,2.83h-2.05c-1.74,0-3.15,1.41-3.15,3.15s1.41,3.15,3.15,3.15h1.47c.59,0,1.22,.73,1.22,1.42v1.08h-1.48c-1.53,0-2.78,1.25-2.78,2.78,0,1.17,.73,2.16,1.75,2.57-.07,1.79-.32,6.36-.99,11.43-.46-.4-1.04-.71-1.76-.86l-1.52-.32c-.22-2.34-.33-4.27-.38-5.29,.89-.4,1.52-1.29,1.52-2.33,0-1.41-1.15-2.55-2.55-2.55h-11.65c-1.41,0-2.55,1.14-2.55,2.55,0,1.04,.63,1.93,1.52,2.33-.04,.94-.13,2.64-.32,4.72l-3.69-.79c-.71-.15-1.43,.03-2.03,.51-.71,.57-1.14,1.5-1.14,2.43v4.78h-2.36c-1.63,0-2.96,1.33-2.96,2.96v9.69c0,1.64,1.33,2.97,2.96,2.97H57.04c1.63,0,2.96-1.33,2.96-2.97v-9.69c0-1.63-1.33-2.96-2.96-2.96Zm.96,2.96v.79c-.3-.11-.62-.19-.96-.19h-1.45c.08-.25,.16-.5,.16-.78s-.08-.53-.16-.78h1.45c.53,0,.96,.43,.96,.96Zm-21.15-19.37h13.13c.11,2.54,.52,9.66,1.78,16.41h-16.69c1.26-6.75,1.67-13.87,1.78-16.41Zm-1.99,18.41h18.12c.44,0,.78,.34,.78,.78s-.35,.78-.78,.78h-18.12v-1.56Zm1.29-28.47h-1.47c-.63,0-1.15-.52-1.15-1.15s.52-1.15,1.15-1.15h2.05c2.66,0,4.83-2.17,4.83-4.83,0-1.28,1.04-2.33,2.33-2.33h12.37c.63,0,1.15,.52,1.15,1.15s-.52,1.15-1.15,1.15h-7.37c-1.74,0-3.15,1.41-3.15,3.14s1.41,3.15,3.15,3.15h2.87c.63,0,1.15,.52,1.15,1.15s-.52,1.15-1.15,1.15h-3.3c-.55,0-1,.45-1,1v2.07h-8.1v-1.08c0-1.79-1.53-3.42-3.22-3.42Zm-.26,6.5h15.06c.43,0,.78,.35,.78,.78s-.34,.78-.78,.78h-15.06c-.44,0-.78-.34-.78-.78s.35-.78,.78-.78Zm-3.03,16.86v6.67h-3.88v-3.08c0-.55-.45-1-1-1s-1,.45-1,1v3.08h-3.88v-8.34c0-.32,.17-.68,.4-.88,.18-.14,.3-.12,.35-.11l7.85,1.67c.35,.07,1.17,.31,1.17,.98Zm-15.32-11.43h11.65c.31,0,.55,.24,.55,.55s-.25,.56-.55,.56h-11.65c-.31,0-.55-.25-.55-.56s.24-.55,.55-.55Zm.96,3.11h9.72c.04,.98,.14,2.63,.32,4.62l-4.28-.91c-.71-.15-1.43,.03-2.03,.51-.46,.37-.75,.92-.93,1.5-.3-.14-.61-.26-.96-.34l-2.18-.46c.2-2.12,.3-3.9,.35-4.92Zm-7.18,6.65c0-.32,.17-.68,.4-.88,.18-.14,.3-.12,.35-.11l7.85,1.67c.35,.07,1.16,.31,1.16,.98v6.67h-3.88v-3.08c0-.55-.45-1-1-1s-1,.45-1,1v3.08h-3.88v-8.34Zm-4.36,6.78h2.36v1.56h-2.36c-.34,0-.66,.09-.96,.19v-.79c0-.53,.43-.96,.96-.96Zm51.04,10.65c0,.54-.43,.97-.96,.97H6.96c-.53,0-.96-.44-.96-.97v-6.13c0-.54,.42-.96,.96-.96H57.04c.54,0,.96,.42,.96,.96v6.13Z"/><path d="M25.35,11.53h6.35c1.74,0,3.15-1.41,3.15-3.15s-1.41-3.15-3.15-3.15h-6.35c-1.74,0-3.15,1.41-3.15,3.15s1.41,3.15,3.15,3.15Zm0-4.3h6.35c.63,0,1.15,.52,1.15,1.15s-.52,1.15-1.15,1.15h-6.35c-.63,0-1.15-.52-1.15-1.15s.52-1.15,1.15-1.15Z"/><path d="M8.95,18.5h1.89c.18,0,.33,.15,.33,.33s-.14,.34-.33,.34h-.61c-1.6,0-2.9,1.3-2.9,2.9s1.3,2.9,2.9,2.9h13.64c1.6,0,2.9-1.3,2.9-2.9s-1.3-2.9-2.9-2.9h-5.38c-.19,0-.33-.15-.33-.34s.15-.33,.33-.33h.81c1.6,0,2.9-1.3,2.9-2.9s-1.3-2.9-2.9-2.9H8.95c-1.6,0-2.9,1.3-2.9,2.9s1.3,2.9,2.9,2.9Zm0-3.8h10.35c.51,0,.9,.4,.9,.9s-.4,.9-.9,.9h-.81c-1.29,0-2.33,1.05-2.33,2.33s1.05,2.34,2.33,2.34h5.38c.5,0,.9,.4,.9,.9s-.4,.9-.9,.9H10.23c-.5,0-.9-.4-.9-.9s.41-.9,.9-.9h.61c1.28,0,2.33-1.05,2.33-2.34s-1.04-2.33-2.33-2.33h-1.89c-.5,0-.9-.4-.9-.9s.4-.9,.9-.9Z"/></g><g id="au"/><g id="av"/><g id="aw"/><g id="ax"/></svg>