<?xml version="1.0" encoding="utf-8"?>
<!-- Generator: Adobe Illustrator 25.3.0, SVG Export Plug-In . SVG Version: 6.00 Build 0)  -->
<svg version="1.1" id="Layer_1" xmlns="http://www.w3.org/2000/svg" xmlns:xlink="http://www.w3.org/1999/xlink" x="0px" y="0px"
	 viewBox="0 0 38.4 64" style="enable-background:new 0 0 38.4 64;" xml:space="preserve">
<style type="text/css">
	.st0{fill:#A4C2F7;}
	.st1{fill:#E3E7F2;}
	.st2{fill:#FFFFFF;}
	.st3{fill:#428DFF;}
</style>
<g transform="translate(0,27.199999999999996)">
	<path vector-effect="non-scaling-stroke" class="st0" d="M32,30v2.5c0,1.8-1.4,3.2-3.2,3.2H9.6c-1.8,0-3.2-1.4-3.2-3.2V30
		c0.3,0.2,0.7,0.3,1.1,0.4c1.4,0.1,2.8,0.1,4.3,0h14.9c0.4,0,0.7,0,1.1,0c0.4,0,0.7,0.1,1.1,0.1C29.9,30.7,31,30.5,32,30z"/>
	<path vector-effect="non-scaling-stroke" class="st1" d="M28.8,30v2.5c0,1.8-1.4,3.2-3.2,3.2h-16c-1.8,0-3.2-1.4-3.2-3.2v-2
		c0.4,0,0.7-0.1,1.1-0.1c0.4,0,0.7,0,1.1,0h14.9c1.4,0.2,2.8,0.2,4.3,0C28.1,30.3,28.5,30.2,28.8,30z"/>
	<path vector-effect="non-scaling-stroke" class="st0" d="M10.7-12.3L10.7-12.3c0.4,0,0.7,0,1.1,0H10.7z M25.6-26.1h-3.2
		c1.2,0,2.1,1,2.1,2.1v11.7h2.1c0.4,0,0.7,0,1.1,0.1V-24C27.7-25.2,26.8-26.1,25.6-26.1z"/>
	<path vector-effect="non-scaling-stroke" class="st0" d="M23.5-12.3c0.4,0,0.7,0,1.1,0.1v-0.1H23.5z"/>
	<path vector-effect="non-scaling-stroke" class="st1" d="M22.4-26.1h-9.6c-1.2,0-2.1,1-2.1,2.1v11.7h13.9V-24
		C24.5-25.2,23.6-26.1,22.4-26.1z M23.5-18.7c0,0.6-0.5,1.1-1.1,1.1H16c-0.6,0-1.1-0.5-1.1-1.1v-2.1c0-0.6,0.5-1.1,1.1-1.1h6.4
		c0.6,0,1.1,0.5,1.1,1.1V-18.7z"/>
	<path vector-effect="non-scaling-stroke" class="st0" d="M11.7-13.3h14.9c5.9,0,10.7,4.8,10.7,10.7v23.5c0,5.9-4.8,10.7-10.7,10.7
		H11.7c-5.9,0-10.7-4.8-10.7-10.7V-2.7C1.1-8.6,5.8-13.3,11.7-13.3z"/>
	<path vector-effect="non-scaling-stroke" class="st1" d="M11.7-13.3h11.7c5.9,0,10.7,4.8,10.7,10.7v23.5c0,5.9-4.8,10.7-10.7,10.7
		H11.7c-5.9,0-10.7-4.8-10.7-10.7V-2.7C1.1-8.6,5.8-13.3,11.7-13.3z"/>
	<path vector-effect="non-scaling-stroke" class="st0" d="M27.7,15.4c0,6.1-6.4,6.5-8.5,6.5c-0.5,0-1.1,0-1.6-0.1c0,0,0,0,0,0
		c-2.7-0.3-6.9-1.5-6.9-6.4c0-0.8,0.2-1.7,0.5-2.5c0.4-1.1,1.1-2,1.9-2.8c0.1,0,0.1,0,0.1,0.1c-0.3,0.6-0.3,1.3,0,2
		c0.2,0.4,0.7,0.8,1.7,0.8c0.9,0,1.7-0.4,1.7-2c0-1.6-2.1-3.2-2.1-5.7c0-1,0.2-2,0.6-2.9c0.7-1.9,2.1-3.7,4.1-3.9
		c0.1,0,0.1,0,0.1,0.1c0,0.1,0,0.1,0,0.1c-0.8,0.5-1.3,1.3-1.4,2.2C17.9,5.7,27.7,7.3,27.7,15.4z"/>
	<path vector-effect="non-scaling-stroke" class="st1" d="M24.5,15.4c0,4.9-4.2,6.1-6.9,6.4c0,0,0,0,0,0c-2.7-0.3-6.9-1.5-6.9-6.4
		c0-0.8,0.2-1.7,0.5-2.5c0.2,0,0.4,0,0.6,0c0.6,0,1.2-0.3,1.5-0.8c0.2,0.4,0.7,0.8,1.7,0.8c0.9,0,1.7-0.4,1.7-2
		c0-1.6-2.1-3.2-2.1-5.7c0-1,0.2-2,0.6-2.9C16.8,6.1,24.5,8.2,24.5,15.4z"/>
	<path vector-effect="non-scaling-stroke" class="st2" d="M9.6,32.5V30c0,0,0.1,0,0.1,0c-3.3-1.9-5.4-5.4-5.4-9.3V-2.7
		c0-5.5,4.1-10.1,9.6-10.6V-24c0-1.2,1-2.1,2.1-2.1h-3.2c-1.2,0-2.1,1-2.1,2.1v10.7C5.2-12.7,1.1-8.2,1.1-2.7v23.5
		c0,3.8,2.1,7.4,5.4,9.3c0,0-0.1,0-0.1,0v2.5c0,1.8,1.4,3.2,3.2,3.2h3.2C11,35.7,9.6,34.3,9.6,32.5z"/>
	<path vector-effect="non-scaling-stroke" class="st2" d="M2.1-2.7v23.5H0V-2.7H2.1z"/>
	<g>
		<path vector-effect="non-scaling-stroke" class="st3" d="M1.1,2.7c0.6,0,1.1-0.5,1.1-1.1v-4.3H0v4.3C0,2.2,0.5,2.7,1.1,2.7z"/>
		<path vector-effect="non-scaling-stroke" class="st3" d="M0,20.8h2.1V10.1C2.1,9.5,1.7,9,1.1,9C0.5,9,0,9.5,0,10.1V20.8z"/>
		<path vector-effect="non-scaling-stroke" class="st3" d="M2.1,5.9c0-0.3-0.1-0.6-0.3-0.8L1.7,5c-0.1,0-0.1-0.1-0.2-0.1
			c-0.1,0-0.1-0.1-0.2-0.1c-0.1,0-0.1,0-0.2,0c-0.3,0-0.6,0.1-0.8,0.3C0.2,5.2,0.1,5.3,0.1,5.4C-0.1,5.8,0,6.3,0.3,6.6
			c0.1,0.1,0.2,0.2,0.4,0.2c0.1,0.1,0.3,0.1,0.4,0.1c0.3,0,0.6-0.1,0.8-0.3C2,6.4,2.1,6.1,2.1,5.9z"/>
		<path vector-effect="non-scaling-stroke" class="st3" d="M26.7,32.5H11.7C5.3,32.5,0,27.3,0,20.8c0-0.6,0.5-1.1,1.1-1.1
			c0.6,0,1.1,0.5,1.1,1.1c0,5.3,4.3,9.6,9.6,9.6h14.9c5.3,0,9.6-4.3,9.6-9.6V-2.7c0-5.3-4.3-9.6-9.6-9.6H11.7
			c-5.3,0-9.6,4.3-9.6,9.6c0,0.6-0.5,1.1-1.1,1.1C0.5-1.6,0-2.1,0-2.7c0-6.5,5.3-11.7,11.7-11.7h14.9c6.5,0,11.7,5.3,11.7,11.7v23.5
			C38.4,27.3,33.1,32.5,26.7,32.5z"/>
		<path vector-effect="non-scaling-stroke" class="st3" d="M28.8,36.8H9.6c-2.4,0-4.3-1.9-4.3-4.3V30c0-0.4,0.2-0.7,0.5-0.9
			c0.3-0.2,0.7-0.2,1.1,0c1.5,0.8,3.1,1.3,4.8,1.3h14.9c1.7,0,3.3-0.4,4.8-1.3c0.3-0.2,0.7-0.2,1.1,0c0.3,0.2,0.5,0.5,0.5,0.9v2.5
			C33.1,34.9,31.1,36.8,28.8,36.8z M7.5,31.7v0.8c0,1.2,1,2.1,2.1,2.1h19.2c1.2,0,2.1-1,2.1-2.1v-0.8c-1.4,0.5-2.8,0.8-4.3,0.8H11.7
			C10.3,32.5,8.8,32.2,7.5,31.7z"/>
		<path vector-effect="non-scaling-stroke" class="st3" d="M22.4-16.5H16c-1.2,0-2.1-1-2.1-2.1v-2.1c0-1.2,1-2.1,2.1-2.1h6.4
			c1.2,0,2.1,1,2.1,2.1v2.1C24.5-17.5,23.6-16.5,22.4-16.5z M16-20.8v2.1h6.4v-2.1H16z"/>
		<path vector-effect="non-scaling-stroke" class="st3" d="M27.7-12.2c0,0-0.1,0-0.1,0c-0.3,0-0.6,0-1,0H11.7c-0.3,0-0.6,0-1,0
			c-0.3,0-0.6-0.1-0.8-0.3c-0.2-0.2-0.4-0.5-0.4-0.8V-24c0-1.8,1.4-3.2,3.2-3.2h12.8c1.8,0,3.2,1.4,3.2,3.2v10.7
			C28.8-12.7,28.3-12.2,27.7-12.2z M11.7-14.4h14.9V-24c0-0.6-0.5-1.1-1.1-1.1H12.8c-0.6,0-1.1,0.5-1.1,1.1V-14.4z"/>
		<path vector-effect="non-scaling-stroke" class="st3" d="M19.2,22.9c-6,0-9.6-2.8-9.6-7.5c0.1-2.3,1.1-4.5,2.8-6
			C12.8,9,13.3,9,13.8,9.2c0.4,0.3,0.6,0.8,0.4,1.3c-0.2,0.4-0.2,0.8-0.1,1.1c0.1,0.1,0.3,0.2,0.8,0.2c0.3,0,0.6,0,0.6-1
			c-0.1-0.6-0.4-1.2-0.8-1.7C14,8,13.5,6.7,13.4,5.3c0-2.9,1.8-7.5,5.6-7.9c0.5-0.1,1.1,0.2,1.3,0.8c0.2,0.5,0,1.1-0.4,1.4
			c-0.5,0.3-0.8,0.8-0.9,1.3c0,1.6,1.7,2.9,3.6,4.5c2.8,2.2,6.2,5,6.2,10.1C28.8,20.1,25.2,22.9,19.2,22.9z M12.4,12.9
			c-0.4,0.8-0.6,1.6-0.6,2.5c0,4.7,4.7,5.4,7.5,5.4c2.8,0,7.5-0.7,7.5-5.4c0-4.1-2.8-6.3-5.4-8.4c-2.2-1.7-4.2-3.4-4.4-5.8
			c-0.8,1.2-1.3,2.7-1.3,4.1c0.1,1,0.5,2,1.1,2.9c0.6,0.8,1,1.8,1.1,2.8c0,2.3-1.4,3.1-2.8,3.1C14,14.1,13,13.7,12.4,12.9
			C12.4,12.9,12.4,12.9,12.4,12.9z"/>
	</g>
</g>
</svg>
